<?xml version="1.0" standalone="no"?>
<!DOCTYPE svg PUBLIC "-//W3C//DTD SVG 20010904//EN"
 "http://www.w3.org/TR/2001/REC-SVG-20010904/DTD/svg10.dtd">
<svg version="1.0" xmlns="http://www.w3.org/2000/svg"
 width="966.000000pt" height="964.000000pt" viewBox="0 0 966.000000 964.000000"
 preserveAspectRatio="xMidYMid meet">

<g transform="translate(0.000000,964.000000) scale(0.100000,-0.100000)"
fill="#000000" stroke="none">
<path d="M5492 9343 c-22 -38 -65 -117 -97 -177 l-58 -109 -71 6 c-304 26
-475 29 -686 14 -166 -12 -218 -13 -227 -4 -6 7 -50 80 -98 162 -48 83 -90
154 -95 159 -4 4 -28 4 -52 -2 -98 -22 -394 -105 -402 -113 -5 -5 -15 -84 -23
-176 -8 -92 -17 -171 -21 -174 -4 -4 -79 -30 -167 -58 -146 -47 -313 -109
-390 -146 -16 -7 -92 -43 -168 -79 -75 -36 -140 -66 -144 -66 -4 0 -64 57
-134 126 -70 69 -131 124 -136 121 -82 -45 -394 -231 -398 -237 -3 -4 11 -87
30 -184 19 -97 35 -189 34 -204 0 -22 -21 -43 -112 -117 -140 -114 -406 -378
-522 -517 -49 -60 -92 -108 -96 -108 -4 0 -56 15 -115 34 -245 77 -225 73
-241 51 -36 -50 -233 -371 -233 -381 0 -7 47 -71 104 -144 75 -95 103 -136 98
-148 -4 -10 -37 -76 -74 -148 -88 -172 -168 -364 -230 -549 -28 -82 -56 -155
-62 -162 -7 -8 -70 -15 -184 -19 l-172 -7 -9 -36 c-5 -20 -23 -106 -40 -191
-18 -85 -36 -172 -42 -194 -8 -30 -8 -41 3 -51 7 -7 77 -51 155 -100 79 -48
145 -91 148 -95 3 -5 -2 -84 -10 -177 -8 -92 -15 -247 -15 -344 0 -157 4 -223
25 -441 l6 -56 -162 -89 c-89 -48 -164 -94 -167 -102 -3 -8 5 -53 16 -100 55
-215 91 -344 98 -351 5 -4 72 -13 149 -20 77 -6 154 -13 170 -16 29 -4 31 -9
78 -152 66 -201 133 -366 228 -561 l80 -164 -103 -106 c-119 -121 -108 -110
-131 -137 -18 -22 -16 -25 102 -220 l120 -199 37 2 c20 2 64 9 98 17 33 8 99
22 146 31 47 9 93 18 102 21 18 5 18 6 138 -136 133 -156 411 -430 529 -522
l35 -27 -47 -128 c-50 -136 -54 -158 -34 -166 7 -3 91 -60 187 -126 96 -67
181 -120 190 -118 8 2 63 38 122 81 58 42 113 76 122 76 9 0 61 -25 116 -56
194 -109 532 -251 755 -318 50 -15 96 -29 102 -31 9 -3 13 -46 15 -151 l3
-147 224 -58 c123 -31 229 -55 235 -53 6 3 51 66 101 140 l89 136 46 -6 c197
-27 685 -31 887 -8 34 4 66 6 72 4 6 -2 28 -38 50 -80 82 -160 95 -184 107
-189 7 -2 52 4 101 15 48 11 144 32 213 47 69 16 130 32 136 37 6 4 14 34 18
66 28 227 30 235 56 243 284 82 601 210 860 348 101 55 112 58 132 38 7 -7 40
-35 73 -62 33 -28 62 -52 65 -55 3 -3 26 -23 53 -44 36 -30 52 -37 66 -30 10
5 98 65 195 134 158 112 176 128 173 150 -3 14 -23 88 -46 165 -22 77 -41 142
-41 145 0 4 33 33 72 66 118 96 342 319 475 472 69 78 125 142 126 142 1 0 72
-23 157 -50 85 -27 162 -50 170 -49 13 0 141 193 232 349 l28 47 -48 61 c-26
34 -73 95 -105 136 l-58 74 80 159 c129 257 236 532 306 785 8 31 19 59 23 62
4 2 48 12 97 21 208 39 236 44 244 49 5 3 12 36 16 73 3 38 15 137 26 222 19
149 19 155 2 165 -10 6 -74 36 -143 67 l-125 57 5 133 c7 194 6 422 -3 594
l-8 150 166 99 c147 88 165 101 164 125 0 14 -17 125 -37 246 l-37 220 -60 6
c-33 4 -112 8 -175 9 -63 1 -126 5 -139 9 -21 6 -31 26 -71 151 -81 247 -221
570 -326 753 l-28 48 137 137 c75 76 137 142 137 148 0 12 -214 381 -231 398
-5 6 -94 -7 -225 -33 l-216 -43 -206 204 c-195 192 -344 330 -457 424 l-49 41
53 154 c29 85 56 166 61 181 8 26 3 30 -178 149 -103 67 -195 124 -205 127
-11 3 -69 -35 -164 -107 -80 -61 -153 -111 -162 -111 -9 0 -66 24 -126 54
-159 78 -338 152 -510 211 -83 28 -155 54 -161 58 -6 3 -14 37 -17 74 -24 267
-31 333 -37 343 -4 7 -74 23 -156 36 -82 13 -177 28 -210 34 -100 17 -99 17
-142 -57z m-172 -392 c344 -44 658 -117 955 -226 988 -359 1817 -1097 2283
-2031 511 -1022 580 -2184 194 -3259 -316 -880 -945 -1645 -1759 -2138 -422
-256 -930 -445 -1428 -531 -478 -82 -1067 -75 -1525 20 -990 205 -1858 746
-2467 1539 -453 590 -750 1319 -824 2020 -5 50 -14 134 -19 188 -26 251 -7
667 45 992 76 479 270 1006 529 1434 683 1133 1844 1869 3151 1996 162 16 726
13 865 -4z"/>
<path d="M4640 8839 c-556 -33 -1071 -167 -1550 -405 -458 -228 -813 -492
-1171 -872 -495 -524 -846 -1206 -993 -1932 -58 -282 -70 -417 -70 -785 0
-300 2 -360 22 -510 13 -93 25 -172 27 -175 2 -4 9 -38 15 -76 25 -161 112
-464 204 -711 53 -144 180 -400 286 -577 492 -826 1279 -1459 2185 -1758 835
-276 1734 -270 2575 17 750 256 1437 760 1913 1405 425 574 679 1224 763 1945
22 184 25 652 6 825 -65 587 -232 1109 -509 1593 -631 1101 -1745 1842 -2993
1991 -279 34 -458 40 -710 25z m505 -1098 c277 -24 582 -101 855 -217 226 -97
427 -214 624 -363 139 -106 165 -129 312 -276 176 -177 354 -408 457 -596 128
-233 211 -429 271 -639 83 -296 109 -485 109 -810 0 -246 -8 -336 -49 -560
-90 -489 -340 -991 -686 -1381 -293 -328 -671 -593 -1088 -763 -290 -117 -532
-173 -885 -202 -198 -17 -218 -17 -419 0 -302 25 -513 69 -769 160 -702 249
-1301 780 -1632 1446 -239 479 -339 999 -295 1538 14 182 38 322 90 532 16 64
81 249 124 355 278 672 824 1232 1498 1535 291 131 624 218 928 241 85 6 157
13 160 16 6 7 235 -3 395 -16z m-1736 -5676 c68 -34 91 -69 91 -139 0 -44 -16
-103 -37 -135 -4 -6 -92 29 -98 39 -3 5 1 26 10 46 19 46 19 59 -1 78 -23 24
-61 20 -79 -8 -31 -47 -176 -378 -173 -394 2 -9 15 -23 30 -32 36 -20 56 -7
85 53 12 25 27 48 32 51 10 7 86 -27 94 -41 7 -11 -39 -103 -65 -134 -32 -37
-60 -49 -111 -49 -57 0 -104 20 -142 60 -27 28 -30 37 -30 98 1 61 7 80 63
202 116 253 133 283 177 307 52 29 94 29 154 -2z m2957 -76 c69 -42 109 -139
93 -225 -7 -34 -6 -50 2 -53 6 -2 27 -17 46 -34 72 -64 113 -199 79 -265 -42
-81 -165 -119 -240 -73 -64 40 -112 152 -103 242 6 57 6 58 -26 78 -86 53
-128 190 -83 267 44 74 162 107 232 63z m-2550 -79 c47 -20 83 -65 91 -114 6
-38 -13 -132 -29 -142 -11 -7 -96 15 -103 26 -2 3 2 27 10 52 10 36 11 50 2
62 -19 24 -62 30 -80 12 -9 -9 -41 -96 -72 -194 -31 -97 -60 -186 -64 -197
-13 -32 4 -62 39 -70 40 -9 52 3 75 73 16 50 19 53 44 47 55 -14 76 -29 73
-55 -6 -47 -56 -135 -91 -157 -68 -45 -182 -21 -235 50 -34 47 -28 111 32 297
89 275 101 298 174 323 47 16 71 14 134 -13z m2185 -121 c15 -52 42 -150 60
-219 18 -69 36 -126 40 -128 36 -16 41 -29 44 -130 l3 -102 -46 -14 c-45 -13
-48 -12 -59 8 -7 11 -12 31 -13 44 0 12 -6 25 -13 28 -7 2 -57 -7 -110 -21
-53 -14 -104 -25 -111 -25 -8 0 -17 14 -21 31 -7 29 -3 56 31 249 8 47 25 146
37 220 l22 134 45 12 c25 7 50 11 55 10 6 -2 22 -45 36 -97z m-1831 26 c177
-36 163 -29 155 -83 -4 -26 -10 -51 -14 -55 -4 -4 -28 -3 -52 2 -24 6 -48 6
-52 2 -8 -8 -117 -513 -117 -545 0 -17 -6 -18 -52 -13 -28 4 -55 10 -60 15 -4
4 5 71 22 148 16 76 34 162 40 189 5 28 19 90 30 139 11 49 17 93 13 97 -5 4
-28 11 -53 16 -44 9 -45 10 -42 43 6 55 20 82 40 76 9 -3 73 -17 142 -31z
m1350 -71 c56 -48 58 -55 106 -408 14 -107 15 -134 4 -165 -26 -75 -82 -111
-173 -111 -49 0 -59 4 -96 38 -35 31 -44 47 -56 102 -23 105 -58 399 -52 441
11 83 72 128 174 129 52 0 66 -4 93 -26z m-673 -27 c43 -29 63 -76 63 -147 l0
-60 -39 0 c-62 0 -71 7 -71 54 0 51 -13 66 -57 66 -42 0 -53 -21 -53 -104 l0
-66 34 0 c73 0 137 -38 162 -97 19 -43 18 -157 -1 -221 -21 -69 -65 -104 -141
-110 -72 -6 -122 16 -157 71 -24 36 -27 51 -27 122 0 144 20 395 34 428 17 40
54 75 92 87 43 14 124 2 161 -23z m333 -322 l0 -55 -89 0 -89 0 -4 43 c-7 66
-6 67 93 67 l89 0 0 -55z"/>
<path d="M5155 6470 c-33 -13 -66 -56 -76 -97 -12 -54 -11 -330 2 -377 6 -22
24 -52 39 -68 24 -24 36 -28 84 -28 72 0 103 15 127 62 17 33 19 60 19 225 0
159 -3 193 -18 223 -28 57 -115 86 -177 60z m99 -112 c10 -39 7 -328 -4 -349
-12 -21 -50 -25 -68 -7 -13 13 -18 359 -5 371 3 4 21 7 39 7 24 0 33 -5 38
-22z"/>
<path d="M2960 6185 l0 -286 118 3 117 3 3 43 3 42 -60 0 c-98 0 -91 -20 -91
246 l0 234 -45 0 -45 0 0 -285z"/>
<path d="M3415 6458 c-2 -7 -9 -38 -14 -68 -6 -30 -29 -145 -51 -255 -22 -110
-40 -208 -40 -217 0 -15 9 -18 44 -18 45 0 45 0 53 43 l9 42 49 0 c42 0 50 -3
53 -20 9 -64 10 -65 57 -65 36 0 45 3 45 18 -1 9 -25 136 -54 282 l-53 265
-47 3 c-31 2 -48 -1 -51 -10z m74 -341 c1 -34 -1 -38 -21 -35 -29 4 -34 38
-17 116 l13 57 12 -50 c7 -27 13 -67 13 -88z"/>
<path d="M3957 6443 c-8 -40 -9 -507 -1 -526 4 -12 18 -17 50 -17 l43 0 3 123
3 122 48 3 47 3 0 45 0 44 -50 0 -50 0 0 70 0 69 73 3 72 3 3 43 3 42 -119 0
-120 0 -5 -27z"/>
<path d="M4375 6458 c-10 -26 -105 -514 -105 -536 0 -21 4 -23 43 -20 41 3 42
4 52 46 l9 43 50 -3 c42 -2 51 -7 54 -23 9 -64 10 -65 57 -65 29 0 45 4 45 13
0 6 -14 80 -30 162 -17 83 -40 197 -51 255 -29 151 -24 140 -75 140 -27 0 -46
-5 -49 -12z m61 -252 c3 -13 6 -45 7 -72 2 -46 0 -49 -23 -49 -14 0 -25 5 -24
10 0 6 4 38 8 73 9 64 21 80 32 38z"/>
<path d="M4650 6460 c0 -11 72 -380 96 -487 l15 -73 44 0 c43 0 45 1 54 38 16
60 101 493 101 513 0 16 -8 19 -44 19 l-44 0 -12 -67 c-47 -270 -47 -269 -56
-260 -3 3 -14 54 -25 113 -10 59 -23 131 -29 160 l-11 54 -45 0 c-24 0 -44 -4
-44 -10z"/>
<path d="M5490 6184 l0 -285 43 3 42 3 5 110 c4 85 8 110 19 110 16 0 35 -57
45 -135 10 -78 20 -90 66 -90 48 0 49 2 19 145 l-21 101 27 40 c25 36 26 45
23 127 -3 88 -3 89 -40 123 -37 34 -38 34 -133 34 l-95 0 0 -286z m168 184
c14 -14 16 -106 3 -126 -4 -8 -24 -14 -42 -15 l-34 -2 -3 78 -3 77 34 0 c18 0
38 -5 45 -12z"/>
<path d="M5892 6188 l3 -283 42 -3 c37 -3 43 0 48 20 3 13 4 140 3 283 l-3
260 -48 3 -47 3 2 -283z"/>
<path d="M6110 6426 l0 -45 43 -3 42 -3 3 -237 2 -238 45 0 45 0 0 239 0 240
43 3 c42 3 42 3 45 46 l3 42 -135 0 -136 0 0 -44z"/>
<path d="M6541 6403 c-32 -172 -66 -342 -87 -430 -8 -34 -14 -65 -14 -68 0 -3
21 -5 47 -3 46 3 48 4 59 43 10 39 12 40 57 43 44 3 47 1 53 -25 14 -64 13
-63 61 -63 l45 0 -4 33 c-4 25 -82 408 -105 515 -5 19 -12 22 -52 22 l-47 0
-13 -67z m72 -185 c3 -13 9 -49 12 -80 7 -57 7 -58 -18 -58 -33 0 -34 7 -23
91 10 71 20 86 29 47z"/>
<path d="M4605 5543 c-82 -74 -179 -163 -215 -197 -61 -57 -163 -149 -302
-274 l-57 -51 -73 31 c-40 17 -97 41 -127 54 l-54 24 -131 -129 -131 -130 -75
-19 c-41 -11 -158 -44 -260 -72 -102 -29 -198 -56 -215 -60 -16 -4 -104 -29
-195 -55 -91 -26 -189 -53 -217 -61 -129 -34 -166 -45 -288 -79 -71 -21 -138
-39 -147 -42 -14 -4 -18 -16 -17 -47 0 -49 14 -134 22 -142 7 -7 54 5 287 71
91 26 189 53 217 61 112 30 300 83 428 119 28 8 61 17 75 21 14 4 63 18 110
31 98 28 289 81 339 93 23 6 62 36 120 92 47 46 87 86 89 91 2 4 12 12 22 17
14 8 44 -2 130 -41 62 -27 118 -49 125 -47 12 3 276 238 580 517 61 55 114
101 119 101 5 0 37 -26 70 -58 34 -31 108 -100 165 -152 58 -52 172 -157 254
-233 82 -76 155 -137 162 -135 7 2 55 41 105 88 51 47 99 89 106 93 13 8 49
-15 330 -210 l92 -63 77 0 c42 0 84 -4 94 -10 10 -5 52 -55 92 -110 41 -55 83
-103 94 -105 19 -5 230 -41 405 -70 47 -8 128 -21 180 -30 52 -9 131 -23 175
-30 65 -10 278 -47 407 -69 24 -5 27 -2 36 42 6 26 13 66 15 90 6 54 6 54
-168 83 -148 24 -241 40 -370 63 -49 8 -155 26 -235 40 -234 40 -324 56 -342
62 -9 3 -53 54 -97 113 -44 60 -88 112 -98 115 -9 4 -56 6 -105 5 l-89 -1 -82
54 c-45 30 -158 107 -251 171 l-169 117 -88 -81 c-49 -45 -92 -85 -95 -90 -3
-5 -11 -9 -18 -9 -7 0 -109 89 -227 198 -327 300 -418 382 -427 382 -4 -1 -74
-62 -157 -137z"/>
<path d="M5032 4992 c2 -4 36 -74 77 -154 40 -81 71 -151 70 -156 -2 -6 -106
41 -232 104 -125 63 -232 114 -238 114 -6 0 -9 -7 -5 -15 5 -13 145 -236 271
-430 18 -28 81 -127 140 -220 59 -94 117 -186 130 -205 115 -176 245 -383 245
-391 0 -15 -6 -12 -97 54 -49 35 -182 130 -298 212 -115 82 -232 165 -260 185
-77 57 -525 373 -572 404 l-42 28 -61 -38 c-121 -77 -110 -74 -287 -74 l-162
0 -113 -135 -113 -136 -165 6 -165 6 -155 -130 c-85 -71 -157 -125 -158 -120
-4 9 37 168 74 291 19 64 18 82 -3 73 -96 -37 -319 -122 -362 -137 -44 -14
-85 -18 -212 -18 -95 0 -160 -4 -164 -10 -7 -11 -4 -22 45 -169 42 -126 53
-152 137 -321 239 -484 603 -881 1060 -1156 484 -291 1047 -429 1606 -394 144
9 270 26 447 60 91 18 287 79 410 127 475 187 897 507 1201 910 94 124 184
265 251 393 90 171 208 474 191 490 -8 8 -214 23 -483 35 -240 11 -322 22
-370 49 -25 13 -148 81 -275 150 -126 70 -237 131 -245 136 -65 41 -194 100
-217 100 -15 0 -71 6 -123 14 -52 8 -126 17 -164 21 l-68 7 -181 151 c-350
294 -376 315 -365 289z"/>
<path d="M6260 1887 c-39 -19 -39 -66 0 -111 18 -20 41 -36 51 -36 44 0 50 99
8 141 -22 22 -26 23 -59 6z"/>
<path d="M6359 1584 c-10 -28 -7 -47 18 -106 17 -41 33 -51 69 -42 38 10 46
35 28 88 -27 77 -94 113 -115 60z"/>
<path d="M5927 1583 c-9 -14 -29 -194 -23 -201 7 -7 74 7 80 17 3 4 1 21 -4
37 -5 16 -18 58 -28 93 -10 36 -22 60 -25 54z"/>
<path d="M5382 1648 c-7 -7 -12 -30 -12 -52 0 -71 48 -397 61 -412 15 -18 50
-18 74 -1 15 12 17 23 12 78 -17 179 -47 370 -60 387 -12 15 -59 16 -75 0z"/>
<path d="M4709 1336 c-26 -13 -36 -44 -38 -118 -1 -40 3 -50 24 -64 32 -21 73
-11 80 19 3 12 5 53 3 91 -3 59 -6 70 -24 77 -12 4 -31 2 -45 -5z"/>
</g>
</svg>
