<?xml version="1.0" standalone="no"?>
<!DOCTYPE svg PUBLIC "-//W3C//DTD SVG 20010904//EN"
 "http://www.w3.org/TR/2001/REC-SVG-20010904/DTD/svg10.dtd">
<svg version="1.0" xmlns="http://www.w3.org/2000/svg"
 width="800.000000pt" height="484.000000pt" viewBox="0 0 800.000000 484.000000"
 preserveAspectRatio="xMidYMid meet">

<g transform="translate(0.000000,484.000000) scale(0.100000,-0.100000)"
fill="#000000" stroke="none">
<path d="M0 4410 c0 -273 4 -430 10 -430 5 0 40 12 77 26 38 14 104 39 148 54
246 87 347 125 510 190 99 39 225 82 280 95 87 21 241 81 435 171 57 26 87 60
108 123 8 22 9 37 3 41 -6 3 -17 22 -25 42 -9 20 -21 38 -28 41 -10 4 -10 6 0
6 7 1 11 5 8 10 -3 5 29 20 72 34 l77 26 -467 0 -468 1 -172 -40 c-95 -22
-222 -53 -281 -68 -107 -26 -109 -27 -123 -7 -10 13 -12 33 -8 67 l7 48 -82 0
-81 0 0 -430z"/>
<path d="M2745 4831 c-10 -8 -202 -86 -389 -157 -49 -19 -101 -34 -115 -34
-15 0 -43 -11 -63 -25 -35 -24 -237 -103 -303 -119 -16 -4 -69 -23 -116 -42
-48 -19 -97 -34 -109 -34 -12 0 -39 -9 -59 -19 -20 -11 -58 -29 -86 -41 -27
-12 -77 -35 -109 -51 -32 -16 -71 -29 -87 -29 -15 0 -39 -4 -54 -10 -14 -5
-50 -11 -79 -13 -36 -2 -62 -10 -81 -25 -15 -12 -36 -22 -46 -22 -11 0 -36 -9
-56 -20 -21 -11 -48 -20 -61 -20 -12 0 -25 -7 -28 -15 -9 -22 -65 -53 -97 -53
-16 0 -43 -7 -60 -15 -18 -9 -63 -26 -102 -37 -38 -12 -83 -27 -100 -34 -16
-7 -46 -18 -65 -25 -156 -57 -228 -82 -245 -85 -11 -2 -40 -12 -65 -23 -102
-45 -98 -45 -116 -18 -16 25 -44 34 -44 15 0 -5 5 -10 10 -10 6 0 10 -9 10
-20 0 -11 -7 -20 -15 -20 -12 0 -15 -19 -15 -112 1 -102 2 -111 15 -94 14 19
15 19 15 1 0 -17 1 -17 21 1 12 10 29 18 39 16 10 -2 21 2 25 8 3 5 19 10 36
10 16 0 29 5 29 10 0 6 9 10 19 10 11 0 23 5 26 10 4 6 24 18 46 27 21 8 39
20 39 27 0 7 3 6 9 -2 6 -10 10 -10 21 3 7 8 19 15 28 15 9 0 25 9 36 19 12
11 35 21 51 22 17 2 41 13 55 25 14 12 48 29 75 38 28 9 77 30 110 46 33 16
73 32 89 35 17 4 49 28 77 58 37 39 51 49 58 39 6 -11 19 -8 60 13 28 15 54
31 57 36 11 19 22 7 33 -36 6 -25 13 -45 16 -45 3 0 17 18 31 40 31 46 49 51
58 15 4 -14 10 -25 14 -25 4 0 34 27 65 59 74 78 136 120 173 119 16 -1 52 9
79 21 30 13 51 18 53 11 5 -15 58 -12 72 5 37 45 222 125 395 171 33 8 67 20
76 24 31 16 27 -1 -14 -61 l-42 -60 25 -20 c40 -31 70 -21 86 28 13 38 13 45
-2 69 -14 20 -15 27 -5 33 7 5 12 12 11 17 -2 12 117 71 159 79 35 7 71 -14
71 -41 0 -8 13 -20 29 -28 44 -23 45 -43 6 -89 -19 -22 -35 -50 -35 -61 0 -12
-9 -36 -21 -55 -15 -25 -19 -43 -14 -65 22 -106 28 -167 19 -207 -9 -42 -11
-44 -47 -47 -53 -4 -92 16 -113 58 l-18 35 -7 -40 c-4 -22 -12 -91 -17 -153
-9 -99 -13 -117 -35 -140 -47 -52 -44 -57 59 -91 111 -36 138 -38 182 -11 l33
21 -7 138 -7 139 25 16 c30 19 58 12 58 -15 0 -10 4 -19 9 -19 16 0 30 -92 25
-172 -2 -43 0 -80 6 -83 14 -9 65 21 89 51 18 23 21 40 21 125 0 83 4 107 24
154 21 47 29 55 51 55 39 0 91 -56 99 -105 12 -69 18 -73 72 -47 26 13 76 42
113 66 123 79 233 128 305 133 82 7 322 -16 335 -31 7 -8 5 -20 -4 -36 -37
-64 -39 -71 -28 -88 21 -35 54 -43 145 -37 106 7 142 21 201 78 61 60 76 93
88 190 30 264 36 300 52 312 9 6 27 31 41 55 27 47 24 65 -21 126 -20 27 -23
43 -23 122 l0 92 -157 0 -158 0 -33 -31 c-20 -19 -31 -37 -28 -47 16 -54 14
-74 -8 -97 -43 -42 -165 -60 -241 -35 -19 6 -55 9 -82 5 -52 -6 -141 19 -150
42 -3 7 4 28 16 46 26 43 26 59 1 82 -19 17 -30 17 -103 -1 -21 -5 -36 -1 -57
15 -27 19 -42 21 -178 21 -81 0 -152 -4 -157 -9z m194 -145 c17 -16 28 -32 26
-36 -3 -4 -22 -10 -44 -14 -22 -3 -56 -15 -75 -27 -21 -12 -61 -22 -104 -26
-62 -5 -72 -3 -91 16 -11 11 -21 27 -21 35 0 23 57 65 98 71 20 4 42 8 47 11
6 2 38 2 72 1 53 -3 67 -7 92 -31z m83 -174 c6 -23 4 -48 -6 -80 -8 -26 -17
-73 -20 -106 -2 -32 -8 -61 -11 -64 -21 -22 -75 78 -75 139 0 26 33 112 53
137 19 23 50 10 59 -26z m-244 -132 c2 -57 -2 -89 -19 -135 -24 -67 -71 -131
-103 -141 -11 -4 -32 -15 -46 -25 -20 -15 -35 -18 -77 -13 -49 6 -53 9 -62 40
-5 19 -19 46 -30 60 -28 35 -26 52 9 94 17 19 30 39 30 45 1 27 39 54 86 60
86 11 93 15 119 56 23 35 30 40 58 37 l32 -3 3 -75z"/>
<path d="M4818 4793 c3 -39 9 -53 34 -75 18 -15 34 -26 36 -24 2 3 -8 25 -23
49 -18 32 -24 53 -19 71 5 21 3 26 -12 26 -17 0 -19 -7 -16 -47z"/>
<path d="M5260 4760 c0 -44 -4 -80 -8 -80 -4 0 -16 14 -25 30 -10 17 -22 30
-27 30 -4 0 -16 3 -26 7 -15 6 -16 1 -10 -53 4 -33 20 -107 38 -164 17 -58 33
-118 35 -135 5 -26 4 -28 -9 -15 -8 8 -23 35 -32 60 -30 76 -66 104 -66 50 0
-34 -6 -37 -31 -14 -17 16 -18 15 -9 -17 6 -19 15 -35 20 -37 6 -2 10 -11 10
-21 0 -9 5 -22 12 -29 9 -9 8 -21 -1 -53 -7 -22 -10 -43 -7 -46 7 -7 27 7 22
16 -3 4 -1 13 5 21 7 12 9 11 9 -5 0 -11 11 -38 25 -60 13 -22 25 -45 25 -52
0 -7 14 -35 30 -64 20 -33 29 -58 25 -73 -4 -13 -3 -16 2 -9 6 8 23 -15 51
-72 23 -47 42 -87 42 -90 0 -2 -12 -2 -27 1 -44 7 -72 -15 -112 -91 -49 -92
-138 -240 -159 -264 -16 -17 -24 -18 -92 -10 -41 6 -95 9 -120 7 l-45 -3 30
-20 c24 -17 49 -21 148 -23 102 -3 121 -1 138 14 10 9 19 21 19 25 0 4 19 40
43 81 24 40 59 100 77 133 61 111 60 111 126 -18 116 -229 237 -462 244 -472
4 -5 53 -100 108 -210 56 -110 133 -258 172 -330 38 -71 69 -139 68 -150 -2
-11 2 -19 9 -18 7 2 15 -9 18 -25 4 -15 8 -37 11 -49 3 -16 9 -20 21 -16 14 5
15 1 9 -33 -5 -27 -4 -35 3 -24 9 13 12 12 25 -5 18 -24 30 -81 20 -97 -4 -6
-3 -8 4 -4 6 3 13 -3 17 -14 3 -11 12 -20 18 -20 16 0 93 -150 89 -175 -1 -10
0 -26 3 -34 5 -13 7 -13 15 -2 10 17 65 -86 75 -142 4 -21 11 -40 16 -43 5 -3
9 -22 9 -43 0 -20 5 -42 11 -48 6 -6 8 -21 4 -33 -7 -21 -7 -21 -22 7 -9 15
-17 50 -19 76 -3 55 -14 72 -50 81 l-26 7 22 19 22 19 -28 -3 c-16 -3 -37 -7
-47 -11 -9 -4 -24 -2 -32 5 -13 11 -16 7 -22 -20 -6 -31 -7 -32 -20 -15 -13
18 -13 18 -13 -1 -1 -18 -17 17 -42 94 -14 39 -33 44 -23 5 5 -16 7 -36 7 -45
-1 -10 -2 -24 -2 -30 -1 -7 2 -23 5 -35 6 -18 3 -23 -10 -23 -12 0 -15 5 -11
16 5 14 4 15 -9 4 -12 -10 -15 -10 -15 4 0 9 5 16 10 16 6 0 10 7 10 16 0 10
-6 14 -14 11 -10 -4 -13 -1 -9 9 3 7 0 14 -7 14 -8 0 -9 -10 -5 -31 7 -30 6
-32 -16 -26 -13 4 -30 7 -37 7 -7 0 -10 5 -7 10 4 7 -2 9 -17 5 -31 -8 -60 21
-37 37 11 7 9 9 -8 5 -13 -3 -23 -1 -23 4 0 5 5 9 10 9 6 0 10 5 10 11 0 6 -9
8 -20 4 -14 -5 -20 -2 -20 9 0 9 -4 16 -10 16 -5 0 -10 6 -10 14 0 19 -46 66
-65 66 -10 0 -15 -9 -15 -27 l0 -27 -16 22 c-8 12 -20 20 -25 16 -6 -3 -9 0
-8 7 3 20 -12 50 -22 43 -5 -3 -6 1 -4 9 3 7 -3 22 -15 32 -22 20 -28 8 -7
-14 7 -9 7 -11 1 -8 -7 4 -42 52 -78 106 -37 55 -73 107 -81 115 -8 8 -15 17
-15 21 0 3 -5 11 -11 18 -5 7 -33 48 -61 92 -28 44 -76 117 -106 163 -30 46
-54 94 -54 108 0 14 -5 23 -11 21 -10 -3 -57 55 -57 69 0 3 -15 24 -34 47 -18
23 -59 81 -90 130 -31 48 -58 87 -60 87 -2 0 -2 -9 1 -21 l6 -21 -284 7 c-362
8 -456 17 -603 55 -121 31 -146 42 -146 65 0 51 168 68 613 63 185 -2 307 1
307 6 0 14 -81 136 -90 136 -4 0 -10 -6 -13 -13 -3 -8 -17 -12 -33 -11 -51 5
-147 22 -224 39 -186 41 -265 55 -303 55 -23 0 -58 4 -79 9 -47 11 -260 -11
-309 -32 -55 -23 -63 -44 -28 -78 43 -42 38 -64 -21 -94 -28 -14 -67 -42 -88
-63 -25 -25 -53 -41 -87 -50 -73 -18 -189 -31 -278 -32 -72 0 -80 -2 -103 -27
-40 -43 -29 -65 44 -89 34 -12 79 -30 99 -39 32 -16 49 -16 157 -6 158 14 728
34 791 27 129 -14 354 -26 391 -20 30 4 49 1 67 -11 23 -14 35 -15 96 -6 38 6
90 11 116 11 40 0 47 -3 55 -26 11 -29 13 -87 4 -131 -6 -29 -8 -30 -67 -31
-37 -1 -82 5 -112 16 -68 23 -268 23 -340 -1 -61 -20 -90 -21 -275 -8 -196 13
-241 20 -267 43 -21 20 -21 20 -34 -4 -6 -12 -40 -54 -73 -93 -34 -38 -86 -99
-115 -134 -63 -77 -76 -61 129 -168 80 -42 168 -88 195 -103 190 -105 273
-140 326 -141 30 0 136 -7 236 -16 100 -8 189 -13 196 -10 8 3 23 32 35 65 12
33 32 72 44 87 19 25 25 26 78 22 92 -7 91 -5 51 -141 -13 -44 -32 -81 -50
-100 -16 -17 -33 -43 -36 -58 -16 -65 -50 -69 -445 -49 -553 27 -680 43 -680
85 0 7 23 23 51 36 l51 21 112 -21 c61 -11 119 -23 129 -25 9 -2 17 3 17 10 0
16 -99 53 -167 61 -57 7 -69 16 -75 54 -2 21 -28 38 -173 112 -93 48 -178 88
-187 88 -10 0 -23 -10 -29 -22 -7 -13 -26 -40 -43 -60 -17 -20 -49 -60 -71
-89 -22 -28 -62 -78 -90 -109 -27 -32 -72 -86 -100 -120 -27 -35 -77 -96 -110
-136 -33 -40 -91 -111 -130 -159 -38 -48 -79 -97 -90 -110 -11 -13 -28 -33
-38 -45 l-19 -22 284 6 c288 7 338 11 338 26 0 5 13 28 28 52 16 24 35 58 42
76 7 18 21 37 31 42 25 14 170 12 389 -5 102 -8 235 -17 295 -20 61 -3 154
-12 207 -20 54 -8 120 -15 146 -15 l49 0 27 88 c15 48 31 95 35 106 4 12 29
25 66 37 51 16 62 16 92 4 18 -8 34 -20 34 -27 3 -28 -4 -55 -23 -93 -11 -22
-26 -62 -35 -89 -8 -27 -28 -60 -44 -76 l-30 -27 31 -7 c18 -3 35 -4 39 -2 4
3 209 9 456 15 248 6 489 14 537 17 l86 6 29 -40 c15 -22 52 -79 82 -126 30
-47 58 -86 62 -86 5 0 9 -6 9 -14 0 -8 7 -22 16 -30 8 -9 13 -16 9 -16 -4 0 1
-8 10 -17 16 -16 16 -17 -1 -23 -11 -4 -143 -10 -294 -14 -151 -4 -356 -11
-455 -16 -99 -5 -513 -21 -920 -35 -407 -13 -891 -31 -1075 -40 -322 -15
-1175 -48 -1540 -61 -96 -3 -181 -8 -188 -10 -8 -2 -283 -7 -611 -11 -415 -4
-600 -3 -604 4 -4 6 19 33 50 60 32 26 78 66 103 88 25 23 61 53 82 68 20 15
42 33 50 40 7 7 50 41 96 76 45 35 82 65 82 67 0 2 -36 4 -80 4 -77 0 -82 -1
-117 -34 -21 -18 -60 -50 -88 -71 -27 -20 -70 -56 -94 -79 -25 -22 -70 -61
-101 -86 -31 -25 -122 -101 -203 -170 -163 -138 -158 -130 -130 -235 16 -61
16 -64 -3 -90 -10 -16 -27 -42 -37 -59 -11 -16 -36 -50 -58 -74 l-39 -45 0
-283 0 -284 125 0 c128 0 132 1 175 44 17 17 20 17 20 3 0 -8 -5 -19 -10 -22
-27 -16 -3 -25 69 -25 78 0 79 0 89 29 8 24 18 30 51 36 35 6 41 10 41 31 0
13 4 24 9 24 5 0 12 16 15 35 7 33 66 102 131 151 14 10 25 24 25 30 0 16 34
44 53 44 9 0 17 6 17 13 0 24 38 49 77 50 32 2 38 5 36 23 -2 18 5 23 39 28
23 4 48 11 54 17 17 14 115 49 137 49 11 0 31 8 45 18 49 33 157 52 312 56 30
1 88 11 127 24 55 17 94 22 155 21 46 -1 133 6 193 14 61 9 119 14 130 10 30
-10 47 -4 82 30 l33 31 19 -23 c17 -20 19 -34 16 -101 -3 -43 -9 -90 -15 -104
-5 -15 -9 -30 -9 -34 1 -4 1 -16 -1 -27 -1 -19 -2 -19 -9 -2 -4 10 -10 18 -14
18 -4 -1 -6 -2 -5 -3 1 -2 -4 -13 -11 -25 -8 -16 -8 -23 -1 -23 7 0 8 -6 1
-18 -5 -9 -7 -30 -4 -45 6 -29 -13 -61 -30 -50 -5 3 -8 2 -4 -3 3 -5 -7 -26
-21 -46 -62 -87 -120 -164 -165 -219 l-49 -59 230 0 229 0 47 59 c26 33 61 65
77 71 16 7 29 20 29 30 0 10 9 20 20 23 11 3 20 12 20 20 0 20 55 53 105 62
21 4 100 9 175 11 74 3 149 7 165 10 79 14 411 30 475 22 53 -5 180 3 175 12
-4 6 -8 36 -10 68 -3 45 1 64 18 92 11 19 25 38 30 41 5 4 6 12 2 19 -8 13 91
9 290 -11 50 -5 125 -9 168 -9 l77 0 -6 -27 c-4 -16 -24 -73 -45 -129 -22 -55
-39 -105 -39 -111 0 -6 12 -14 28 -17 15 -3 54 -10 88 -17 85 -16 88 -18 71
-65 -23 -64 -47 -138 -47 -146 0 -5 42 -8 94 -8 l95 0 11 54 c6 30 20 78 31
107 10 30 19 54 19 55 0 0 43 0 96 -2 56 -1 131 4 178 13 45 8 87 15 93 15 15
1 28 61 18 78 -7 12 -51 10 -146 -6 -53 -9 -59 12 -10 32 23 9 41 19 41 23 0
10 81 47 127 58 48 11 46 19 23 -82 -29 -121 -70 -318 -70 -331 0 -12 19 -14
123 -12 118 3 122 4 125 26 2 12 7 20 12 17 4 -3 6 -14 3 -25 -5 -20 0 -20
1313 -20 1162 1 1317 2 1300 15 -11 8 -26 15 -33 15 -7 0 -13 5 -13 11 0 6 7
9 15 5 8 -3 15 -1 15 5 0 6 7 8 16 5 22 -8 72 -17 57 -10 -7 3 -13 12 -13 19
0 7 -7 16 -16 19 -9 4 -14 9 -11 12 3 3 23 -6 46 -20 47 -30 57 -32 65 -10 3
8 11 12 17 8 8 -4 9 -3 5 4 -4 7 -12 12 -17 12 -6 0 -17 7 -25 15 -9 8 -27 15
-40 15 -15 0 -23 4 -19 10 4 6 8 24 10 40 3 22 0 30 -11 30 -9 0 -14 -7 -12
-17 2 -12 -3 -18 -17 -18 -13 0 -21 -8 -23 -22 -2 -12 -12 -25 -23 -28 -10 -4
-19 -13 -19 -21 0 -23 -66 -17 -139 12 -36 14 -70 30 -75 35 -6 5 -23 9 -39 9
-16 0 -36 7 -44 16 -17 17 -18 36 -7 178 6 88 7 89 22 61 8 -16 15 -38 16 -50
1 -25 120 -105 157 -105 41 0 79 22 79 47 0 12 5 25 10 28 17 11 11 32 -17 63
-60 62 -63 72 -103 252 -7 30 -19 67 -26 82 -8 15 -14 49 -15 75 0 26 -4 71
-9 98 -9 56 6 105 40 135 11 10 20 22 20 27 0 6 6 16 14 22 20 17 28 -9 10
-33 -16 -23 -10 -36 17 -36 10 0 19 -4 19 -8 0 -5 13 -24 30 -43 16 -19 33
-38 37 -44 12 -15 53 -140 53 -161 0 -11 14 -66 30 -123 35 -122 37 -154 10
-183 -23 -25 -12 -45 17 -33 25 11 44 7 69 -16 21 -20 22 -20 49 3 22 20 28
35 33 84 11 111 13 2334 2 2334 -15 0 -12 30 3 30 7 0 4 7 -7 15 -18 13 -15
20 7 16 4 0 7 409 7 909 0 670 -3 910 -11 910 -8 0 -10 -13 -6 -37 5 -26 3
-33 -3 -23 -9 14 -15 6 -10 -15 7 -30 7 -74 0 -70 -10 6 -33 -94 -29 -128 4
-33 -12 -130 -23 -144 -6 -7 -8 -20 -4 -28 3 -8 1 -15 -3 -15 -5 0 -7 -18 -4
-40 4 -24 2 -40 -5 -40 -5 0 -15 -30 -21 -67 -7 -38 -16 -80 -22 -95 -7 -17
-7 -32 -1 -44 7 -13 4 -22 -17 -40 -22 -20 -23 -23 -7 -24 16 0 16 -2 -5 -20
-21 -17 -21 -19 -6 -20 10 0 17 -6 16 -12 -1 -7 5 -30 14 -50 21 -46 21 -48 1
-48 -24 0 -39 -21 -42 -59 -1 -21 3 -38 13 -45 10 -7 13 -18 9 -29 -7 -19 -20
-22 -29 -6 -12 18 -35 -23 -24 -43 7 -12 5 -19 -7 -26 -12 -7 -14 -16 -9 -33
5 -13 6 -25 4 -25 -2 -1 5 -11 15 -23 29 -32 21 -36 -86 -43 l-37 -2 21 -21
c12 -11 33 -28 47 -37 14 -10 20 -18 14 -19 -17 -2 -32 -6 -35 -9 -2 -1 -15
-3 -30 -4 -36 -2 -49 -16 -15 -16 14 0 29 -5 32 -11 4 -6 13 -8 21 -5 10 4 14
-2 14 -19 0 -16 -6 -24 -17 -24 -32 1 -57 -8 -61 -19 -3 -11 18 -17 42 -13 31
6 96 2 112 -7 18 -10 17 -11 -9 -21 -26 -10 -97 -18 -175 -20 -19 -1 -31 -6
-30 -13 2 -7 -12 -15 -32 -18 -51 -8 -27 -16 83 -30 70 -9 97 -16 97 -26 0 -8
-7 -14 -15 -14 -8 0 -15 -5 -15 -11 0 -23 -30 -38 -91 -45 -35 -3 -72 -11 -81
-16 -19 -9 -25 -48 -8 -48 12 0 60 -49 60 -61 0 -4 -16 -5 -37 -2 -26 4 -34 3
-29 -5 4 -7 17 -12 30 -12 25 0 66 -38 66 -62 0 -15 -29 -47 -37 -39 -8 8
-119 -12 -137 -25 -19 -13 -18 -15 22 -31 27 -12 40 -23 37 -32 -3 -8 0 -11 8
-8 8 3 21 -3 30 -13 14 -16 14 -20 1 -31 -18 -14 -18 -29 -1 -29 7 0 26 -14
43 -32 20 -21 23 -29 11 -25 -11 4 -26 -1 -39 -12 -11 -11 -42 -25 -69 -31
-27 -7 -52 -16 -55 -21 -3 -5 -10 -6 -16 -3 -6 4 -8 2 -5 -3 4 -6 0 -16 -8
-23 -15 -13 -14 -46 3 -77 7 -12 8 -3 5 30 -3 28 -2 47 4 47 8 0 10 -54 4
-101 -1 -4 -9 -6 -18 -5 -10 0 -20 -9 -24 -24 -4 -16 -7 -19 -8 -7 -1 9 -5 17
-11 17 -5 0 -10 -8 -10 -17 -1 -24 -25 -55 -35 -45 -5 4 -5 -1 -2 -11 4 -10 7
-21 7 -23 0 -3 4 -3 9 0 4 3 6 -6 3 -19 -3 -18 0 -24 9 -22 8 2 11 2 7 0 -5
-3 -8 -14 -8 -26 0 -18 -2 -19 -11 -7 -8 12 -9 10 -4 -7 10 -36 -2 -62 -29
-59 -19 2 -23 -1 -20 -18 3 -13 2 -16 -3 -6 -8 19 -34 -88 -27 -113 5 -14 1
-17 -20 -13 -14 3 -26 0 -26 -5 0 -5 -7 -9 -16 -9 -10 0 -14 -7 -13 -22 5 -33
-9 -52 -27 -37 -16 13 -19 33 -4 24 6 -3 10 -1 10 4 0 17 -30 13 -36 -4 -4 -8
-13 -15 -21 -15 -8 0 -12 4 -9 9 4 5 -3 7 -14 4 -11 -3 -20 -1 -20 5 0 6 7 12
15 14 12 2 11 11 -8 48 -12 25 -25 48 -29 51 -5 3 5 26 22 52 82 129 130 263
139 385 5 71 3 92 -6 92 -8 0 -13 -13 -13 -31 0 -17 -4 -28 -10 -24 -14 9 -12
48 4 70 8 11 25 18 45 17 36 -1 36 4 0 87 -11 24 -19 67 -19 97 0 48 3 55 33
76 17 13 34 22 37 21 3 -1 4 5 2 14 -2 8 2 29 9 45 10 25 9 31 -6 42 -14 10
-16 20 -11 42 4 16 7 40 7 54 -1 14 -1 52 0 85 0 33 1 78 2 100 0 22 0 58 0
80 -4 186 -2 240 10 282 8 27 11 57 7 68 -4 11 -3 59 2 108 7 71 6 93 -7 116
-12 24 -13 40 -5 81 5 29 7 57 3 63 -3 6 -8 22 -9 36 -2 14 -8 68 -14 120 -15
126 -1 247 36 321 l27 54 -23 91 -23 90 22 49 c11 27 21 50 21 52 0 2 -33 4
-74 4 l-75 0 -6 -55 c-4 -30 -11 -55 -16 -55 -15 0 -43 51 -44 79 l0 26 -518
3 c-308 1 -516 -1 -513 -7 3 -5 22 -8 41 -7 19 1 35 -2 35 -6 0 -12 -24 -23
-42 -20 -11 2 -18 -3 -18 -12 0 -9 -4 -16 -9 -16 -6 0 -8 -12 -7 -27 5 -39 5
-40 16 -23 7 11 9 1 8 -35 0 -27 -3 -40 -5 -29 -2 12 -13 30 -24 40 -18 16
-19 16 -19 -9 0 -14 -4 -27 -9 -29 -5 -1 -12 -24 -16 -50 -6 -43 -5 -48 11
-48 11 0 26 4 34 9 10 7 18 4 27 -9 11 -15 25 -19 63 -19 27 1 48 4 46 8 -2 3
6 7 18 7 34 2 149 86 168 123 20 41 38 61 38 43 0 -7 -4 -12 -10 -12 -5 0 -10
-7 -10 -16 0 -22 -60 -103 -82 -110 -10 -3 -23 -14 -28 -25 -6 -10 -19 -19
-29 -19 -10 0 -33 -15 -52 -34 -28 -29 -38 -34 -64 -29 -16 3 -35 10 -42 15
-7 5 -16 7 -21 4 -5 -3 -42 3 -83 12 -67 16 -74 20 -77 43 -2 20 2 28 19 32
18 5 21 11 16 35 -3 16 0 69 7 118 8 49 12 92 9 97 -2 4 -24 7 -48 7 -42 0
-44 -2 -49 -32 -3 -18 -11 -66 -17 -105 -11 -64 -10 -75 4 -90 8 -10 20 -30
26 -46 9 -22 8 -27 -4 -27 -8 0 -15 8 -15 17 0 13 -3 14 -12 5 -17 -17 -35
-15 -42 4 -4 10 0 18 11 20 14 4 17 14 15 47 -2 23 3 74 11 113 7 39 11 76 9
82 -3 9 -81 12 -303 12 l-299 0 0 -80z m303 20 c-6 -6 -33 30 -33 44 0 6 9 0
20 -14 10 -14 16 -27 13 -30z m866 18 c-13 -48 -28 -56 -16 -9 6 23 14 41 18
41 4 0 3 -14 -2 -32z m-789 -36 c0 -9 -4 -33 -10 -51 -12 -41 -68 -97 -82 -83
-7 7 -3 14 11 21 12 7 21 20 21 31 0 10 4 21 9 24 5 3 12 22 15 41 7 36 36 50
36 17z m2013 -1619 c-7 -2 -19 -2 -25 0 -7 3 -2 5 12 5 14 0 19 -2 13 -5z
m297 -423 c0 -5 -5 -10 -11 -10 -5 0 -7 5 -4 10 3 6 8 10 11 10 2 0 4 -4 4
-10z m-2881 -42 c5 -18 13 -69 17 -114 11 -137 -24 -171 -158 -152 -40 5 -88
8 -108 5 -31 -4 -242 9 -525 31 -103 9 -145 22 -145 47 0 29 43 96 71 110 17
9 57 15 101 15 96 0 440 -19 552 -30 62 -7 94 -6 103 1 7 6 24 35 37 65 14 30
29 54 35 54 5 0 14 -15 20 -32z m2862 -12 c10 6 12 -7 3 -30 -9 -23 -24 -9
-23 22 0 15 3 21 6 14 2 -6 9 -10 14 -6z m-49 -138 c-5 -22 -16 -23 -36 -2
-22 21 -20 24 12 21 22 -2 28 -6 24 -19z m-192 -48 c0 -5 -2 -10 -4 -10 -3 0
-8 5 -11 10 -3 6 -1 10 4 10 6 0 11 -4 11 -10z m25 -20 c3 -5 1 -10 -4 -10 -6
0 -11 5 -11 10 0 6 2 10 4 10 3 0 8 -4 11 -10z m138 -81 c20 -21 37 -45 37
-55 0 -14 -6 -10 -20 14 -11 18 -28 36 -38 39 -9 4 -28 17 -42 30 -14 13 -34
26 -45 30 -16 6 -14 8 15 13 28 4 37 1 46 -15 6 -11 27 -36 47 -56z m-393 40
c0 -11 -4 -18 -10 -14 -5 3 -7 12 -3 20 7 21 13 19 13 -6z m40 4 c0 -5 -5 -15
-10 -23 -8 -12 -10 -11 -10 8 0 12 5 22 10 22 6 0 10 -3 10 -7z m130 -3 c0 -5
-15 -10 -32 -9 -28 0 -30 2 -13 9 28 12 45 12 45 0z m-77 -7 c-7 -2 -21 -2
-30 0 -10 3 -4 5 12 5 17 0 24 -2 18 -5z m-448 -23 c-3 -5 -10 -10 -16 -10 -5
0 -9 5 -9 10 0 6 7 10 16 10 8 0 12 -4 9 -10z m-1605 -140 c0 -13 -1 -13 -10
0 -5 8 -10 22 -10 30 0 13 1 13 10 0 5 -8 10 -22 10 -30z m27 -102 c-3 -7 -5
-2 -5 12 0 14 2 19 5 13 2 -7 2 -19 0 -25z m243 -117 c0 -4 -6 -8 -14 -8 -8 0
-12 6 -9 14 5 13 23 9 23 -6z m20 -41 c0 -5 -2 -10 -4 -10 -3 0 -8 5 -11 10
-3 6 -1 10 4 10 6 0 11 -4 11 -10z m377 -112 c-3 -8 -6 -5 -6 6 -1 11 2 17 5
13 3 -3 4 -12 1 -19z m-2723 -11 c21 -15 18 -45 -5 -60 -26 -16 -49 -1 -49 31
0 44 19 54 54 29z m2563 -14 c1 -16 -1 -22 -4 -15 -2 6 -11 12 -19 12 -15 0
-19 12 -7 23 15 15 29 5 30 -20z m143 7 c0 -5 -4 -10 -10 -10 -5 0 -10 5 -10
10 0 6 5 10 10 10 6 0 10 -4 10 -10z m-71 -44 c9 -11 9 -16 0 -22 -8 -4 -9 -3
-5 4 4 7 2 12 -3 12 -6 0 -11 5 -11 10 0 14 5 13 19 -4z m91 -32 c0 -8 7 -14
16 -14 11 0 14 6 9 21 -5 14 -3 19 3 15 6 -3 13 -20 17 -36 7 -30 20 -40 27
-19 2 7 14 2 30 -12 20 -19 24 -29 17 -47 -7 -18 -3 -34 17 -68 14 -24 23 -51
20 -59 -3 -8 -1 -15 4 -15 6 0 10 -16 10 -35 0 -19 5 -35 11 -35 8 0 10 14 6
39 -4 34 -1 41 23 59 l27 21 14 -42 c7 -23 18 -45 24 -49 6 -5 7 -11 0 -15
-16 -12 -16 -64 0 -80 12 -12 11 -17 -6 -34 l-21 -21 -27 20 c-14 11 -25 26
-25 35 1 9 -5 13 -17 10 -15 -4 -19 0 -19 21 0 34 -18 69 -31 61 -5 -4 -9 -17
-9 -31 0 -14 -5 -23 -12 -21 -7 1 -13 -7 -13 -17 0 -11 6 -21 13 -23 6 -3 12
2 12 11 0 19 11 21 28 4 15 -15 16 -52 1 -42 -7 4 -10 1 -7 -7 3 -8 15 -15 27
-15 25 -1 48 -20 38 -30 -13 -13 -76 7 -82 26 -4 11 -13 20 -21 20 -8 0 -14 9
-14 20 0 12 -5 17 -14 14 -9 -4 -16 6 -20 31 -5 23 -12 35 -20 32 -8 -3 -11 5
-10 29 3 32 2 34 -23 28 -22 -6 -25 -4 -20 9 3 9 3 16 -1 16 -18 -3 -52 15
-52 26 0 18 -40 30 -50 16 -4 -7 -11 -2 -18 14 -8 17 -17 23 -25 19 -7 -5 -6
0 3 11 13 16 13 18 0 13 -17 -6 -50 8 -50 22 0 5 7 7 16 3 13 -5 15 -2 10 15
-6 17 -4 21 8 16 12 -5 13 -11 6 -24 -16 -31 -11 -35 11 -9 18 21 22 22 32 8
7 -9 18 -14 26 -11 10 3 12 0 8 -11 -3 -9 -3 -18 1 -21 4 -3 8 10 9 29 0 25
-3 32 -13 28 -8 -3 -14 0 -14 7 0 9 10 11 33 6 17 -3 27 -3 21 2 -8 5 -8 18 1
47 9 29 13 34 14 17 1 -13 6 -20 11 -17 13 8 13 -18 0 -31 -8 -8 -6 -15 6 -25
15 -12 16 -8 13 43 -2 31 -1 54 4 51 4 -2 7 -11 7 -19z m80 5 c0 -5 -4 -9 -10
-9 -5 0 -10 7 -10 16 0 8 5 12 10 9 6 -3 10 -10 10 -16z m-170 -43 c0 -2 -7
-6 -15 -10 -8 -3 -15 -1 -15 4 0 6 7 10 15 10 8 0 15 -2 15 -4z m1090 -26 c0
-5 -4 -10 -10 -10 -5 0 -10 5 -10 10 0 6 5 10 10 10 6 0 10 -4 10 -10z m467
-22 c-3 -8 -6 -5 -6 6 -1 11 2 17 5 13 3 -3 4 -12 1 -19z m-1899 -27 c3 -8 -1
-12 -9 -9 -7 2 -15 10 -17 17 -3 8 1 12 9 9 7 -2 15 -10 17 -17z m582 -15 c0
-3 -4 -8 -10 -11 -5 -3 -10 -1 -10 4 0 6 5 11 10 11 6 0 10 -2 10 -4z m286
-91 c32 -13 34 -16 21 -30 -9 -8 -19 -15 -24 -15 -4 0 -14 -9 -21 -20 -7 -12
-17 -18 -22 -15 -11 7 -44 68 -54 102 -8 25 -19 27 100 -22z m-506 -26 c0 -6
-4 -7 -10 -4 -5 3 -10 11 -10 16 0 6 5 7 10 4 6 -3 10 -11 10 -16z m24 -45 c3
-8 2 -12 -4 -9 -6 3 -10 10 -10 16 0 14 7 11 14 -7z m427 -152 c-7 -2 -18 1
-23 6 -8 8 -4 9 13 5 13 -4 18 -8 10 -11z m103 -154 c-5 -8 -10 -6 -15 8 -14
35 -10 50 7 26 8 -12 12 -27 8 -34z m-51 -18 c3 -11 1 -18 -4 -14 -5 3 -9 12
-9 20 0 20 7 17 13 -6z m1113 -127 c11 1 25 6 32 10 7 5 12 4 12 -2 0 -6 8
-11 17 -11 9 0 14 -3 10 -6 -3 -3 -34 -6 -70 -7 -58 -2 -63 0 -53 15 7 11 14
14 22 7 6 -5 20 -8 30 -6z m-2046 -123 c0 -5 -5 -10 -11 -10 -5 0 -7 5 -4 10
3 6 8 10 11 10 2 0 4 -4 4 -10z m-550 -19 c0 -5 -6 -14 -14 -20 -12 -10 -13
-8 -9 8 5 21 23 30 23 12z m-1020 -45 c0 -11 -19 -15 -25 -6 -3 5 1 10 9 10 9
0 16 -2 16 -4z m-255 -16 c7 -11 7 -11 -47 -14 -31 -2 -36 0 -27 11 13 15 65
18 74 3z m1063 -20 c23 -16 49 -30 57 -30 8 0 15 -3 15 -7 0 -12 61 -44 71
-37 5 3 9 3 9 0 0 -15 -23 -117 -36 -156 -13 -42 -17 -45 -50 -47 -20 -1 -67
-9 -104 -17 -91 -21 -202 -29 -220 -17 -12 8 -11 19 8 81 13 39 27 68 31 66 5
-3 19 6 31 19 13 14 18 25 12 25 -7 0 -12 4 -12 9 0 5 9 7 20 4 12 -3 20 0 20
6 0 29 45 114 64 121 33 14 40 12 84 -20z m-1173 10 c-4 -6 -85 -10 -212 -10
-142 1 -209 -3 -219 -11 -11 -9 -14 -8 -14 4 0 19 39 22 288 25 107 1 161 -1
157 -8z m1585 -57 c6 -21 13 -64 17 -95 l6 -58 -34 -2 c-19 0 -45 -2 -59 -2
-14 -1 -31 -6 -39 -10 -11 -7 -13 -4 -8 15 3 13 11 51 17 83 7 32 15 54 19 48
3 -6 17 4 31 24 14 18 28 34 32 34 4 0 12 -17 18 -37z m-2100 -193 c-34 -11
-60 -11 -35 0 11 5 29 8 40 8 16 0 15 -2 -5 -8z m4263 -22 c18 -13 34 -26 35
-30 2 -5 9 -8 16 -8 13 0 56 -53 56 -70 0 -5 4 -9 9 -7 8 2 61 -48 61 -59 0
-8 -129 -4 -153 5 -50 19 -77 55 -77 102 0 44 9 89 17 89 2 0 18 -10 36 -22z
m-4270 -25 c-7 -2 -21 -2 -30 0 -10 3 -4 5 12 5 17 0 24 -2 18 -5z m-58 -44
c0 -15 -70 -37 -81 -26 -10 10 15 35 39 40 31 6 42 2 42 -14z m-2428 -36 c-9
-9 -20 -12 -28 -8 -9 6 -8 11 6 21 23 17 42 6 22 -13z m4643 -66 c0 -42 -4
-66 -10 -62 -14 9 -50 -13 -50 -30 0 -8 -5 -15 -11 -15 -13 0 -33 -20 -42 -42
-4 -11 -17 -18 -32 -18 -17 0 -36 -12 -56 -35 -39 -44 -53 -45 -45 -3 4 18 13
73 20 123 16 106 26 145 35 143 16 -4 149 15 162 22 21 14 29 -8 29 -83z
m1600 -189 c0 -16 -3 -19 -11 -11 -6 6 -8 16 -5 22 11 17 16 13 16 -11z m470
-61 c0 -7 -7 -22 -15 -33 -14 -18 -14 -17 -15 14 0 22 5 32 15 32 8 0 15 -6
15 -13z m-2333 -89 c-3 -8 -6 -5 -6 6 -1 11 2 17 5 13 3 -3 4 -12 1 -19z"/>
<path d="M6170 1740 c0 -5 5 -10 10 -10 6 0 10 5 10 10 0 6 -4 10 -10 10 -5 0
-10 -4 -10 -10z"/>
<path d="M6190 1665 c0 -8 10 -20 22 -26 13 -7 29 -18 36 -26 13 -13 42 -18
42 -7 0 9 -22 48 -34 59 -17 16 -66 16 -66 0z"/>
<path d="M6042 1630 c0 -14 2 -19 5 -12 2 6 2 18 0 25 -3 6 -5 1 -5 -13z"/>
<path d="M6380 1460 c0 -19 20 -27 33 -13 8 7 -11 33 -24 33 -5 0 -9 -9 -9
-20z"/>
<path d="M5156 284 c-4 -14 -5 -28 -3 -31 3 -2 8 8 11 23 4 14 5 28 3 31 -3 2
-8 -8 -11 -23z"/>
<path d="M5166 232 c-4 -13 -5 -26 -2 -29 10 -11 18 4 14 29 l-4 23 -8 -23z"/>
<path d="M7523 4834 c4 -4 -2 -19 -13 -34 -25 -35 -25 -44 0 -37 11 3 18 1 14
-4 -3 -5 -14 -9 -26 -9 -17 0 -19 -4 -13 -27 5 -23 4 -25 -9 -14 -14 12 -16
10 -16 -7 0 -12 -5 -24 -11 -28 -8 -4 -7 -9 2 -15 7 -4 18 -4 24 1 7 5 22 11
36 13 19 3 25 12 32 46 6 31 12 41 23 37 7 -3 13 -2 12 2 -3 15 16 48 36 64
20 17 19 18 -38 18 -33 0 -56 -3 -53 -6z m7 -130 c0 -8 -5 -12 -10 -9 -6 4 -8
11 -5 16 9 14 15 11 15 -7z"/>
<path d="M7985 4770 c-3 -5 -1 -10 4 -10 6 0 11 5 11 10 0 6 -2 10 -4 10 -3 0
-8 -4 -11 -10z"/>
<path d="M4784 4671 c-48 -12 -122 -52 -162 -88 l-37 -33 51 25 c103 50 236
66 324 39 23 -7 24 -6 11 10 -32 39 -124 62 -187 47z"/>
<path d="M7456 4635 c-19 -14 -14 -35 9 -35 12 0 25 21 25 41 0 13 -12 11 -34
-6z"/>
<path d="M4270 4613 c0 -26 49 -126 69 -139 53 -37 35 34 -25 99 -24 27 -44
45 -44 40z"/>
<path d="M4881 4410 c-10 -33 -9 -45 4 -69 19 -37 19 -38 -1 -38 -9 0 -19 9
-22 19 -3 13 -14 18 -36 18 -24 0 -36 -8 -55 -35 -20 -30 -22 -39 -13 -60 7
-14 23 -30 36 -37 23 -10 56 -61 56 -87 0 -13 48 -61 60 -61 6 0 10 -14 10
-30 0 -29 -2 -30 -22 -19 -13 6 -67 56 -120 110 -67 68 -105 99 -121 99 -32 0
-67 -27 -67 -53 0 -31 -11 -44 -40 -48 -19 -3 -26 -11 -28 -32 -2 -15 -12 -33
-23 -40 -36 -23 -24 -58 41 -115 126 -112 257 -199 272 -184 8 8 7 16 -2 26
-14 18 -7 46 13 46 8 0 22 9 33 21 10 12 35 29 54 39 19 11 49 31 65 45 17 15
42 36 57 48 57 45 56 64 -7 173 -31 54 -72 142 -90 197 -18 54 -35 100 -37
103 -3 2 -10 -14 -17 -36z m49 -165 c0 -5 -5 -3 -10 5 -5 8 -10 20 -10 25 0 6
5 3 10 -5 5 -8 10 -19 10 -25z m-30 -35 c-10 -7 -11 -10 -2 -10 6 0 12 -4 12
-10 0 -5 -7 -10 -15 -10 -8 0 -15 6 -15 13 0 16 21 39 29 31 3 -3 -1 -9 -9
-14z m-197 -166 c33 -16 63 -51 53 -61 -8 -8 -59 26 -79 53 -21 28 -19 29 26
8z m-29 -104 c14 -22 23 -40 19 -40 -15 1 -83 66 -77 73 15 15 33 5 58 -33z"/>
<path d="M1749 4221 c-25 -10 -59 -27 -75 -39 -28 -20 -284 -122 -307 -122
-19 0 -178 -71 -215 -96 -19 -13 -43 -24 -54 -24 -11 0 -43 -11 -71 -24 -121
-56 -215 -96 -224 -96 -6 0 -73 -27 -149 -59 -172 -73 -566 -238 -616 -259
l-38 -15 0 -146 1 -146 35 -23 36 -22 62 35 c54 30 77 36 167 45 99 10 110 14
228 73 69 34 143 74 166 89 23 15 73 39 111 53 38 14 119 50 179 80 155 76
199 92 294 106 98 14 257 6 298 -14 45 -23 124 -27 199 -11 54 11 81 12 125 3
58 -11 117 -2 152 24 17 12 17 18 3 107 -9 52 -22 127 -29 167 -15 79 -78 217
-126 277 -17 21 -31 43 -31 47 0 15 -73 9 -121 -10z"/>
<path d="M4850 3639 c0 -11 5 -17 10 -14 6 3 10 13 10 21 0 8 -4 14 -10 14 -5
0 -10 -9 -10 -21z"/>
<path d="M5046 3624 c-4 -9 -4 -19 -1 -22 2 -3 7 3 11 12 4 9 4 19 1 22 -2 3
-7 -3 -11 -12z"/>
<path d="M1226 3525 c-90 -32 -56 -55 82 -55 48 0 157 -4 242 -10 371 -23 698
-32 722 -19 l22 12 -24 9 c-14 5 -68 9 -120 9 -52 0 -122 6 -155 13 -59 14
-89 16 -380 35 -298 20 -348 21 -389 6z"/>
<path d="M3540 3381 c-25 -13 -35 -25 -35 -42 0 -21 7 -26 59 -38 93 -22 120
14 53 72 -37 32 -33 32 -77 8z"/>
<path d="M737 3273 c-19 -16 -43 -33 -53 -39 -34 -21 -6 -26 128 -26 153 0
168 -3 168 -28 0 -15 -12 -21 -62 -31 -45 -9 -70 -20 -88 -39 -42 -45 -83
-111 -121 -194 -31 -67 -35 -85 -28 -115 5 -20 9 -53 9 -73 0 -31 4 -38 20
-38 13 0 18 5 13 16 -7 19 23 136 49 187 28 56 97 127 143 148 22 10 63 19 91
19 61 0 97 -23 119 -77 8 -19 28 -51 45 -69 16 -19 30 -39 30 -43 0 -5 14 -14
30 -20 29 -9 30 -9 30 18 0 78 -51 176 -119 227 -39 29 -61 72 -43 83 6 3 93
3 194 -1 164 -6 271 -13 518 -34 68 -5 78 -4 110 18 19 13 36 31 38 41 3 15
-6 17 -70 17 -40 0 -120 4 -178 10 -58 5 -186 14 -285 20 -99 6 -277 20 -394
30 -118 11 -225 20 -237 20 -12 0 -37 -12 -57 -27z"/>
<path d="M2804 2938 c-27 -16 -185 -142 -238 -189 -23 -20 -77 -62 -120 -95
-180 -135 -304 -232 -412 -322 -11 -9 -40 -30 -65 -46 -24 -15 -58 -42 -75
-60 -63 -63 -100 -94 -131 -110 -18 -9 -33 -21 -33 -26 0 -15 -81 -70 -103
-70 -11 0 -56 -27 -99 -60 -44 -33 -86 -60 -92 -60 -7 0 -21 -9 -30 -19 -11
-12 -31 -19 -53 -19 -22 0 -39 -6 -45 -16 -5 -8 -15 -22 -24 -30 -9 -9 -13
-24 -10 -34 5 -13 -1 -22 -19 -30 -14 -6 -25 -16 -25 -22 0 -5 -7 -10 -15 -10
-25 0 -76 -30 -70 -40 8 -13 -13 -50 -29 -50 -7 0 -21 -9 -31 -20 -10 -11 -25
-20 -33 -20 -8 0 -12 -6 -8 -15 3 -9 0 -15 -9 -15 -8 0 -15 -7 -15 -15 0 -8
-10 -16 -22 -17 -13 -1 15 -4 62 -7 47 -3 227 -3 399 2 l315 7 30 37 c70 84
168 172 222 199 31 15 64 35 73 44 9 9 35 24 58 33 35 14 93 59 93 72 0 3 -11
5 -24 5 -35 0 -43 20 -16 42 25 20 92 24 136 8 17 -7 30 -7 38 -1 7 6 54 24
105 41 52 17 123 46 160 64 36 19 76 37 88 41 28 8 52 35 30 35 -8 0 -17 -6
-20 -14 -6 -16 -55 -27 -63 -15 -8 13 -47 1 -137 -43 -56 -27 -88 -37 -105
-33 -13 3 -21 2 -18 -3 6 -11 -22 -39 -44 -44 -18 -3 -90 49 -89 66 0 7 2 6 6
-1 2 -7 16 -13 29 -13 17 0 24 6 24 20 0 21 -27 40 -47 33 -7 -3 -13 1 -13 9
0 10 -3 9 -10 -2 -5 -8 -12 -12 -15 -8 -11 11 61 109 97 131 18 11 78 44 133
72 98 50 114 62 285 229 30 29 87 79 125 112 102 86 299 283 291 292 -4 4 -89
8 -189 10 -133 2 -188 -1 -203 -10z"/>
<path d="M5245 2900 c-3 -5 -1 -10 4 -10 6 0 11 5 11 10 0 6 -2 10 -4 10 -3 0
-8 -4 -11 -10z"/>
<path d="M5307 2843 c-3 -5 -1 -17 4 -28 7 -17 8 -17 8 8 1 27 -4 34 -12 20z"/>
<path d="M5270 2816 c0 -8 5 -18 10 -21 6 -3 10 1 10 9 0 8 -4 18 -10 21 -5 3
-10 -1 -10 -9z"/>
<path d="M5242 2799 c2 -7 10 -15 17 -17 8 -3 12 1 9 9 -2 7 -10 15 -17 17 -8
3 -12 -1 -9 -9z"/>
<path d="M5470 2740 c-9 -6 -10 -10 -3 -10 6 0 15 5 18 10 8 12 4 12 -15 0z"/>
<path d="M7220 2725 c0 -12 32 -54 45 -59 13 -4 13 -1 2 27 -8 18 -21 33 -30
35 -9 2 -17 1 -17 -3z"/>
<path d="M7285 2710 c3 -5 16 -10 28 -10 18 0 19 2 7 10 -20 13 -43 13 -35 0z"/>
<path d="M397 2608 c-8 -23 16 -186 31 -200 6 -6 12 -22 12 -34 0 -45 10 -54
59 -54 27 0 85 -5 130 -11 l83 -11 82 57 c175 123 213 151 245 178 19 15 32
30 29 32 -4 4 -109 -36 -173 -65 -11 -5 -42 -17 -68 -25 -62 -21 -72 -12 -81
63 -4 31 -10 62 -14 67 -4 6 -76 12 -168 14 -133 2 -162 1 -167 -11z m325
-122 c9 -42 -1 -62 -25 -53 -9 3 -14 21 -15 52 0 37 3 46 16 43 10 -2 19 -19
24 -42z"/>
<path d="M5940 2588 c0 -9 5 -20 10 -23 13 -8 13 5 0 25 -8 13 -10 13 -10 -2z"/>
<path d="M7315 2590 c-16 -7 -17 -9 -3 -9 9 -1 20 4 23 9 7 11 7 11 -20 0z"/>
<path d="M7431 2542 c-47 -23 -51 -27 -30 -30 29 -3 119 32 119 48 0 17 -32
11 -89 -18z"/>
<path d="M0 2465 c0 -25 0 -25 93 -24 l92 0 -49 25 c-30 14 -67 24 -93 24 -39
0 -43 -2 -43 -25z"/>
<path d="M5654 2430 c-12 -19 -25 -46 -28 -60 l-7 -25 20 25 c12 14 26 31 32
38 6 7 9 23 7 35 -3 20 -5 19 -24 -13z"/>
<path d="M5980 2380 c0 -5 5 -10 10 -10 6 0 10 5 10 10 0 6 -4 10 -10 10 -5 0
-10 -4 -10 -10z"/>
<path d="M5886 2365 c-3 -8 -1 -15 4 -15 6 0 10 7 10 15 0 8 -2 15 -4 15 -2 0
-6 -7 -10 -15z"/>
<path d="M334 2361 c3 -5 15 -7 26 -4 28 7 25 13 -6 13 -14 0 -23 -4 -20 -9z"/>
<path d="M10 2310 c-8 -5 -12 -10 -10 -12 12 -8 170 4 170 13 0 12 -141 11
-160 -1z"/>
<path d="M5651 2304 c0 -11 3 -14 6 -6 3 7 2 16 -1 19 -3 4 -6 -2 -5 -13z"/>
<path d="M470 2264 c0 -5 -16 -27 -35 -48 -19 -22 -35 -40 -35 -40 0 -1 14 -1
31 -2 20 -1 26 2 17 7 -10 7 -9 9 5 9 9 0 16 4 15 9 -2 5 1 11 6 13 5 1 10 -7
11 -20 5 -62 -120 -55 -192 10 -29 27 -94 48 -114 37 -9 -4 -19 -6 -22 -3 -3
3 -40 -2 -81 -11 l-76 -17 0 -200 c0 -156 3 -198 13 -192 50 30 443 303 505
352 27 21 21 52 -10 52 -13 0 -18 5 -15 14 3 8 -1 20 -9 26 -8 7 -14 9 -14 4z"/>
<path d="M5904 2259 c-10 -17 13 -36 27 -22 12 12 4 33 -11 33 -5 0 -12 -5
-16 -11z"/>
<path d="M6090 2220 c0 -5 9 -14 20 -20 22 -12 27 -1 8 18 -14 14 -28 16 -28
2z"/>
<path d="M5686 2205 c-3 -9 0 -15 9 -15 9 0 12 6 9 15 -4 8 -7 15 -9 15 -2 0
-5 -7 -9 -15z"/>
<path d="M6020 2198 c0 -7 9 -24 20 -38 l20 -25 0 25 c0 15 -8 30 -20 38 -16
10 -20 10 -20 0z"/>
<path d="M5994 2165 c8 -30 36 -66 47 -59 11 7 -21 72 -39 79 -11 4 -13 -1 -8
-20z"/>
<path d="M5700 2164 c0 -15 24 -64 33 -64 4 0 7 6 7 14 0 16 -39 66 -40 50z"/>
<path d="M4363 2120 c-34 -20 -42 -47 -21 -68 15 -15 92 -16 119 -2 25 14 25
40 -1 40 -11 0 -27 11 -36 25 -20 30 -20 30 -61 5z"/>
<path d="M6163 2074 c0 -35 3 -41 19 -36 20 5 25 38 6 45 -10 3 -10 7 0 20 12
14 11 16 -6 14 -16 -1 -20 -8 -19 -43z"/>
<path d="M5975 2068 c3 -13 10 -38 15 -57 11 -43 26 -59 42 -43 8 8 8 15 -1
26 -8 10 -9 16 -1 21 5 3 10 11 10 17 0 7 -5 6 -14 -1 -12 -10 -16 -5 -26 24
-13 38 -37 50 -25 13z"/>
<path d="M5950 2050 c0 -5 5 -10 11 -10 5 0 7 5 4 10 -3 6 -8 10 -11 10 -2 0
-4 -4 -4 -10z"/>
<path d="M7217 2026 c-3 -6 2 -17 9 -24 8 -7 14 -8 14 -3 0 5 2 16 5 24 4 8 0
14 -9 14 -8 0 -17 -5 -19 -11z"/>
<path d="M6230 1984 c0 -13 18 -39 24 -34 2 3 -2 14 -10 24 -8 11 -14 16 -14
10z"/>
<path d="M7055 1980 c-3 -5 1 -10 9 -10 9 0 16 5 16 10 0 6 -4 10 -9 10 -6 0
-13 -4 -16 -10z"/>
<path d="M6136 1955 c4 -8 8 -15 10 -15 2 0 4 7 4 15 0 8 -4 15 -10 15 -5 0
-7 -7 -4 -15z"/>
<path d="M5915 1940 c-3 -5 -1 -10 4 -10 6 0 11 5 11 10 0 6 -2 10 -4 10 -3 0
-8 -4 -11 -10z"/>
<path d="M1978 1643 c7 -3 16 -2 19 1 4 3 -2 6 -13 5 -11 0 -14 -3 -6 -6z"/>
<path d="M1919 1621 c13 -12 35 -21 50 -21 l26 1 -25 13 c-14 7 -36 17 -50 20
l-25 7 24 -20z"/>
<path d="M1868 1533 c7 -3 16 -2 19 1 4 3 -2 6 -13 5 -11 0 -14 -3 -6 -6z"/>
<path d="M2221 695 c-27 -32 -17 -58 16 -37 15 9 28 62 16 62 -5 0 -19 -11
-32 -25z"/>
<path d="M1957 393 c-4 -3 -7 -13 -7 -21 0 -12 3 -12 15 -2 8 7 15 16 15 21 0
11 -14 12 -23 2z"/>
<path d="M7973 193 c-27 -5 -27 -2 -7 -41 21 -43 34 -40 34 8 0 22 -1 39 -2
39 -2 -1 -13 -4 -25 -6z"/>
<path d="M7680 169 c0 -5 5 -7 10 -4 6 3 10 8 10 11 0 2 -4 4 -10 4 -5 0 -10
-5 -10 -11z"/>
<path d="M2806 161 c-7 -11 22 -23 35 -15 5 3 7 10 4 15 -8 12 -32 12 -39 0z"/>
<path d="M1749 127 c-9 -7 -33 -38 -53 -70 l-37 -57 40 0 c33 0 40 4 45 25 4
14 15 34 25 44 40 40 22 91 -20 58z"/>
<path d="M7845 10 c-3 -5 3 -10 14 -10 12 0 21 5 21 10 0 6 -6 10 -14 10 -8 0
-18 -4 -21 -10z"/>
</g>
</svg>
