<?xml version="1.0" standalone="no"?>
<!DOCTYPE svg PUBLIC "-//W3C//DTD SVG 20010904//EN"
 "http://www.w3.org/TR/2001/REC-SVG-20010904/DTD/svg10.dtd">
<svg version="1.0" xmlns="http://www.w3.org/2000/svg"
 width="950.000000pt" height="500.000000pt" viewBox="0 0 950.000000 500.000000"
 preserveAspectRatio="xMidYMid meet">

<g transform="translate(0.000000,500.000000) scale(0.100000,-0.100000)"
fill="#000000" stroke="none">
<path d="M0 2500 l0 -2500 611 0 c537 0 619 2 682 17 40 9 64 18 55 21 -10 2
-18 7 -18 11 0 13 29 47 30 34 0 -21 60 16 60 38 0 10 6 19 13 20 6 0 22 13
35 30 19 23 20 29 8 29 -22 0 -20 8 10 52 26 38 47 47 59 28 3 -5 0 -10 -7
-10 -24 0 16 -20 41 -20 18 0 22 4 18 20 -3 13 -1 18 6 13 7 -4 8 0 4 11 -4
10 -7 22 -7 28 0 6 -9 3 -19 -6 -15 -13 -21 -14 -27 -5 -4 8 1 18 14 27 12 8
22 21 22 29 0 8 5 11 10 8 18 -11 70 -24 69 -17 -3 20 3 25 12 12 7 -11 9 -2
7 35 -2 36 3 59 17 83 22 37 55 44 55 11 0 -17 -3 -19 -13 -10 -16 13 -27 5
-27 -20 0 -19 33 -36 38 -19 2 6 15 24 29 40 18 22 21 30 10 30 -26 0 -26 27
-1 51 l24 22 0 -24 c0 -13 5 -31 10 -39 8 -13 10 -12 10 3 0 9 6 17 13 17 6 0
17 11 24 25 10 22 9 25 -10 25 -30 0 -15 10 22 15 17 2 31 -1 31 -6 0 -5 4 -9
9 -9 5 0 12 18 16 39 5 31 12 41 31 45 14 4 29 4 34 1 6 -4 10 0 11 7 0 7 2
23 5 35 4 25 -14 42 -26 23 -4 -6 -7 2 -6 19 1 34 26 44 26 11 0 -11 5 -20 10
-20 6 0 10 7 10 15 0 8 9 19 19 25 16 8 23 5 39 -15 26 -32 50 -35 30 -2 -8
12 -17 32 -20 44 -5 20 -3 22 17 17 12 -3 26 -1 29 5 4 6 16 11 27 11 10 0 19
6 19 14 0 23 31 29 37 6 4 -15 14 -20 39 -20 47 0 74 -26 74 -70 0 -27 8 -44
30 -65 21 -20 28 -35 24 -49 -3 -15 3 -29 20 -46 20 -18 26 -33 26 -67 0 -41
1 -43 30 -43 17 0 30 5 30 10 0 6 11 10 25 10 14 0 25 -4 25 -10 0 -5 -4 -10
-10 -10 -13 0 -13 -87 -1 -94 5 -4 12 0 14 6 8 20 27 -11 27 -44 0 -18 -5 -28
-15 -28 -8 0 -15 -4 -15 -10 0 -5 23 -10 50 -10 32 0 50 -4 50 -12 0 -6 7 -20
17 -30 15 -17 15 -18 0 -18 -13 0 -17 -9 -17 -41 0 -40 1 -40 33 -38 44 4 57
-6 57 -47 0 -30 3 -34 25 -34 21 0 25 -5 25 -28 0 -15 5 -33 12 -40 9 -9 0
-12 -40 -12 -98 0 -52 -18 61 -24 61 -3 129 -8 150 -12 21 -3 66 -3 101 1 l64
6 -56 53 c-101 92 -136 130 -124 134 18 6 4 22 -18 22 -24 0 -78 51 -72 68 2
7 -4 12 -13 12 -27 0 -239 223 -266 280 -15 32 -30 50 -41 50 -13 0 -22 13
-30 46 -7 25 -23 57 -35 71 -13 13 -23 26 -23 29 0 21 -45 64 -66 64 -20 0
-24 5 -24 29 0 19 -10 40 -30 59 -16 17 -30 38 -30 48 0 10 -8 26 -17 37 -16
17 -16 19 -2 28 17 9 15 59 -2 59 -5 0 -9 18 -9 39 0 47 -17 64 -23 24 -3 -19
-4 -14 -6 16 0 25 -5 58 -11 75 -37 119 -42 145 -32 173 10 26 10 25 11 -19 1
-40 4 -48 19 -48 15 0 18 6 14 30 -2 17 -8 33 -13 36 -5 3 -9 18 -9 35 0 16
-4 29 -10 29 -5 0 -10 14 -10 31 0 17 -4 39 -10 49 -5 10 -12 51 -15 92 -6 70
-5 72 10 48 16 -24 16 -23 10 33 -5 57 4 74 24 40 9 -16 12 -16 34 9 14 16 31
28 39 28 21 0 34 18 43 57 9 46 32 43 26 -4 -1 -6 3 -14 9 -18 5 -3 10 1 10 9
0 9 8 16 18 16 9 0 25 7 35 14 20 15 57 10 57 -7 0 -6 12 -24 27 -39 33 -35
96 -40 113 -9 14 27 13 84 -1 75 -7 -4 -10 3 -9 17 4 40 1 47 -19 54 -13 4
-20 19 -25 48 -11 79 -19 112 -26 117 -19 12 -15 90 5 90 8 0 15 9 15 20 0 11
-5 20 -11 20 -5 0 -8 4 -4 9 3 6 8 31 10 56 6 59 11 68 34 55 15 -7 20 -4 30
16 6 14 11 43 11 64 0 22 5 40 10 40 6 0 10 7 8 16 -2 10 3 19 11 22 8 3 11 0
7 -7 -5 -7 -1 -9 8 -5 11 4 16 0 16 -10 0 -9 5 -16 10 -16 6 0 10 18 10 40 0
22 5 40 10 40 6 0 21 11 33 24 13 14 36 28 52 32 27 7 27 8 9 21 -21 16 -21
17 13 57 17 20 23 38 21 56 -4 23 -1 26 20 22 18 -4 30 2 43 19 20 26 25 69 9
69 -5 0 -10 5 -10 10 0 6 7 10 16 10 11 0 13 6 9 19 -3 11 0 30 7 42 17 29 66
78 72 72 2 -2 7 5 11 16 3 11 26 41 51 67 47 51 54 71 27 81 -10 4 -28 17 -41
30 -12 12 -28 20 -35 17 -14 -6 -135 -157 -143 -179 -4 -8 -12 -15 -20 -15 -8
0 -14 -4 -14 -10 0 -21 -29 -8 -91 39 -104 79 -239 213 -239 237 0 18 161 244
207 292 8 8 26 30 41 50 15 21 33 43 40 50 6 7 12 17 12 20 0 4 10 18 23 32
12 14 38 45 57 70 63 82 113 130 134 130 26 0 55 -19 137 -90 109 -93 167
-154 174 -183 6 -21 1 -37 -21 -69 -16 -22 -33 -48 -39 -57 -5 -9 -12 -18 -15
-21 -3 -3 -25 -29 -48 -57 l-43 -52 42 -41 c23 -22 50 -40 59 -40 9 0 42 26
72 58 79 81 145 142 156 142 5 0 17 9 27 20 10 11 25 18 34 16 9 -3 32 4 51
14 19 11 29 19 22 20 -7 0 -10 5 -7 10 4 6 10 8 15 5 14 -9 52 14 44 26 -3 6
-17 9 -30 6 -13 -2 -21 0 -18 4 3 5 23 9 45 9 26 0 39 4 39 14 0 7 7 19 15 26
8 7 15 19 15 26 0 21 -24 17 -38 -7 -7 -12 -16 -19 -19 -16 -2 3 5 19 18 36
18 24 28 29 46 25 22 -6 24 -3 21 21 -2 21 2 28 16 31 27 4 45 24 21 24 -16 0
-16 2 5 20 29 26 34 25 27 -2 -6 -23 -6 -23 9 -3 9 12 11 21 4 23 -18 6 -11
22 15 34 14 6 25 17 25 25 0 7 24 42 53 77 28 35 84 109 122 166 150 218 168
233 285 233 141 -1 407 -117 674 -296 51 -35 61 -38 81 -27 37 20 62 5 70 -41
7 -38 -2 -69 -12 -42 -5 15 -43 -15 -43 -35 0 -7 -8 -12 -17 -10 -11 2 -18 -3
-18 -12 -1 -23 -14 -40 -29 -34 -15 6 -36 -36 -36 -72 0 -14 -5 -24 -12 -23
-52 6 -65 -1 -75 -43 l-9 -43 -13 44 c-7 24 -10 54 -7 67 8 32 -17 22 -33 -12
-20 -44 -13 -105 19 -169 17 -32 34 -62 38 -65 4 -3 16 -23 27 -45 23 -47 93
-152 106 -161 5 -3 9 2 9 10 0 8 -8 20 -17 25 -10 6 -14 11 -9 11 4 0 1 12 -9
26 -9 14 -14 32 -11 40 4 10 0 14 -12 12 -11 -2 -16 3 -14 14 1 9 -2 19 -8 23
-13 8 -13 25 0 25 6 0 15 -11 20 -25 5 -14 17 -28 25 -31 8 -4 15 -10 15 -15
0 -5 8 -17 17 -27 10 -11 47 -57 83 -103 72 -93 125 -154 154 -178 19 -15 63
-59 92 -92 8 -9 14 -21 14 -27 0 -6 8 -16 18 -21 10 -5 24 -21 31 -35 8 -14
18 -23 23 -19 6 3 30 -14 54 -38 36 -36 44 -49 39 -68 -5 -21 -4 -23 10 -11
13 11 20 8 44 -17 16 -17 39 -33 52 -36 27 -7 172 -114 239 -176 24 -23 68
-60 97 -83 29 -22 53 -44 53 -49 0 -5 7 -9 15 -9 8 0 15 -4 15 -8 0 -4 15 -16
33 -27 36 -21 92 -74 85 -80 -4 -5 -167 100 -178 114 -3 4 -34 29 -70 56 -36
27 -67 52 -70 55 -14 15 -110 91 -110 86 0 -12 182 -173 290 -256 18 -14 38
-31 45 -37 8 -7 16 -13 20 -13 3 0 23 -14 43 -30 84 -69 188 -140 205 -140 9
0 17 -4 17 -9 0 -12 -28 -22 -32 -11 -3 9 -22 13 -56 11 -25 -1 -21 -21 4 -21
9 0 22 -7 31 -16 9 -8 23 -12 31 -9 8 3 19 0 23 -7 7 -10 11 -10 21 0 17 17
48 15 48 -3 0 -8 7 -15 15 -15 8 0 15 5 15 11 0 6 11 8 29 4 32 -7 81 3 81 16
0 5 -9 9 -20 9 -12 0 -35 8 -53 17 -18 9 -36 16 -40 15 -5 -1 -6 2 -2 8 3 5 0
10 -7 10 -8 0 -23 7 -34 15 -18 14 -17 14 12 15 23 0 33 -5 37 -19 5 -22 78
-38 122 -27 36 9 33 44 -5 57 -47 17 -35 29 26 29 35 0 67 6 85 17 31 19 38
40 15 49 -22 9 -7 37 16 30 25 -6 68 13 68 30 0 7 10 19 22 25 21 11 21 12
-13 31 l-34 19 46 -6 c41 -5 48 -3 77 25 27 25 31 34 22 50 -10 18 -7 20 19
20 20 0 36 8 49 25 11 14 28 25 38 25 18 1 18 1 2 14 -27 20 -22 36 12 36 29
0 70 29 70 50 0 5 8 10 18 11 13 0 11 3 -6 10 -13 5 -20 13 -17 19 4 6 11 8
16 5 5 -4 24 -1 43 6 29 10 35 18 40 51 4 25 11 38 22 38 33 0 74 33 74 61 0
22 -7 29 -47 44 -60 23 -258 129 -299 160 -17 13 -44 27 -60 31 -29 6 -102 57
-117 81 -4 7 -29 22 -55 34 -62 28 -149 103 -166 143 -14 33 -83 100 -123 119
-13 5 -23 16 -23 23 0 16 -58 61 -85 66 -12 2 -19 10 -17 21 2 10 -4 17 -13
17 -15 0 -57 39 -121 110 -17 19 -40 42 -50 51 -94 77 -152 138 -207 214 -36
50 -74 101 -85 115 -42 54 -161 249 -168 274 -11 44 10 28 35 -27 26 -54 61
-110 74 -115 4 -2 7 -9 7 -16 0 -6 15 -27 33 -46 18 -19 57 -64 87 -100 30
-36 63 -71 72 -78 10 -7 18 -19 18 -26 0 -20 184 -206 204 -206 9 0 16 -8 16
-18 0 -9 17 -31 37 -47 20 -17 86 -77 146 -133 308 -292 711 -566 883 -601 49
-10 124 -5 124 8 0 3 -40 19 -89 34 -139 44 -376 188 -611 370 -110 85 -538
517 -662 667 -93 112 -237 318 -284 405 -46 86 -43 82 -54 65 -7 -11 -12 -11
-23 -2 -12 10 -16 8 -20 -9 -3 -12 -1 -32 4 -46 5 -13 9 -29 9 -36 0 -22 -20
9 -40 62 -15 41 -16 58 -8 82 9 28 14 30 51 27 40 -3 41 -2 43 30 1 18 6 38
12 44 6 6 54 9 129 7 l118 -4 105 -52 c58 -28 146 -80 197 -115 284 -196 852
-749 1010 -984 80 -118 159 -250 181 -302 21 -48 23 -64 17 -155 -8 -145 -34
-186 -114 -178 -15 2 -21 -1 -16 -9 4 -6 13 -9 21 -6 17 6 17 4 3 -26 -5 -13
-25 -34 -44 -46 -27 -19 -37 -21 -54 -12 -22 11 -41 6 -41 -11 0 -5 11 -9 25
-9 14 0 25 -3 25 -8 0 -17 -31 -50 -58 -61 -16 -7 -36 -27 -45 -46 -20 -42
-65 -67 -106 -59 -20 4 -31 2 -31 -5 0 -11 13 -15 38 -12 22 3 13 -20 -19 -50
-31 -29 -43 -33 -86 -29 -13 1 -23 -4 -23 -10 0 -7 8 -10 20 -7 41 11 16 -42
-35 -73 -19 -12 -35 -28 -35 -35 0 -8 -20 -30 -45 -51 -25 -20 -45 -39 -45
-43 0 -4 30 -54 68 -112 37 -58 73 -114 79 -125 29 -44 123 -223 143 -269 54
-125 75 -270 49 -342 -7 -22 -56 -66 -177 -159 -166 -128 -268 -224 -573 -539
-147 -152 -222 -226 -404 -394 -95 -88 -233 -222 -370 -360 l-100 -101 1938 0
1937 0 0 2500 0 2500 -4750 0 -4750 0 0 -2500z m5695 2108 c8 -10 13 -68 6
-63 -5 3 -12 1 -16 -5 -4 -6 -11 -7 -17 -4 -6 4 -17 -1 -24 -11 -12 -17 -14
-16 -24 9 -12 32 -13 48 -4 71 5 13 15 16 42 11 19 -3 36 -6 37 -8z m-96 -97
c7 -5 11 -15 9 -22 -3 -8 -1 -22 4 -33 9 -17 7 -18 -25 -14 -20 2 -35 1 -35
-2 0 -3 -1 -18 -2 -35 l-2 -30 -15 35 c-16 36 -19 81 -8 100 8 12 55 13 74 1z
m-89 -117 c16 -40 12 -49 -22 -59 -22 -7 -34 -18 -38 -35 -5 -22 -8 -19 -18
23 -7 26 -10 58 -6 72 5 21 12 25 40 25 28 0 36 -5 44 -26z m-103 -77 c0 -1 5
-20 9 -41 6 -34 5 -38 -10 -33 -9 4 -16 2 -16 -4 0 -6 -7 -9 -15 -5 -11 4 -15
-1 -15 -19 0 -45 -28 -17 -32 32 -4 59 14 87 51 78 14 -4 27 -7 28 -8z m489
-227 c43 -52 84 -102 91 -110 7 -8 44 -49 82 -91 67 -72 84 -99 61 -99 -16 0
-180 168 -231 235 -56 76 -149 217 -149 227 0 9 33 -28 146 -162z m-580 127
c1 -1 5 -17 9 -34 6 -29 4 -33 -14 -33 -11 0 -28 -11 -37 -25 -23 -36 -31 -31
-37 22 -7 65 6 87 46 79 17 -3 31 -7 33 -9z m344 -54 c8 -16 26 -39 40 -53 14
-14 41 -45 60 -69 103 -128 293 -341 306 -341 2 0 21 -17 42 -37 181 -177 313
-297 425 -385 128 -100 253 -216 243 -225 -9 -9 -50 10 -80 38 -17 15 -65 51
-107 79 -42 27 -92 68 -110 91 -72 88 -272 276 -310 291 -10 4 -31 24 -46 45
-15 21 -60 65 -100 98 -41 33 -85 75 -99 93 -14 17 -33 32 -42 32 -16 -1 -16
-2 1 -14 9 -7 17 -16 17 -20 0 -13 -28 -5 -45 14 -17 19 -17 21 -2 33 16 11
15 15 -9 42 -15 17 -37 46 -50 65 -13 19 -44 64 -69 100 -57 81 -95 138 -95
145 0 15 18 1 30 -22z m-166 1 c3 -8 2 -12 -4 -9 -6 3 -10 10 -10 16 0 14 7
11 14 -7z m556 -152 c0 -15 -2 -15 -10 -2 -13 20 -13 33 0 25 6 -3 10 -14 10
-23z m-550 -85 c0 -14 28 -37 41 -35 7 2 13 -4 14 -12 0 -8 5 -17 10 -20 18
-8 75 -81 75 -96 0 -8 7 -14 15 -14 8 0 15 -7 15 -17 0 -9 3 -13 7 -10 3 4 11
-1 17 -11 45 -75 59 -93 66 -82 5 8 11 0 18 -19 6 -17 16 -31 21 -31 6 0 11
-6 11 -14 0 -8 8 -17 19 -21 10 -3 89 -74 175 -158 168 -163 233 -221 366
-325 210 -163 297 -239 287 -249 -7 -7 -135 64 -174 96 -21 17 -42 31 -46 31
-14 0 -127 91 -174 139 -18 18 -31 37 -28 41 3 5 -40 50 -95 102 -92 86 -133
117 -116 89 5 -7 1 -9 -8 -5 -9 3 -16 10 -16 16 0 5 5 6 10 3 16 -10 12 7 -7
27 -9 10 -21 18 -28 18 -7 0 -39 26 -72 58 -185 178 -254 234 -203 162 30 -42
8 -38 -27 6 -15 19 -41 49 -56 66 -35 38 -27 51 9 14 15 -14 29 -24 32 -22 5
6 -78 130 -111 167 -13 13 -41 53 -62 89 -22 36 -45 69 -52 73 -7 4 -13 16
-13 25 0 11 13 2 40 -28 22 -25 40 -49 40 -53z m191 -15 c5 -2 9 -10 9 -18 0
-8 9 -14 21 -14 12 0 18 -4 13 -11 -4 -6 8 -26 27 -43 19 -18 41 -42 49 -54 8
-12 20 -22 27 -22 7 0 13 -5 13 -10 0 -18 411 -420 485 -475 22 -17 42 -33 45
-36 3 -4 41 -35 85 -69 44 -34 85 -69 91 -76 6 -8 13 -12 16 -9 2 3 37 -27 78
-65 40 -39 70 -74 66 -77 -7 -7 -80 30 -111 57 -11 10 -51 39 -90 65 -74 50
-155 120 -155 133 0 14 -181 188 -240 232 -30 22 -84 71 -120 108 -36 37 -86
82 -110 101 -25 19 -81 79 -125 133 -44 54 -85 104 -91 111 -25 29 -82 126
-77 130 3 3 23 -15 45 -41 23 -26 45 -48 49 -50z m-371 25 c0 -5 -4 -5 -10 -2
-5 3 -10 14 -10 23 0 15 2 15 10 2 5 -8 10 -19 10 -23z m40 -42 c0 -15 34 -38
43 -29 9 10 57 -70 57 -96 0 -19 2 -22 10 -10 7 12 13 10 32 -11 13 -13 23
-36 23 -49 0 -17 7 -26 25 -30 16 -4 34 -22 50 -51 14 -25 30 -44 36 -42 6 2
14 -3 17 -12 4 -8 2 -15 -3 -15 -19 0 -10 -15 20 -35 17 -11 39 -35 50 -52 11
-18 26 -33 34 -33 9 0 22 -13 30 -28 8 -16 41 -51 73 -79 32 -28 83 -75 114
-105 76 -72 158 -141 232 -197 34 -25 92 -70 128 -101 37 -30 94 -75 128 -100
34 -24 61 -47 61 -51 0 -4 13 -12 29 -19 34 -14 77 -57 68 -67 -4 -3 -15 0
-24 8 -10 8 -52 32 -93 52 -42 21 -87 48 -101 60 -13 12 -40 31 -59 42 -66 37
-190 144 -190 164 0 10 -146 151 -156 151 -5 0 -24 14 -41 31 -18 16 -33 26
-33 22 -1 -4 -6 2 -13 13 -7 12 -46 52 -87 89 -105 95 -226 220 -282 290 -27
33 -52 65 -56 70 -27 33 -122 175 -136 203 -15 28 -15 32 -1 32 8 0 15 -7 15
-15z m-133 -38 c7 -4 13 -15 13 -22 0 -8 7 -15 15 -15 8 0 15 -5 15 -11 0 -5
5 -7 10 -4 6 3 10 -1 10 -9 0 -9 7 -16 15 -16 8 0 15 -4 15 -8 0 -5 10 -19 22
-31 19 -22 20 -24 4 -33 -15 -8 -15 -12 -4 -21 8 -7 31 -33 51 -59 29 -36 41
-45 58 -41 15 4 20 2 15 -5 -4 -7 0 -27 9 -45 19 -42 103 -137 119 -137 7 0
18 -11 24 -25 6 -14 18 -25 27 -25 8 0 17 -11 21 -25 3 -14 10 -25 15 -25 5 0
9 -5 9 -11 0 -6 6 -16 13 -23 6 -7 27 -30 45 -50 18 -20 42 -36 53 -36 11 0
17 -4 14 -10 -3 -5 -1 -10 5 -10 6 0 30 -18 53 -41 87 -84 529 -439 547 -439
5 0 10 -4 10 -8 0 -5 23 -19 50 -32 28 -13 50 -27 50 -32 0 -4 6 -8 14 -8 15
0 69 -50 61 -58 -6 -6 -198 89 -203 101 -2 4 -10 7 -17 7 -7 0 -34 16 -59 35
-26 19 -49 35 -52 35 -2 0 -10 4 -17 10 -7 5 -49 37 -95 70 -45 33 -88 71 -94
84 -11 26 -175 182 -250 239 -55 42 -115 105 -123 129 -3 9 -15 20 -27 24 -32
10 -258 243 -258 266 0 6 -10 23 -22 38 -57 70 -116 159 -138 210 -6 13 -14
27 -18 30 -14 9 -42 59 -42 72 0 7 6 4 12 -7 6 -11 17 -24 25 -28z m53 -17 c0
-5 -5 -10 -11 -10 -5 0 -7 5 -4 10 3 6 8 10 11 10 2 0 4 -4 4 -10z m-151 -75
c17 -29 42 -65 56 -79 14 -14 25 -31 25 -38 0 -23 188 -258 309 -388 62 -66
71 -80 48 -80 -13 0 -187 180 -215 223 -8 12 -26 34 -40 49 -13 15 -30 36 -36
47 -6 11 -40 61 -75 112 -63 90 -104 160 -122 208 -16 41 16 7 50 -54z m1063
8 c99 -108 433 -405 544 -485 24 -17 44 -37 44 -45 0 -7 3 -13 8 -13 11 0 95
-81 89 -86 -10 -10 -72 28 -107 66 -20 21 -46 41 -58 44 -12 4 -22 11 -22 16
0 4 -10 10 -22 14 -32 8 -83 55 -102 94 -9 18 -49 63 -87 100 -39 37 -101 95
-137 130 -42 41 -68 59 -72 52 -10 -16 -78 50 -72 69 3 8 -3 18 -12 23 -19 10
-41 48 -28 48 5 0 20 -12 34 -27z m-1183 -46 c0 -27 -2 -29 -9 -12 -12 28 -12
57 0 50 6 -3 10 -21 9 -38z m760 -4 c12 -16 24 -32 29 -38 18 -23 23 -35 12
-35 -5 0 -18 16 -27 35 -9 19 -22 35 -29 35 -6 0 -14 7 -18 15 -9 25 11 17 33
-12z m-758 -66 c-8 -8 -11 -7 -11 4 0 20 13 34 18 19 3 -7 -1 -17 -7 -23z
m580 -144 c19 -22 24 -33 15 -33 -8 0 -26 14 -41 32 -21 25 -29 29 -35 18 -5
-8 -13 -11 -17 -6 -4 5 -2 11 4 13 9 3 11 14 7 31 l-7 27 22 -25 c13 -14 36
-40 52 -57z m-135 -47 c1 0 5 -12 9 -26 7 -25 7 -25 -24 4 -17 17 -31 31 -31
34 0 3 42 -8 46 -12z m59 -94 c-6 -7 -35 18 -35 31 0 5 9 2 20 -8 11 -10 18
-20 15 -23z m195 -52 c0 -5 -4 -10 -10 -10 -5 0 -10 5 -10 10 0 6 5 10 10 10
6 0 10 -4 10 -10z m84 -324 c50 -30 251 -187 316 -246 71 -65 77 -70 90 -70 5
0 10 -4 10 -9 0 -5 8 -12 18 -15 9 -3 39 -27 67 -52 27 -26 68 -55 92 -65 23
-10 50 -26 60 -36 27 -27 91 -63 112 -63 10 0 26 -9 36 -20 17 -19 17 -20 -6
-29 -13 -4 -26 -5 -29 -1 -3 4 -43 26 -90 49 -47 23 -92 48 -100 55 -8 6 -44
30 -80 51 -36 21 -85 56 -110 76 -25 21 -70 55 -101 76 -73 49 -139 109 -139
126 0 7 -31 42 -70 78 -38 35 -70 69 -70 76 0 6 -9 9 -20 6 -15 -4 -41 15
-106 80 -48 48 -83 91 -79 97 4 7 38 -20 85 -66 44 -42 95 -87 114 -98z
m-3078 -381 c10 -24 0 -34 -20 -20 -10 8 -15 18 -11 24 9 16 25 14 31 -4z
m-76 -95 c0 -5 -2 -10 -4 -10 -3 0 -8 5 -11 10 -3 6 -1 10 4 10 6 0 11 -4 11
-10z m-43 -52 c-3 -8 -6 -5 -6 6 -1 11 2 17 5 13 3 -3 4 -12 1 -19z m4123 2
c0 -5 -4 -10 -10 -10 -5 0 -10 5 -10 10 0 6 5 10 10 10 6 0 10 -4 10 -10z
m-354 -74 c10 -8 16 -17 13 -20 -3 -4 -17 2 -30 13 -27 23 -13 28 17 7z m272
-39 c3 -16 1 -17 -17 -7 -25 13 -28 33 -4 28 10 -2 19 -11 21 -21z m-4089 -57
c5 -3 5 -25 2 -50 l-7 -45 -7 34 c-4 18 -6 57 -5 85 1 40 2 44 5 16 3 -19 8
-37 12 -40z m-19 -160 c0 -5 -13 -16 -30 -25 -16 -9 -30 -22 -30 -30 0 -8 -5
-15 -10 -15 -6 0 -26 -16 -44 -35 -19 -19 -38 -35 -43 -35 -5 0 -30 -24 -56
-54 -29 -34 -54 -54 -66 -53 -12 1 -17 6 -13 13 12 21 69 64 76 57 3 -3 6 -1
6 5 0 13 20 35 117 125 57 53 93 71 93 47z m-100 -184 c0 -2 -7 -9 -15 -16
-12 -10 -15 -10 -15 4 0 9 7 16 15 16 8 0 15 -2 15 -4z m-200 -91 c0 -8 -4
-15 -10 -15 -5 0 -10 7 -10 15 0 8 5 15 10 15 6 0 10 -7 10 -15z m47 -812 c-3
-10 -5 -2 -5 17 0 19 2 27 5 18 2 -10 2 -26 0 -35z m-117 -163 c0 -5 -2 -10
-4 -10 -3 0 -8 5 -11 10 -3 6 -1 10 4 10 6 0 11 -4 11 -10z m-204 -177 c-11
-11 -17 4 -9 23 7 18 8 18 11 1 2 -10 1 -21 -2 -24z m-36 -62 c0 -11 -39 -25
-47 -18 -3 3 -2 10 2 16 8 13 45 15 45 2z m580 -76 c0 -14 -4 -25 -10 -25 -5
0 -10 11 -10 25 0 14 5 25 10 25 6 0 10 -11 10 -25z m-835 -165 c-10 -11 -22
-17 -27 -14 -12 8 11 34 30 34 13 0 12 -3 -3 -20z m-235 -245 c0 -8 -7 -15
-15 -15 -16 0 -20 12 -8 23 11 12 23 8 23 -8z"/>
<path d="M6043 4700 c-18 -8 -23 -17 -23 -48 0 -53 15 -94 67 -182 126 -216
463 -596 708 -800 17 -14 46 -38 66 -55 234 -199 459 -335 554 -335 89 0 77
124 -26 272 -11 14 -19 29 -19 33 0 11 -121 167 -174 225 -28 31 -96 104 -151
164 -55 60 -140 143 -190 184 -49 41 -97 82 -106 91 -9 9 -55 51 -102 95 -208
189 -403 321 -521 352 -58 16 -54 16 -83 4z"/>
<path d="M5126 4082 c-6 -10 -2 -39 7 -48 4 -4 7 7 7 24 0 32 -4 39 -14 24z"/>
<path d="M4862 3818 c-7 -7 -12 -17 -12 -23 0 -6 -8 -18 -17 -27 -52 -49 -53
-60 -13 -95 17 -13 30 -30 30 -36 0 -7 16 -34 35 -61 44 -62 46 -81 8 -60 -44
22 -45 17 -5 -37 77 -107 114 -143 146 -147 17 -2 38 -10 47 -18 21 -19 29
-18 29 4 1 15 2 15 11 -2 9 -14 8 -20 -2 -26 -12 -8 0 -24 99 -127 27 -29 28
-43 4 -43 -34 0 -32 -12 8 -54 22 -22 57 -60 79 -83 22 -24 43 -43 47 -43 4 0
12 -7 18 -16 11 -14 13 -14 25 -1 10 13 4 24 -42 69 -30 29 -59 68 -66 87
l-11 33 26 -17 c24 -16 25 -16 16 2 -6 10 -31 41 -56 69 -25 28 -76 91 -114
140 -50 64 -74 88 -88 86 -16 -2 -17 -1 -4 8 11 9 12 13 3 17 -7 2 -13 10 -13
17 0 18 -24 66 -32 66 -5 0 -8 7 -8 15 0 7 -8 19 -17 24 -10 6 -15 11 -11 11
4 0 -6 23 -22 50 -17 28 -30 57 -30 64 0 7 -9 31 -20 54 -11 22 -20 51 -20 64
0 34 -13 51 -28 36z m108 -308 c0 -5 -2 -10 -4 -10 -3 0 -8 5 -11 10 -3 6 -1
10 4 10 6 0 11 -4 11 -10z m124 -156 c7 -17 -6 -18 -22 -2 -7 7 -12 15 -12 20
0 12 28 -2 34 -18z"/>
<path d="M3575 3569 c-4 -5 3 -9 14 -9 26 0 35 15 11 17 -11 1 -22 -2 -25 -8z"/>
<path d="M5160 3369 c0 -5 5 -7 10 -4 6 3 10 8 10 11 0 2 -4 4 -10 4 -5 0 -10
-5 -10 -11z"/>
<path d="M5200 3310 c0 -5 5 -10 10 -10 6 0 10 5 10 10 0 6 -4 10 -10 10 -5 0
-10 -4 -10 -10z"/>
<path d="M5266 3228 c10 -13 25 -27 32 -31 6 -4 19 -21 27 -37 20 -38 37 -40
24 -2 -5 15 -23 36 -39 47 -17 11 -30 26 -30 33 0 6 -7 12 -17 12 -14 0 -14
-3 3 -22z"/>
<path d="M5530 2930 c11 -21 195 -192 214 -200 7 -3 26 -17 42 -33 58 -55 108
-97 115 -97 4 0 9 8 11 17 4 20 -227 263 -250 263 -9 0 -11 7 -7 20 3 11 2 20
-3 20 -6 0 -12 -5 -14 -12 -3 -8 -15 -4 -37 12 -18 12 -44 24 -57 26 -20 2
-22 -1 -14 -16z"/>
<path d="M2995 2926 c-11 -6 -22 -12 -24 -13 -2 -2 2 -9 9 -18 14 -17 25 -13
40 15 13 24 1 31 -25 16z"/>
<path d="M5460 2911 c0 -6 7 -14 15 -17 8 -4 15 -11 15 -18 0 -6 30 -43 66
-81 37 -39 69 -77 73 -86 8 -21 160 -154 167 -146 3 3 -8 15 -25 28 -17 13
-31 31 -31 41 0 10 -4 18 -9 18 -4 0 -20 17 -33 38 -33 49 -177 202 -191 202
-6 0 -19 7 -29 17 -11 10 -18 12 -18 4z"/>
<path d="M7247 2814 c-4 -4 -4 -10 -1 -15 6 -10 34 0 34 12 0 10 -24 12 -33 3z"/>
<path d="M5920 2584 c0 -8 57 -59 120 -107 30 -23 57 -44 60 -47 16 -18 68
-48 74 -43 15 15 4 33 -20 33 -19 0 -25 4 -21 14 4 9 1 13 -6 10 -7 -2 -18 8
-25 23 -17 37 -127 123 -158 123 -13 0 -24 -3 -24 -6z"/>
<path d="M6940 2516 c0 -10 28 -13 41 -5 10 6 7 9 -13 9 -16 0 -28 -2 -28 -4z"/>
<path d="M5940 2470 c0 -5 5 -10 10 -10 6 0 10 -6 11 -12 0 -7 22 -31 47 -53
26 -23 48 -51 50 -64 2 -25 30 -53 77 -76 17 -9 41 -31 55 -50 25 -35 47 -47
37 -21 -13 34 28 21 113 -36 55 -36 95 -70 101 -85 6 -16 14 -23 24 -19 8 3
15 1 15 -4 0 -16 50 -11 56 5 3 8 14 17 25 20 22 7 49 32 49 46 0 5 -10 9 -22
9 -28 0 -80 17 -145 46 -28 13 -56 24 -62 24 -5 0 -11 3 -13 8 -1 4 -27 20
-57 35 -30 16 -61 36 -70 45 -27 27 -121 83 -130 78 -5 -3 -11 4 -14 15 -3 12
-10 18 -15 15 -6 -3 -12 -3 -14 1 -4 9 -115 93 -123 93 -3 0 -5 -4 -5 -10z
m597 -356 c-3 -3 -12 -4 -19 -1 -8 3 -5 6 6 6 11 1 17 -2 13 -5z"/>
<path d="M6859 2419 c-10 -6 -7 -9 14 -9 29 0 35 5 14 13 -8 3 -20 1 -28 -4z"/>
<path d="M6196 2377 c-16 -12 -14 -15 21 -32 21 -11 41 -24 44 -29 10 -13 41
2 37 17 -3 6 -15 14 -29 15 -13 2 -28 8 -34 13 -7 7 -3 8 10 3 18 -7 18 -6 6
9 -16 20 -31 21 -55 4z"/>
<path d="M2625 2350 c-3 -5 -1 -10 4 -10 6 0 11 5 11 10 0 6 -2 10 -4 10 -3 0
-8 -4 -11 -10z"/>
<path d="M6311 2306 c-14 -16 5 -26 47 -25 25 0 25 1 -8 13 -24 9 -30 15 -20
19 8 3 10 6 4 6 -6 1 -17 -5 -23 -13z"/>
<path d="M6480 2201 c0 -10 69 -25 78 -17 3 3 -4 6 -16 6 -11 0 -24 5 -27 10
-8 12 -35 13 -35 1z"/>
<path d="M6577 2186 c-7 -18 13 -26 63 -26 55 0 58 16 5 29 -56 14 -62 14 -68
-3z"/>
<path d="M2620 1759 c0 -36 2 -40 23 -37 22 3 57 -28 57 -52 0 -6 5 -8 10 -5
6 3 10 -1 10 -9 0 -10 9 -16 25 -16 14 0 25 6 25 13 0 19 -18 42 -32 42 -7 0
-13 10 -14 21 -1 27 -13 46 -24 39 -10 -6 -22 23 -14 36 3 5 -11 9 -30 9 -35
0 -36 -1 -36 -41z"/>
<path d="M2804 1548 c14 -142 28 -181 56 -155 10 9 14 9 17 0 6 -15 83 -18 83
-3 0 6 -11 10 -24 10 -16 0 -27 7 -31 20 -3 11 -11 20 -16 20 -5 0 -9 16 -9
35 0 19 -4 35 -9 35 -4 0 -19 20 -32 45 -13 25 -28 45 -32 45 -5 0 -6 -24 -3
-52z"/>
<path d="M2700 1544 c0 -8 5 -12 10 -9 6 3 10 10 10 16 0 5 -4 9 -10 9 -5 0
-10 -7 -10 -16z"/>
<path d="M2260 1336 c0 -8 4 -17 9 -20 5 -3 12 -26 15 -50 4 -26 13 -47 23
-50 10 -4 14 -15 11 -35 -3 -21 0 -28 11 -27 9 1 20 -12 26 -29 5 -17 20 -44
33 -62 12 -17 22 -38 22 -46 0 -13 11 -28 65 -89 8 -10 15 -24 15 -32 0 -7 7
-19 15 -26 9 -7 14 -18 12 -24 -6 -15 22 -49 51 -65 12 -7 20 -16 18 -20 -8
-13 71 -81 94 -81 21 0 21 0 3 31 -10 17 -37 50 -61 72 -23 23 -52 62 -64 87
-29 60 -77 130 -89 130 -5 0 -9 8 -9 18 -1 9 -14 33 -30 52 -17 19 -30 44 -30
57 0 12 -6 26 -13 30 -8 4 -17 16 -20 26 -4 11 -16 21 -27 24 -19 5 -24 19
-20 56 2 20 -37 87 -51 87 -5 0 -9 -6 -9 -14z"/>
<path d="M3000 1251 c0 -6 4 -11 9 -11 5 0 13 -9 16 -21 5 -16 10 -18 21 -8
19 15 18 25 -3 33 -10 3 -24 9 -30 12 -7 3 -13 1 -13 -5z"/>
<path d="M3105 1130 c-3 -5 -1 -10 4 -10 6 0 11 5 11 10 0 6 -2 10 -4 10 -3 0
-8 -4 -11 -10z"/>
<path d="M3120 1080 c0 -32 1 -33 17 -17 16 16 16 18 0 34 -16 16 -17 15 -17
-17z"/>
<path d="M3180 1015 c-10 -12 -10 -15 4 -15 9 0 16 7 16 15 0 8 -2 15 -4 15
-2 0 -9 -7 -16 -15z"/>
<path d="M3280 904 c0 -8 5 -12 10 -9 6 3 10 10 10 16 0 5 -4 9 -10 9 -5 0
-10 -7 -10 -16z"/>
<path d="M3412 748 c6 -18 28 -21 28 -4 0 9 -7 16 -16 16 -9 0 -14 -5 -12 -12z"/>
<path d="M2675 660 c-8 -12 12 -40 29 -41 6 0 22 -14 35 -30 18 -23 21 -33 12
-42 -19 -19 -13 -26 19 -24 25 2 29 5 24 22 -4 11 -15 29 -25 41 -11 11 -19
24 -19 29 0 11 -49 55 -61 55 -4 0 -11 -5 -14 -10z"/>
<path d="M3520 630 c0 -33 11 -38 30 -15 10 12 10 18 0 30 -19 23 -30 18 -30
-15z"/>
<path d="M3600 541 c0 -16 6 -21 26 -21 33 0 30 33 -4 38 -17 3 -22 -2 -22
-17z"/>
<path d="M2820 501 c0 -26 16 -35 24 -15 10 25 7 34 -9 34 -8 0 -15 -9 -15
-19z"/>
<path d="M2870 425 c0 -8 5 -15 10 -15 6 0 10 -6 10 -14 0 -17 30 -30 42 -18
9 9 3 17 -36 50 -20 16 -26 15 -26 -3z"/>
<path d="M2936 362 c-3 -5 4 -16 14 -25 21 -18 34 -8 24 17 -7 17 -29 22 -38
8z"/>
<path d="M3040 245 c0 -8 7 -15 15 -15 8 0 15 4 15 9 0 5 -7 11 -15 15 -9 3
-15 0 -15 -9z"/>
<path d="M1483 228 c2 -7 10 -13 17 -13 7 0 15 6 18 13 2 7 -5 12 -18 12 -13
0 -20 -5 -17 -12z"/>
<path d="M4160 105 c0 -19 11 -19 36 0 18 14 18 14 -8 15 -18 0 -28 -5 -28
-15z"/>
<path d="M3240 40 c0 -5 7 -10 16 -10 8 0 12 5 9 10 -3 6 -10 10 -16 10 -5 0
-9 -4 -9 -10z"/>
<path d="M4320 26 c19 -8 46 -15 59 -15 30 -1 24 6 -9 12 -14 3 -38 8 -55 11
-28 6 -27 5 5 -8z"/>
</g>
</svg>
