<?xml version="1.0" standalone="no"?>
<!DOCTYPE svg PUBLIC "-//W3C//DTD SVG 20010904//EN"
 "http://www.w3.org/TR/2001/REC-SVG-20010904/DTD/svg10.dtd">
<svg version="1.0" xmlns="http://www.w3.org/2000/svg"
 width="1000.000000pt" height="667.000000pt" viewBox="0 0 1000.000000 667.000000"
 preserveAspectRatio="xMidYMid meet">

<g transform="translate(0.000000,667.000000) scale(0.100000,-0.100000)"
fill="#000000" stroke="none">
<path d="M2170 6660 c-29 -18 20 -23 164 -17 139 5 222 -4 272 -31 61 -32 335
-53 352 -26 4 6 32 16 62 22 30 6 73 15 95 20 22 6 92 13 156 17 286 15 139
23 -456 24 -373 0 -636 -3 -645 -9z"/>
<path d="M7705 6660 c3 -5 -1 -10 -9 -10 -9 0 -16 -4 -16 -9 0 -5 -17 -12 -37
-16 -21 -3 -47 -12 -58 -20 -27 -17 -132 -39 -170 -36 -16 2 -36 3 -42 4 -7 0
-13 4 -13 9 0 4 -8 8 -17 8 -10 0 -46 10 -81 22 l-63 22 -277 -18 c-152 -10
-348 -22 -436 -26 -97 -5 -161 -13 -166 -19 -3 -7 -44 -14 -91 -16 -93 -6
-217 -20 -294 -35 -44 -9 -127 -22 -235 -37 -219 -30 -348 -47 -410 -53 -105
-11 -131 -19 -160 -47 -34 -33 -147 -113 -160 -113 -15 0 -12 -16 4 -29 8 -7
18 -27 22 -44 10 -47 28 -79 73 -127 22 -24 38 -47 35 -51 -2 -4 0 -10 6 -14
5 -3 10 -17 10 -31 0 -13 5 -24 10 -24 6 0 10 -18 10 -40 0 -40 -15 -55 -23
-22 -3 9 -5 -9 -6 -40 l-1 -58 45 0 45 0 0 -40 0 -40 40 0 c22 0 40 -4 40 -10
0 -5 18 -10 40 -10 22 0 40 5 40 10 0 13 220 2 234 -11 6 -5 -7 -9 -32 -9 -23
0 -42 -4 -42 -10 0 -6 29 -10 67 -10 52 0 64 3 55 12 -20 20 -14 38 13 38 16
0 25 -6 25 -16 0 -13 8 -15 40 -12 22 2 40 1 40 -3 0 -4 15 -3 33 1 17 4 31
12 29 18 -1 7 2 12 8 12 5 0 10 -7 10 -15 0 -12 16 -15 75 -16 86 -2 79 -1
128 -19 20 -8 37 -18 37 -22 0 -4 10 -8 21 -8 20 0 206 -73 276 -108 31 -16
36 -15 130 16 54 18 104 32 112 32 15 0 89 39 108 57 13 11 53 26 105 37 30 7
43 19 133 119 32 37 64 67 71 67 6 0 26 7 44 17 19 9 47 19 64 23 17 3 31 12
31 20 0 20 23 24 27 4 1 -10 12 -18 23 -19 16 -1 20 5 20 28 0 36 22 52 58 43
48 -12 30 -68 -22 -70 -8 -1 -16 -7 -19 -14 -2 -8 7 -12 27 -12 18 0 31 -5 31
-12 0 -7 14 -25 32 -40 26 -21 29 -28 15 -28 -17 0 -17 -1 -2 -16 9 -9 14 -23
11 -31 -3 -8 -6 -22 -7 -31 0 -14 -2 -13 -9 3 -8 20 -9 20 -9 -1 -1 -17 -33
-51 -86 -92 -5 -4 -37 -16 -70 -26 -86 -27 -112 -38 -98 -43 16 -6 -1 -43 -20
-43 -7 0 -20 -7 -30 -14 -17 -13 -15 -17 32 -61 27 -25 57 -62 66 -81 9 -19
36 -49 60 -67 24 -17 44 -37 45 -42 1 -38 -93 -90 -139 -78 -24 6 -28 23 -6
23 8 0 15 7 15 15 0 13 -4 14 -22 4 -36 -19 -135 -15 -225 9 -45 12 -93 22
-106 22 -13 0 -44 13 -68 30 -56 38 -80 38 -116 -2 -16 -18 -45 -42 -66 -53
-20 -11 -37 -26 -37 -33 0 -18 108 -6 132 16 16 13 20 13 44 -2 16 -11 23 -23
20 -33 -3 -8 -6 -34 -6 -58 0 -42 -2 -44 -33 -50 -18 -4 -44 -2 -58 3 -14 6
-32 6 -40 1 -9 -5 -31 -3 -52 3 -36 11 -44 26 -38 74 1 6 -28 15 -69 21 -61 8
-74 7 -97 -8 -15 -10 -51 -21 -79 -25 -59 -7 -60 -13 -15 -74 43 -58 62 -103
57 -132 -5 -25 -2 -28 29 -34 20 -3 78 1 131 10 52 9 119 16 148 16 29 0 79 5
112 11 82 15 181 15 229 0 22 -7 93 -39 157 -71 64 -32 143 -64 175 -70 120
-24 146 -31 171 -48 81 -54 534 -202 769 -251 54 -12 141 -35 193 -52 52 -17
119 -33 148 -36 28 -3 52 -10 52 -14 0 -5 18 -9 41 -9 27 0 38 4 33 11 -5 8
-1 8 14 0 18 -10 68 -13 167 -12 71 1 319 18 360 25 22 4 113 10 202 14 90 4
167 12 173 18 7 7 4 36 -10 90 -12 45 -22 117 -23 167 -2 78 0 90 18 103 24
18 98 10 129 -13 23 -18 66 -79 66 -94 0 -5 6 -9 14 -9 8 0 16 -7 20 -15 9
-23 42 -18 63 11 15 20 31 27 66 31 42 5 50 2 75 -22 l27 -27 3 240 c2 230 -4
292 -28 292 -5 0 -10 -8 -11 -17 -1 -10 -6 -4 -11 14 -11 33 -4 128 12 152 7
12 11 12 24 2 14 -12 16 -5 16 63 0 49 -4 75 -10 71 -5 -3 -10 -15 -10 -26 0
-10 -4 -19 -9 -19 -20 0 -33 76 -38 218 -3 81 -6 165 -8 187 -1 22 -3 56 -4
75 l-2 35 -18 -35 c-11 -21 -21 -70 -26 -123 -6 -83 -8 -88 -35 -102 -16 -8
-40 -15 -55 -15 -16 0 -25 -6 -25 -15 0 -10 -10 -15 -28 -15 -41 0 -54 37 -41
124 6 46 6 80 -1 100 -5 17 -9 58 -7 91 1 45 -3 71 -20 105 -37 75 -39 124 -8
262 33 150 63 219 121 274 24 24 44 52 44 63 0 21 -2 21 -322 19 l-323 -3 -12
-60 c-6 -33 -14 -70 -18 -81 -5 -16 -2 -23 14 -27 24 -6 26 -30 10 -92 -6 -22
-14 -59 -19 -83 -6 -24 -19 -56 -30 -72 -11 -15 -20 -32 -20 -38 0 -15 -25
-32 -36 -24 -28 18 -46 99 -41 183 5 92 15 148 28 165 14 17 14 71 0 88 -7 9
-11 23 -7 31 5 13 -50 15 -472 15 l-478 0 -22 -60 c-12 -33 -33 -76 -48 -95
-30 -39 -114 -83 -220 -116 -83 -25 -100 -39 -110 -87 -9 -46 -9 -50 -1 -87 7
-29 43 -55 76 -55 26 0 42 -16 45 -44 3 -23 0 -26 -25 -26 -16 0 -29 -5 -29
-10 0 -7 -18 -8 -50 -4 -35 5 -61 2 -90 -10 -55 -22 -70 -20 -141 11 -58 26
-60 29 -56 58 8 52 37 149 53 172 7 12 14 27 14 33 0 12 44 74 86 122 16 18
58 54 94 79 92 66 149 118 128 119 -9 0 -23 -7 -32 -15 -8 -8 -20 -15 -27 -15
-9 0 -8 4 1 15 11 13 8 15 -14 15 -16 0 -25 -4 -21 -10z m1659 -395 c-4 -8 -1
-15 5 -15 12 0 15 -29 3 -46 -4 -6 -23 -15 -42 -19 -19 -4 -32 -4 -27 1 4 4 0
15 -8 24 -13 14 -12 20 12 53 21 30 29 35 44 26 10 -5 16 -16 13 -24z m216
-931 c0 -8 -5 -12 -10 -9 -6 4 -8 11 -5 16 9 14 15 11 15 -7z m128 -9 c23 -50
11 -135 -18 -135 -26 0 -41 125 -18 148 17 17 23 15 36 -13z m-131 -30 c0 -8
-4 -15 -9 -15 -4 0 -8 7 -8 15 0 8 4 15 8 15 5 0 9 -7 9 -15z"/>
<path d="M1603 6613 c15 -2 39 -2 55 0 15 2 2 4 -28 4 -30 0 -43 -2 -27 -4z"/>
<path d="M4105 6280 c-3 -5 -28 -10 -56 -10 -29 0 -49 -4 -49 -11 0 -8 -22 -9
-76 -4 -56 5 -79 4 -84 -5 -5 -9 -57 -14 -164 -18 -86 -3 -156 -8 -156 -13 0
-4 -46 -10 -102 -13 -57 -3 -114 -6 -128 -6 -45 -3 -243 -19 -360 -31 -63 -6
-216 -15 -340 -20 -124 -5 -360 -14 -525 -21 -386 -17 -1494 -16 -1504 1 -5 7
-53 14 -124 18 -64 3 -117 10 -117 15 0 4 -18 8 -40 8 -22 0 -40 5 -40 10 0 6
-14 10 -32 10 -30 0 -31 0 -13 20 17 19 17 20 -9 30 -15 5 -34 10 -42 10 -9 0
-25 5 -37 11 -16 9 -22 9 -25 0 -2 -7 -17 -9 -43 -5 l-39 7 0 -255 0 -255 31
-39 c17 -21 34 -41 38 -44 28 -18 7 -59 -31 -60 -19 0 -26 -40 -8 -40 19 0 10
-42 -10 -47 -17 -4 -20 -14 -20 -54 0 -46 1 -48 20 -37 11 7 25 26 32 43 6 16
20 37 30 46 10 9 18 23 18 32 0 8 7 17 15 21 8 3 15 1 15 -4 0 -6 6 -10 13
-10 14 0 57 -41 57 -54 0 -4 11 -24 25 -44 14 -20 25 -46 25 -57 0 -12 5 -26
12 -33 8 -8 8 -15 -2 -27 -10 -12 -10 -19 -2 -27 17 -17 15 -38 -8 -83 -21
-41 -27 -80 -10 -70 6 4 8 -7 4 -27 -9 -50 -13 -60 -24 -53 -5 3 -20 -1 -33
-10 -24 -15 -24 -15 -19 12 2 16 9 34 15 41 5 7 7 16 3 19 -9 9 -26 -17 -26
-39 0 -10 -7 -18 -15 -18 -19 0 -19 -30 0 -56 12 -16 14 -17 15 -2 0 11 6 15
20 11 26 -7 26 -23 0 -23 -15 0 -20 -7 -20 -25 0 -14 -4 -25 -10 -25 -5 0 -9
10 -7 22 1 17 -4 24 -20 26 -13 2 -23 8 -23 13 0 5 -4 9 -10 9 -17 0 -11 -22
11 -41 19 -17 20 -19 5 -25 -11 -4 -22 1 -32 15 -17 24 -44 28 -44 6 0 -8 6
-12 14 -9 8 3 15 -3 18 -14 7 -26 -5 -44 -24 -37 -9 4 -18 0 -21 -9 -5 -12 0
-16 18 -16 14 0 25 -4 25 -10 0 -13 -37 -50 -50 -50 -6 0 -10 -9 -10 -21 0
-18 5 -20 46 -18 44 3 47 2 65 -34 16 -29 17 -37 5 -37 -7 0 -19 7 -26 15 -7
9 -29 15 -51 15 l-39 0 2 -106 c1 -95 3 -105 16 -88 13 18 14 17 7 -6 -4 -14
-11 -29 -16 -34 -5 -6 -9 -97 -9 -203 l0 -193 78 -82 c153 -163 293 -298 307
-298 8 0 15 -3 15 -7 0 -5 19 -21 43 -37 33 -23 56 -54 101 -132 64 -115 101
-148 154 -138 27 5 30 11 36 53 7 50 51 126 67 115 5 -3 21 5 35 19 27 28 43
90 25 101 -6 4 -11 12 -11 19 0 8 3 8 12 -1 7 -7 22 -12 35 -12 21 0 22 2 11
28 -7 15 -18 35 -26 44 -8 9 -11 22 -6 29 4 8 3 10 -4 5 -7 -4 -12 -1 -12 9 0
9 -4 14 -9 11 -5 -3 -12 1 -15 10 -6 15 27 56 55 67 11 4 12 7 1 15 -11 8 -11
10 1 15 8 3 20 0 26 -6 8 -8 11 -4 11 16 0 15 6 27 13 27 6 0 3 7 -8 16 -20
15 -20 15 0 13 48 -5 65 1 65 22 0 15 6 20 23 19 12 -1 27 -2 33 -1 13 1 22
56 32 186 8 106 13 118 47 105 48 -18 21 28 -84 145 -15 17 -42 53 -61 80 -18
28 -37 52 -40 55 -16 12 -68 98 -78 129 -16 45 -15 96 1 109 6 6 56 15 110 21
102 12 151 27 179 55 14 13 15 22 6 47 -13 37 5 109 27 109 7 0 20 7 29 15 21
22 62 35 107 35 27 0 45 6 56 20 25 29 64 25 96 -8 15 -16 25 -31 21 -34 -12
-13 36 -18 55 -6 16 10 27 10 54 0 18 -7 56 -12 85 -12 39 0 54 4 65 20 8 11
28 23 45 26 18 4 32 12 32 20 0 7 7 17 16 22 9 5 14 17 12 28 -2 13 -18 21
-61 30 -32 6 -64 17 -70 23 -6 6 -28 11 -49 11 -21 0 -38 5 -38 10 0 6 26 10
58 10 50 0 54 2 36 13 -79 45 -84 50 -84 90 0 33 3 38 18 32 9 -3 42 -11 72
-16 92 -16 203 -40 234 -50 39 -12 96 -11 96 1 0 6 6 10 13 9 18 -3 87 12 125
28 21 9 46 11 69 7 31 -6 35 -4 30 10 -5 14 2 16 51 16 31 0 73 4 92 9 19 5
85 12 145 15 61 3 199 11 309 16 109 6 202 13 206 15 5 3 32 5 62 6 62 1 146
-24 169 -51 13 -15 25 -18 53 -13 20 3 36 10 36 15 0 5 39 9 88 8 89 -1 321
20 447 41 39 6 102 12 140 14 39 1 82 3 98 4 25 1 27 4 27 41 l0 40 -40 0 -40
0 0 40 0 40 -40 0 -40 0 0 41 0 40 84 -3 83 -3 -5 40 c-3 22 -9 42 -13 43 -13
5 -11 82 1 82 6 0 10 18 10 40 0 22 4 40 9 40 4 0 12 32 16 72 6 63 4 74 -12
85 -10 8 -17 16 -15 19 5 8 -65 64 -81 64 -9 0 -19 5 -22 10 -3 6 -10 10 -15
10 -5 0 -12 -4 -15 -10z m-105 -530 c0 -29 -4 -40 -15 -40 -11 0 -15 11 -15
40 0 29 4 40 15 40 11 0 15 -11 15 -40z m-3172 -81 c-19 -13 -28 -11 -28 6 0
8 -5 15 -11 15 -5 0 -7 4 -4 10 4 6 16 3 31 -7 19 -12 22 -18 12 -24z m3092
-129 c0 -5 -2 -10 -4 -10 -3 0 -8 5 -11 10 -3 6 -1 10 4 10 6 0 11 -4 11 -10z
m-2346 -249 c3 -5 -4 -11 -17 -15 -33 -9 -67 -7 -67 3 0 17 75 28 84 12z
m-1049 -222 c12 -19 -3 -22 -27 -5 l-22 16 21 0 c12 0 25 -5 28 -11z m-285 -9
c0 -5 -2 -10 -4 -10 -3 0 -8 5 -11 10 -3 6 -1 10 4 10 6 0 11 -4 11 -10z m335
-79 c-6 -5 -25 10 -25 20 0 5 6 4 14 -3 8 -7 12 -15 11 -17z m-265 -41 c5 0
15 -19 21 -42 12 -43 24 -63 37 -63 4 0 25 -17 47 -38 33 -30 37 -39 25 -47
-8 -5 -11 -12 -7 -17 5 -4 13 -1 18 7 9 12 11 13 16 1 5 -11 7 -11 14 0 6 10
9 7 9 -11 1 -31 30 -72 37 -52 3 9 14 1 29 -22 13 -19 33 -37 44 -41 23 -7 27
-25 5 -25 -17 0 -20 -16 -5 -25 6 -3 7 -17 4 -31 -4 -14 -2 -24 5 -24 6 0 11
13 11 29 0 29 14 41 50 41 19 0 33 -31 30 -67 -2 -34 12 -51 22 -27 6 13 7 9
3 -15 -3 -21 1 -43 12 -61 15 -26 15 -29 0 -44 -11 -12 -14 -26 -10 -46 5 -25
2 -30 -15 -30 -25 0 -48 -25 -32 -35 6 -4 9 -14 6 -22 -5 -11 -1 -14 13 -10
16 4 18 -1 17 -34 0 -24 -5 -39 -13 -39 -7 0 -13 7 -13 15 0 8 -9 15 -20 15
-12 0 -20 7 -21 18 -1 15 -2 15 -6 -1 -6 -22 23 -57 48 -57 10 0 21 -4 24 -10
3 -5 -3 -10 -14 -10 -11 0 -27 -7 -36 -16 -12 -13 -19 -14 -30 -4 -8 7 -15 21
-15 32 0 14 -5 18 -17 14 -13 -4 -32 13 -70 64 -29 37 -53 76 -53 84 0 9 -7
16 -15 16 -9 0 -21 11 -27 25 -6 14 -14 25 -18 25 -4 0 -20 16 -36 37 -25 33
-26 36 -6 31 12 -4 23 0 26 7 4 10 -2 11 -27 4 -40 -11 -37 -12 -37 7 0 9 -11
25 -25 36 -14 11 -25 26 -25 34 0 8 -11 19 -25 24 -15 6 -25 17 -25 30 0 11
-5 20 -10 20 -6 0 -16 5 -23 10 -7 6 -21 17 -32 25 -26 18 -8 38 35 38 19 0
30 5 30 15 0 8 6 12 15 9 8 -4 17 -2 20 3 4 6 -3 10 -13 10 -11 0 -26 10 -34
22 -9 14 -19 19 -28 13 -10 -6 -10 -11 4 -21 10 -7 15 -17 11 -23 -11 -19 -42
-12 -53 14 -9 20 -9 23 3 18 9 -3 15 1 15 11 0 9 -7 16 -15 16 -8 0 -15 4 -15
10 0 14 38 32 72 33 22 2 33 9 39 25 7 18 5 22 -10 22 -14 0 -18 -5 -14 -20 3
-11 0 -20 -6 -20 -6 0 -11 5 -11 10 0 6 -8 10 -17 10 -13 0 -15 2 -5 8 8 5 10
16 6 27 -6 15 -4 17 14 13 15 -4 22 -2 22 8 0 8 7 14 15 14 8 0 15 5 15 10 0
6 -4 10 -10 10 -14 0 -12 27 3 33 6 3 18 4 25 1 8 -2 18 -4 22 -4z m335 -30
c-3 -5 -11 -10 -16 -10 -6 0 -7 5 -4 10 3 6 11 10 16 10 6 0 7 -4 4 -10z
m-492 -18 c10 -10 14 -22 10 -25 -7 -8 -43 21 -43 35 0 14 16 9 33 -10z m494
-24 c-3 -8 -6 -5 -6 6 -1 11 2 17 5 13 3 -3 4 -12 1 -19z m-94 -8 c3 -13 14
-20 29 -20 20 0 24 -5 23 -32 0 -42 -20 -47 -33 -8 -6 17 -15 30 -19 29 -22
-4 -33 3 -33 19 0 35 25 44 33 12z m174 -13 c16 -18 35 -47 42 -65 7 -18 17
-32 22 -32 5 0 9 -5 9 -11 0 -5 13 -24 30 -42 16 -18 30 -38 30 -45 0 -18 23
-39 37 -35 24 8 74 -29 108 -82 19 -31 35 -62 35 -71 0 -9 5 -12 12 -8 7 4 8
3 4 -5 -4 -6 -1 -23 8 -36 27 -41 15 -62 -18 -30 -8 8 -17 15 -20 15 -9 0
-126 82 -127 89 -7 51 -13 70 -29 93 -11 15 -20 29 -20 32 0 9 -51 56 -60 56
-6 0 -10 5 -10 10 0 15 -40 12 -41 -2 0 -7 -1 -29 -2 -48 -4 -77 -57 -31 -57
49 0 21 -8 63 -17 92 -13 39 -14 54 -5 57 7 2 12 12 12 21 0 41 20 40 57 -2z
m-604 -15 c30 -5 36 -19 11 -29 -10 -4 -22 1 -29 10 -7 10 -20 17 -29 17 -9 0
-16 5 -16 11 0 7 7 8 18 4 9 -4 29 -10 45 -13z m597 -572 c0 -5 -4 -10 -10
-10 -5 0 -10 5 -10 10 0 6 5 10 10 10 6 0 10 -4 10 -10z m210 -135 c15 -38 -5
-63 -49 -62 -20 0 -28 2 -18 4 9 3 17 8 17 13 0 5 10 10 23 12 22 4 24 9 12
41 -4 9 -4 17 -1 17 4 0 11 -11 16 -25z m-440 -30 c-12 -15 -30 -12 -30 6 0 5
10 9 21 9 18 0 19 -2 9 -15z m208 -33 c3 -9 -2 -13 -14 -10 -9 1 -19 9 -22 16
-3 9 2 13 14 10 9 -1 19 -9 22 -16z m102 8 c0 -5 -4 -10 -10 -10 -5 0 -10 5
-10 10 0 6 5 10 10 10 6 0 10 -4 10 -10z m20 -24 c0 -3 -4 -8 -10 -11 -5 -3
-10 -1 -10 4 0 6 5 11 10 11 6 0 10 -2 10 -4z m-43 -12 c-3 -3 -12 -4 -19 -1
-8 3 -5 6 6 6 11 1 17 -2 13 -5z m126 -37 c-3 -5 -10 -4 -15 1 -6 6 -7 16 -3
22 6 9 9 9 16 -1 4 -7 5 -17 2 -22z m-367 -14 c-7 -7 -26 7 -26 19 0 6 6 6 15
-2 9 -7 13 -15 11 -17z m274 -4 c0 -6 -4 -7 -10 -4 -5 3 -10 11 -10 16 0 6 5
7 10 4 6 -3 10 -11 10 -16z m-299 -9 c25 -14 24 -44 -3 -71 -17 -15 -19 -23
-10 -26 10 -4 10 -8 1 -19 -10 -12 -16 -5 -37 40 -13 30 -22 62 -19 71 7 17
39 20 68 5z m325 -35 c18 -14 17 -14 -13 -15 -25 0 -31 4 -27 15 8 19 15 19
40 0z"/>
<path d="M290 4875 c-7 -9 -10 -18 -7 -22 8 -7 37 15 37 28 0 14 -16 11 -30
-6z"/>
<path d="M274 4779 c-9 -15 1 -21 26 -17 21 3 21 3 1 15 -14 9 -22 9 -27 2z"/>
<path d="M335 4770 c5 -17 2 -20 -21 -20 -23 0 -25 -2 -14 -15 9 -11 15 -12
20 -5 4 7 15 4 31 -8 13 -11 35 -22 49 -26 19 -6 21 -5 10 3 -13 9 -13 14 -2
31 10 17 10 25 1 36 -6 7 -15 12 -19 9 -5 -3 -11 -1 -15 5 -3 5 -15 10 -26 10
-16 0 -19 -5 -14 -20z"/>
<path d="M200 4765 c0 -8 7 -15 15 -15 9 0 12 6 9 15 -4 8 -10 15 -15 15 -5 0
-9 -7 -9 -15z"/>
<path d="M305 4701 c-6 -11 21 -34 35 -29 6 2 2 11 -9 20 -11 10 -23 13 -26 9z"/>
<path d="M410 4670 c-9 -6 -10 -10 -3 -10 6 0 15 5 18 10 8 12 4 12 -15 0z"/>
<path d="M450 4668 c0 -16 37 -41 50 -33 15 9 12 22 -7 29 -10 3 -24 9 -30 12
-7 3 -13 0 -13 -8z"/>
<path d="M360 4656 c0 -9 7 -16 16 -16 17 0 14 22 -4 28 -7 2 -12 -3 -12 -12z"/>
<path d="M245 4640 c3 -5 13 -10 21 -10 8 0 14 5 14 10 0 6 -9 10 -21 10 -11
0 -17 -4 -14 -10z"/>
<path d="M410 4631 c0 -6 5 -13 10 -16 6 -3 10 1 10 9 0 9 -4 16 -10 16 -5 0
-10 -4 -10 -9z"/>
<path d="M298 4613 c6 -2 18 -2 25 0 6 3 1 5 -13 5 -14 0 -19 -2 -12 -5z"/>
<path d="M413 4600 c-13 -5 -23 -11 -23 -13 0 -9 60 -1 61 8 1 13 -12 15 -38
5z"/>
<path d="M545 4599 c-4 -6 -21 -8 -38 -5 -29 6 -30 5 -8 -4 25 -11 61 -5 61
11 0 12 -7 11 -15 -2z"/>
<path d="M280 4573 c0 -13 5 -23 10 -23 13 0 13 11 0 30 -8 12 -10 11 -10 -7z"/>
<path d="M460 4550 c0 -5 5 -10 10 -10 6 0 10 5 10 10 0 6 -4 10 -10 10 -5 0
-10 -4 -10 -10z"/>
<path d="M370 4540 c0 -5 7 -10 16 -10 8 0 12 5 9 10 -3 6 -10 10 -16 10 -5 0
-9 -4 -9 -10z"/>
<path d="M312 4524 c-7 -8 -8 -14 -3 -14 10 0 25 19 20 25 -2 1 -10 -3 -17
-11z"/>
<path d="M400 4510 c0 -5 7 -10 16 -10 8 0 12 5 9 10 -3 6 -10 10 -16 10 -5 0
-9 -4 -9 -10z"/>
<path d="M470 4510 c13 -9 13 -10 0 -10 -8 0 -1 -7 16 -16 17 -8 36 -26 42
-40 7 -13 16 -24 22 -24 6 0 2 13 -9 29 -24 33 -26 47 -8 55 6 3 0 4 -15 1
-15 -3 -30 -1 -33 5 -3 5 -12 10 -18 10 -7 0 -6 -4 3 -10z"/>
<path d="M555 4490 c-3 -5 -1 -10 4 -10 6 0 11 5 11 10 0 6 -2 10 -4 10 -3 0
-8 -4 -11 -10z"/>
<path d="M480 4449 c0 -5 5 -7 10 -4 6 3 10 8 10 11 0 2 -4 4 -10 4 -5 0 -10
-5 -10 -11z"/>
<path d="M510 4400 c0 -5 5 -10 10 -10 6 0 10 5 10 10 0 6 -4 10 -10 10 -5 0
-10 -4 -10 -10z"/>
<path d="M480 4370 c0 -5 5 -10 10 -10 6 0 10 5 10 10 0 6 -4 10 -10 10 -5 0
-10 -4 -10 -10z"/>
<path d="M240 6219 c0 -5 5 -7 10 -4 6 3 10 8 10 11 0 2 -4 4 -10 4 -5 0 -10
-5 -10 -11z"/>
<path d="M9969 5938 c-8 -15 -12 -64 -10 -143 2 -148 4 -159 24 -163 15 -3 17
13 17 162 0 165 -6 191 -31 144z"/>
<path d="M5360 5678 c0 -8 16 -14 44 -15 35 -1 43 2 39 13 -7 18 -83 19 -83 2z"/>
<path d="M6676 5433 c-11 -11 -6 -23 9 -23 8 0 15 4 15 9 0 13 -16 22 -24 14z"/>
<path d="M230 5294 c0 -8 5 -12 10 -9 6 3 10 10 10 16 0 5 -4 9 -10 9 -5 0
-10 -7 -10 -16z"/>
<path d="M2098 5223 c-10 -2 -18 -9 -18 -14 0 -5 -6 -9 -14 -9 -7 0 -16 -9
-19 -20 -4 -15 -14 -20 -42 -20 l-37 0 6 -54 c9 -67 -11 -112 -55 -128 -16 -5
-29 -13 -29 -18 0 -51 380 -111 565 -89 49 6 133 20 185 30 52 10 142 28 200
40 234 45 276 59 324 109 31 32 32 31 -42 50 -31 8 -58 8 -103 -1 -73 -14
-212 2 -271 32 -21 11 -50 19 -66 19 -30 0 -235 42 -264 55 -11 4 -18 3 -18
-3 0 -7 -10 -8 -30 -2 -17 5 -67 11 -113 15 -45 3 -95 7 -112 9 -16 2 -38 2
-47 -1z"/>
<path d="M215 5130 c-3 -5 -1 -10 4 -10 6 0 11 5 11 10 0 6 -2 10 -4 10 -3 0
-8 -4 -11 -10z"/>
<path d="M3595 5134 c-5 -2 -29 -8 -53 -14 -38 -10 -41 -12 -27 -27 19 -19 69
-11 104 16 22 17 22 18 5 23 -11 3 -23 3 -29 2z"/>
<path d="M5100 5109 c-34 -14 -40 -26 -38 -84 0 -29 -4 -51 -11 -53 -6 -2 -11
-9 -12 -15 -1 -11 -41 -47 -141 -129 -21 -17 -38 -37 -38 -44 0 -8 -6 -14 -14
-14 -7 0 -24 -14 -37 -32 -13 -17 -30 -36 -37 -42 -8 -6 -25 -22 -38 -36 -57
-59 -132 -130 -138 -130 -9 0 -136 -129 -136 -138 0 -5 -7 -15 -15 -22 -8 -7
-15 -21 -15 -31 0 -11 -10 -29 -22 -41 -13 -13 -17 -23 -10 -26 11 -3 -15 -73
-31 -80 -4 -2 -4 -8 -1 -13 3 -6 -2 -19 -12 -30 -9 -10 -13 -19 -9 -19 13 0
105 61 105 69 0 15 256 179 350 225 52 26 104 56 115 66 11 10 41 26 67 35 26
8 99 44 162 79 256 144 297 160 460 182 61 8 137 21 169 29 32 8 71 15 87 15
16 0 32 5 35 11 4 6 13 8 21 5 7 -3 18 3 24 12 8 12 13 14 16 5 7 -17 31 -16
41 1 4 8 17 16 28 19 11 3 -5 4 -35 2 -39 -3 -46 -2 -25 3 28 7 26 8 -24 15
-29 3 -58 10 -65 16 -59 48 -183 94 -211 78 -25 -13 -195 17 -278 49 -34 14
-81 28 -105 31 -24 3 -60 14 -80 24 -40 21 -65 23 -102 8z"/>
<path d="M1430 5061 c0 -6 5 -13 10 -16 6 -3 10 1 10 9 0 9 -4 16 -10 16 -5 0
-10 -4 -10 -9z"/>
<path d="M1385 5030 c4 -6 11 -8 16 -5 14 9 11 15 -7 15 -8 0 -12 -5 -9 -10z"/>
<path d="M4585 4953 c-16 -9 -48 -18 -70 -20 -54 -5 -185 -52 -192 -69 -4 -12
-76 -33 -79 -23 -1 2 -10 -3 -20 -12 -11 -10 -64 -32 -120 -51 -120 -40 -157
-64 -160 -104 -6 -71 -40 -168 -71 -202 -7 -7 -13 -20 -13 -28 0 -8 -4 -14 -9
-14 -5 0 -14 -15 -21 -32 -6 -18 -20 -53 -30 -78 -11 -25 -22 -61 -25 -80 -4
-19 -12 -48 -20 -65 -36 -80 -75 -262 -81 -380 -3 -49 -12 -116 -20 -149 -15
-57 -15 -61 3 -74 39 -29 141 11 159 63 4 11 15 32 26 47 22 31 35 101 47 240
7 94 9 99 56 168 26 39 55 75 64 80 43 25 43 25 30 68 -10 36 -9 48 11 104 47
129 53 136 148 181 48 22 114 59 146 80 32 22 77 44 99 49 54 12 72 28 171
151 85 105 95 127 76 157 -8 12 -13 13 -30 2 -12 -7 -20 -8 -20 -2 0 14 -20
12 -55 -7z"/>
<path d="M3920 4912 c0 -4 -10 -12 -21 -17 -24 -11 -23 -32 1 -27 28 5 90 35
90 44 0 4 -16 8 -35 8 -19 0 -35 -3 -35 -8z"/>
<path d="M6048 4863 c6 -2 18 -2 25 0 6 3 1 5 -13 5 -14 0 -19 -2 -12 -5z"/>
<path d="M6587 4794 c-6 -6 -87 -12 -242 -18 -194 -7 -277 -15 -301 -31 -13
-8 -34 -15 -46 -15 -28 0 -90 -21 -109 -37 -31 -25 -136 -36 -144 -15 -6 15
-35 16 -35 0 0 -6 -6 -3 -14 7 -8 11 -20 16 -29 12 -9 -3 -19 -2 -22 4 -4 5
-12 6 -18 2 -7 -4 -25 -6 -40 -4 -31 3 -87 -16 -87 -30 0 -5 -9 -9 -20 -9 -25
0 -27 -17 -2 -23 14 -3 12 -6 -10 -17 -16 -7 -28 -17 -28 -22 0 -5 -11 -13
-25 -18 -15 -6 -25 -17 -25 -29 0 -11 -4 -22 -10 -26 -5 -3 -7 -12 -3 -20 3
-8 0 -15 -6 -15 -6 0 -11 7 -11 17 0 11 -11 4 -35 -23 -28 -32 -36 -36 -44
-24 -6 8 -13 11 -18 7 -4 -5 -1 -12 6 -17 11 -6 8 -14 -15 -34 -36 -31 -54
-33 -54 -5 0 21 -1 20 -21 -5 -11 -14 -30 -26 -41 -26 -15 0 -19 -5 -15 -19 4
-16 -6 -22 -62 -40 -88 -28 -131 -32 -131 -15 0 19 -66 11 -89 -10 -10 -9 -23
-16 -30 -16 -7 0 -29 -16 -49 -35 -20 -19 -45 -35 -54 -35 -22 0 -68 -21 -68
-31 0 -5 -7 -6 -16 -2 -14 5 -16 2 -10 -20 3 -15 4 -38 0 -51 -5 -19 -10 -23
-25 -17 -11 4 -36 5 -55 3 -26 -3 -34 -8 -31 -21 5 -21 -30 -90 -48 -98 -8 -3
-15 -14 -15 -24 0 -10 -5 -19 -11 -19 -6 0 -9 -9 -6 -20 3 -11 4 -20 2 -20 -2
0 -30 7 -61 15 -70 18 -94 38 -94 79 l-1 31 -16 -30 c-11 -20 -12 -30 -4 -33
6 -2 11 -8 11 -14 0 -6 -7 -8 -15 -4 -11 4 -15 -1 -15 -17 0 -12 -8 -35 -18
-52 -10 -16 -22 -45 -25 -64 -4 -19 -14 -42 -22 -51 -9 -10 -22 -46 -30 -81
-28 -121 -56 -223 -71 -251 -14 -27 -14 -28 13 -28 75 2 129 25 186 79 41 39
57 62 57 80 0 14 11 44 25 66 13 22 25 47 25 55 1 18 47 121 74 167 17 28 27
33 75 39 50 6 202 50 256 74 11 5 38 14 60 21 22 6 65 24 95 40 30 15 74 33
97 40 24 7 40 16 36 22 -3 6 -1 7 6 3 6 -4 48 7 94 24 127 50 251 89 260 83 5
-3 6 -12 2 -22 -5 -13 -4 -14 6 -3 23 22 34 13 47 -43 11 -45 11 -59 -1 -81
-9 -17 -17 -23 -21 -15 -4 6 -2 11 3 11 6 0 11 7 11 16 0 28 -25 8 -28 -22 -5
-56 -12 -71 -37 -82 -21 -10 -25 -17 -20 -34 6 -18 4 -20 -14 -15 -14 3 -21 0
-21 -9 0 -8 5 -14 10 -14 6 0 21 -10 33 -21 l22 -22 -27 5 c-24 5 -28 2 -28
-18 0 -13 -4 -24 -10 -24 -5 0 -13 -18 -16 -39 -5 -33 -11 -40 -35 -45 -16 -3
-29 -12 -29 -20 0 -8 -8 -19 -17 -25 -10 -5 -15 -13 -11 -16 4 -4 23 3 43 15
28 18 34 25 23 32 -9 7 -8 8 6 4 11 -4 22 -2 25 3 16 24 445 268 511 290 348
112 452 139 648 166 181 26 284 54 341 94 56 38 128 63 225 77 112 15 157 25
231 47 73 23 145 32 145 18 0 -6 6 -8 14 -5 37 14 226 -43 226 -68 0 -10 -90
-9 -155 1 -49 8 -165 -6 -165 -21 0 -4 -17 -10 -37 -14 -21 -4 -43 -13 -50
-19 -6 -7 -33 -16 -59 -20 -26 -4 -53 -13 -61 -21 -8 -8 -25 -14 -38 -14 -13
0 -27 -5 -31 -11 -3 -6 -15 -9 -25 -6 -11 3 -19 0 -19 -6 0 -7 -24 -23 -53
-36 -28 -13 -60 -28 -69 -32 -10 -5 -25 -9 -34 -9 -10 0 -42 -12 -73 -27 -31
-15 -76 -27 -99 -28 -24 -1 -47 -6 -50 -12 -4 -5 -27 -8 -52 -8 -25 1 -55 -4
-67 -11 -12 -8 -45 -14 -72 -14 -28 0 -76 -7 -108 -16 -32 -9 -73 -19 -90 -21
-18 -3 -33 -9 -33 -13 0 -5 10 -6 23 -3 18 4 16 2 -7 -11 -15 -9 -39 -16 -52
-16 -15 0 -24 -6 -24 -15 0 -8 -4 -15 -10 -15 -5 0 -10 7 -10 15 0 18 -50 21
-68 3 -9 -9 -12 -8 -12 6 0 10 -5 14 -11 10 -6 -3 -9 -15 -6 -25 7 -24 -21
-26 -30 -1 -4 9 -14 24 -22 32 -16 16 -16 17 5 -34 6 -17 -52 -46 -91 -46 -12
0 -34 -12 -48 -26 -14 -14 -31 -23 -37 -19 -7 4 -14 -2 -17 -14 -3 -13 -14
-21 -27 -21 -25 -1 -56 -22 -56 -39 0 -6 -11 -16 -25 -21 -14 -5 -25 -14 -25
-20 0 -5 -6 -10 -12 -10 -7 0 -27 -14 -45 -30 -18 -17 -40 -30 -50 -30 -10 0
-24 -9 -31 -21 -9 -13 -19 -18 -32 -14 -20 6 -95 -29 -95 -45 0 -6 -11 -16
-25 -23 -17 -9 -28 -25 -34 -53 -8 -34 -15 -43 -42 -53 -18 -7 -36 -21 -39
-31 -5 -15 -15 -20 -40 -20 -20 0 -38 -6 -42 -15 -8 -13 -14 -12 -48 5 -23 12
-41 16 -43 10 -2 -5 -12 -10 -22 -10 -29 0 -50 -11 -50 -26 0 -8 -8 -14 -18
-14 -30 0 -77 -69 -105 -152 -4 -10 -16 -18 -27 -18 -12 0 -20 -7 -20 -16 0
-9 -6 -14 -12 -11 -7 2 -19 -5 -25 -17 l-13 -21 -5 20 c-5 16 -15 21 -41 21
-30 0 -34 -3 -34 -27 0 -44 -9 -56 -35 -52 -18 4 -27 -2 -40 -26 -9 -19 -20
-29 -27 -25 -7 4 -8 3 -4 -4 3 -6 -3 -16 -15 -22 -16 -9 -20 -19 -17 -42 3
-19 0 -32 -9 -35 -7 -3 -11 -9 -8 -13 3 -5 -2 -16 -11 -25 -23 -23 -113 -17
-128 8 -15 25 16 42 73 38 l44 -3 -26 32 c-15 17 -27 37 -27 43 0 16 -81 97
-97 97 -7 0 -13 5 -13 11 0 13 -41 47 -88 72 -28 15 -39 16 -62 7 -41 -17
-114 -9 -118 12 -3 17 10 26 62 42 15 5 16 9 6 21 -7 8 -17 12 -22 9 -6 -4
-38 -9 -71 -11 -33 -2 -70 -9 -81 -15 -10 -6 -41 -10 -67 -9 l-49 1 22 -25
c18 -21 28 -24 65 -20 68 6 77 -1 48 -39 -14 -18 -25 -37 -25 -42 0 -5 18 -27
40 -49 62 -62 118 -124 123 -138 2 -6 28 -21 56 -32 28 -11 51 -25 51 -31 0
-7 7 -14 15 -18 8 -3 15 -2 15 2 0 9 252 6 281 -3 20 -7 20 -7 2 -20 -10 -7
-33 -16 -51 -20 -18 -3 -45 -13 -61 -21 -24 -12 -51 -17 -128 -23 -18 -1 -16
-28 3 -35 30 -12 80 -6 222 26 119 26 142 34 142 49 0 11 -14 26 -32 36 l-33
18 65 6 c53 4 69 2 85 -11 11 -10 30 -23 43 -29 12 -6 22 -16 22 -21 0 -5 12
-21 27 -36 20 -20 40 -29 73 -32 42 -4 158 15 237 39 27 9 41 6 95 -21 60 -30
67 -31 140 -25 l77 7 47 -36 c26 -20 58 -39 71 -42 24 -6 400 81 416 96 24 22
-30 16 -214 -25 -198 -43 -204 -44 -233 -27 -41 24 -45 42 -9 42 46 0 221 49
277 77 28 14 64 36 79 49 16 13 36 24 46 24 54 0 417 127 541 190 33 16 72 30
88 30 34 0 196 24 302 44 151 30 245 38 286 27 22 -6 65 -11 96 -11 31 0 110
-13 175 -29 65 -16 141 -32 168 -36 28 -3 68 -12 90 -20 59 -21 354 -103 475
-132 94 -23 131 -26 354 -30 163 -3 277 -1 330 7 l80 12 27 -33 c49 -60 20
-84 -111 -93 -228 -16 -315 -16 -472 -1 -127 12 -181 13 -234 5 -38 -6 -96
-15 -129 -19 -33 -5 -76 -15 -95 -24 -119 -51 -140 -61 -140 -69 0 -4 -8 -8
-19 -8 -10 0 -24 -7 -31 -15 -7 -8 -18 -15 -24 -15 -17 0 -139 -94 -170 -130
-14 -17 -30 -49 -37 -72 -11 -43 -35 -83 -81 -133 -28 -31 -62 -115 -47 -115
5 0 9 -27 9 -59 0 -33 5 -61 11 -63 10 -3 17 -25 18 -59 1 -9 12 -33 26 -53
21 -31 22 -35 6 -26 -11 5 -23 10 -27 10 -11 0 38 -44 51 -46 5 0 16 -2 23 -2
6 -1 12 -8 12 -14 0 -7 24 -29 52 -48 154 -103 165 -147 45 -176 -15 -3 -30
-10 -33 -15 -3 -5 -16 -9 -30 -9 -21 0 -24 -4 -24 -40 0 -29 4 -40 15 -40 12
0 15 -13 15 -55 l0 -55 43 0 c33 0 49 -6 67 -25 13 -14 32 -25 42 -25 11 0 31
-13 45 -30 31 -38 43 -38 43 0 0 17 5 30 10 30 6 0 10 -17 10 -38 0 -34 -4
-40 -35 -55 -20 -9 -42 -17 -50 -17 -8 0 -15 -4 -15 -10 0 -5 -6 -10 -14 -10
-7 0 -19 -7 -26 -15 -7 -8 -20 -15 -29 -15 -10 0 -45 -13 -79 -30 -34 -16 -71
-30 -82 -30 -11 0 -44 -11 -74 -25 -30 -14 -63 -25 -73 -25 -10 0 -31 -9 -48
-20 -16 -11 -40 -20 -52 -20 -13 0 -23 -5 -23 -11 0 -5 -4 -8 -9 -5 -5 4 -11
1 -13 -5 -2 -7 -17 -13 -33 -14 -44 -3 -85 -16 -85 -26 0 -5 -6 -9 -13 -9 -18
0 -67 -24 -67 -32 0 -5 -19 -8 -42 -8 -24 0 -56 -7 -72 -15 -16 -9 -31 -13
-34 -10 -3 3 -12 -5 -20 -16 -11 -15 -22 -20 -41 -16 -15 3 -43 -2 -66 -13
-22 -11 -48 -19 -57 -20 -10 0 -18 -7 -18 -15 0 -9 -9 -15 -24 -15 -13 0 -26
-6 -29 -12 -3 -10 -7 -10 -20 1 -10 7 -17 9 -17 4 0 -11 -79 -33 -123 -34 -29
0 -84 -17 -62 -18 5 -1 -1 -8 -14 -17 -18 -13 -25 -14 -31 -4 -6 9 -12 9 -31
-1 -13 -7 -25 -11 -27 -10 -6 5 -72 -12 -72 -19 0 -4 -14 -10 -31 -14 -17 -3
-28 -10 -24 -16 3 -6 -4 -9 -17 -8 -38 3 -128 -25 -128 -39 0 -7 -11 -13 -25
-13 -25 0 -107 -38 -113 -52 -2 -4 -8 -8 -13 -8 -6 0 -7 5 -4 10 9 15 -1 12
-37 -10 -18 -11 -45 -20 -60 -20 -16 0 -28 -5 -28 -11 0 -6 -7 -8 -17 -5 -9 4
-20 1 -24 -5 -4 -7 -23 -12 -42 -11 -21 1 -55 -9 -82 -23 -25 -14 -57 -25 -70
-25 -13 0 -30 -7 -39 -15 -8 -8 -21 -15 -29 -15 -20 0 -45 -29 -26 -31 8 -1
-14 -5 -49 -9 -45 -5 -68 -13 -83 -29 -11 -11 -25 -21 -32 -21 -8 0 -7 4 3 10
8 5 12 11 9 15 -8 8 -71 -15 -93 -34 -14 -12 -20 -13 -23 -4 -3 8 -10 9 -21 3
-9 -5 -36 -17 -60 -26 -23 -10 -42 -21 -42 -24 0 -3 -19 -7 -42 -7 -24 -1 -47
-8 -53 -16 -5 -7 -19 -14 -30 -14 -24 -1 -198 -63 -205 -73 -3 -4 -12 -7 -22
-7 -26 0 -132 -35 -140 -47 -4 -6 -15 -12 -25 -13 -25 -3 -43 -8 -76 -21 -16
-7 -37 -12 -48 -12 -28 0 -61 -19 -54 -31 4 -5 0 -9 -9 -9 -8 0 -16 -3 -19 -7
-2 -5 -2 -2 -1 4 4 17 -7 16 -34 -3 -13 -9 -30 -13 -39 -10 -11 5 -14 2 -9
-10 3 -8 6 -20 6 -25 0 -5 264 -9 655 -9 576 0 655 2 655 15 0 9 9 15 23 15
12 0 31 7 42 16 11 8 38 19 60 25 22 6 45 16 50 22 14 16 82 47 104 47 18 0
73 20 118 42 12 6 34 10 50 10 15 0 48 9 73 20 70 32 90 38 90 29 0 -14 41 0
47 15 3 8 20 14 39 14 19 0 34 4 34 9 0 5 24 16 53 26 28 9 66 23 82 30 17 7
75 28 130 46 55 17 108 36 117 40 10 5 27 9 38 9 11 0 20 4 20 9 0 14 58 26
107 22 25 -2 59 5 87 18 25 11 46 16 46 10 0 -14 17 -11 34 6 8 8 29 15 47 15
18 0 51 9 74 20 29 14 66 21 118 23 68 2 80 5 100 27 21 25 83 50 123 50 11 0
32 7 48 15 15 8 41 15 58 15 16 0 46 9 68 20 22 11 56 20 77 20 41 0 133 29
133 42 0 4 7 8 16 8 8 0 22 7 30 15 20 19 34 19 34 0 0 -8 9 -15 20 -15 11 0
19 5 17 11 -2 9 74 42 120 52 7 2 16 6 19 10 4 4 38 7 76 7 40 0 68 4 68 10 0
18 53 33 108 31 35 -1 52 2 52 10 0 9 39 11 160 6 133 -4 160 -3 160 9 0 11
-18 14 -80 14 -47 0 -80 4 -80 10 0 6 43 10 108 10 59 0 131 3 160 6 44 6 52
4 52 -10 0 -12 -10 -16 -40 -16 -29 0 -40 -4 -40 -15 0 -11 11 -15 40 -15 29
0 40 4 40 15 0 11 11 15 40 15 22 0 40 5 40 10 0 6 18 10 40 10 22 0 40 -4 40
-10 0 -5 -18 -10 -40 -10 l-40 0 0 -40 0 -40 80 0 80 0 0 -30 c0 -28 2 -30 40
-30 36 0 40 -2 40 -25 l0 -25 280 0 c180 0 280 -4 280 -10 0 -5 18 -10 40 -10
23 0 40 -5 40 -11 0 -24 87 -99 114 -99 14 0 25 -5 23 -11 -1 -6 4 -14 11 -16
16 -6 18 3712 1 3722 -5 4 -58 -4 -117 -18 -119 -28 -277 -47 -392 -47 -74 0
-150 -14 -150 -28 0 -4 -35 -8 -77 -8 -58 -1 -79 -6 -88 -18 -17 -23 -73 -3
-81 30 -4 14 -13 24 -25 24 -10 0 -24 8 -31 19 -12 17 -68 51 -84 51 -14 0 31
-42 68 -62 21 -12 38 -25 38 -29 0 -4 3 -15 7 -25 4 -11 3 -15 -4 -11 -6 4
-13 -2 -16 -12 -5 -22 -89 -56 -114 -47 -17 7 -17 8 0 20 9 7 17 18 17 25 0
20 -28 12 -48 -14 -11 -14 -30 -25 -42 -25 -18 0 -20 3 -11 13 12 15 -3 37
-25 37 -7 0 -14 5 -16 10 -2 6 -35 11 -75 12 -40 1 -67 6 -60 10 7 4 -6 8 -29
8 -22 0 -45 5 -52 12 -9 9 -18 6 -38 -13 -26 -23 -26 -23 -20 -2 8 26 -9 39
-29 23 -12 -10 -15 -9 -15 3 0 17 -21 27 -56 27 -15 0 -24 6 -24 15 0 8 -6 15
-14 15 -7 0 -20 9 -27 21 -15 22 -17 22 -244 64 -71 13 -168 33 -214 45 -68
17 -86 19 -92 8 -5 -7 -9 -16 -9 -19 0 -9 93 -39 118 -39 11 0 30 -9 43 -20
20 -16 21 -21 10 -29 -8 -5 -11 -16 -8 -25 4 -9 2 -16 -2 -16 -5 0 -11 4 -13
10 -2 8 -140 45 -240 65 -34 7 -37 36 -6 50 37 16 34 42 -4 50 -127 24 -215
49 -230 66 -9 10 -19 19 -22 19 -3 0 -15 9 -26 20 -11 11 -29 20 -39 20 -11 0
-22 4 -25 9 -3 5 -21 12 -40 15 -19 4 -54 17 -79 31 -25 13 -78 28 -117 34
-65 9 -79 7 -148 -15 -43 -14 -84 -32 -93 -40 -8 -8 -21 -14 -27 -14 -7 0 -20
-4 -30 -10 -9 -5 -53 -24 -97 -41 -44 -18 -82 -35 -85 -38 -7 -8 -71 -38 -97
-46 -12 -3 -25 -15 -28 -26 -7 -21 -31 -26 -38 -6 -3 9 -8 8 -18 -4 -9 -11
-38 -19 -81 -23 -80 -8 -98 -13 -98 -32 0 -8 -9 -14 -20 -14 -11 0 -20 -4 -20
-8 0 -5 -18 -15 -40 -22 -22 -7 -40 -17 -40 -21 0 -4 -21 -11 -47 -15 -27 -3
-77 -20 -113 -38 -36 -17 -70 -31 -76 -31 -6 0 -24 -7 -38 -15 -22 -11 -31
-12 -46 -2 -12 7 -21 8 -25 2 -13 -20 -24 -9 -33 33 -10 48 -6 67 14 67 8 0
14 5 14 10 0 6 7 10 15 10 8 0 15 4 15 9 0 15 227 109 450 186 74 26 152 56
172 66 33 17 130 91 167 127 8 7 24 20 37 29 25 16 32 33 13 33 -7 0 -18 8
-25 18 -9 11 -13 12 -14 4 0 -9 -5 -10 -19 -2 -23 12 -26 12 -34 4z m1763
-488 c0 -2 -7 -6 -15 -10 -8 -3 -15 -1 -15 4 0 6 7 10 15 10 8 0 15 -2 15 -4z
m-25 -36 c3 -6 -1 -7 -9 -4 -18 7 -21 14 -7 14 6 0 13 -4 16 -10z m-2556 -60
c8 -24 7 -30 -5 -30 -9 0 -14 10 -14 30 0 17 2 30 4 30 2 0 9 -13 15 -30z
m-135 -16 c3 -8 2 -12 -4 -9 -6 3 -10 10 -10 16 0 14 7 11 14 -7z m-111 -19
c13 0 9 -20 -8 -30 -11 -7 -18 -6 -24 4 -12 18 -2 43 13 34 6 -4 14 -8 19 -8z
m3839 -25 c7 -11 18 -20 25 -20 7 0 13 -8 13 -18 0 -9 9 -23 20 -30 11 -7 20
-16 20 -21 0 -14 -37 -1 -56 20 -9 10 -23 19 -30 19 -7 0 -10 8 -7 19 3 13 -2
21 -16 26 -12 3 -19 11 -16 16 10 15 34 10 47 -11z m-156 -5 c-35 -18 -36 -18
-36 0 0 10 10 15 33 15 l32 0 -29 -15z m301 9 c-3 -3 -12 -4 -19 -1 -8 3 -5 6
6 6 11 1 17 -2 13 -5z m-1275 -18 c8 -7 34 -16 59 -20 26 -4 55 -14 65 -22 18
-15 18 -15 -1 -11 -125 31 -210 67 -158 67 12 0 28 -6 35 -14z m-2702 -47 c0
-11 -4 -17 -10 -14 -5 3 -10 13 -10 21 0 8 5 14 10 14 6 0 10 -9 10 -21z
m3510 11 c0 -5 -2 -10 -4 -10 -3 0 -8 5 -11 10 -3 6 -1 10 4 10 6 0 11 -4 11
-10z m205 -10 c3 -5 -3 -10 -14 -10 -12 0 -21 5 -21 10 0 6 6 10 14 10 8 0 18
-4 21 -10z m-821 -9 c3 -5 0 -11 -8 -14 -8 -3 -17 1 -20 9 -6 15 19 20 28 5z
m172 -8 c0 -13 -8 -18 -28 -17 -44 2 -45 5 -8 19 19 7 35 14 35 14 1 1 1 -7 1
-16z m-86 -3 c-20 -13 -50 -13 -50 0 0 6 15 10 33 10 24 0 28 -3 17 -10z m203
2 c42 -3 22 -22 -23 -22 -44 0 -72 9 -65 20 2 4 17 6 32 5 15 -1 41 -3 56 -3z
m-1565 -376 c-2 -11 -12 -22 -23 -25 -11 -2 -33 -13 -49 -24 -18 -13 -48 -22
-75 -23 -26 -1 -59 -7 -76 -12 -110 -36 -235 -72 -260 -76 -79 -12 -131 -28
-149 -45 -12 -11 -41 -25 -66 -31 -25 -7 -52 -17 -60 -24 -8 -7 -32 -21 -53
-31 -22 -11 -50 -30 -63 -42 -14 -13 -27 -23 -30 -23 -3 0 -20 -11 -38 -25
-18 -14 -42 -25 -52 -25 -23 0 -57 -22 -124 -80 -19 -16 -50 -35 -70 -41 -19
-6 -42 -21 -52 -32 -14 -18 -20 -19 -42 -9 -16 7 -26 8 -26 2 0 -6 -12 -15
-26 -20 -59 -23 -134 -60 -134 -67 0 -12 -58 -35 -69 -29 -5 4 -11 2 -13 -4
-1 -5 -21 -11 -43 -13 -22 -1 -46 -8 -53 -14 -7 -7 -26 -13 -42 -13 -27 0 -54
-18 -125 -83 -16 -16 -43 -35 -59 -43 -22 -12 -27 -21 -23 -40 5 -31 -20 -32
-56 -4 -21 17 -27 31 -29 73 -3 47 -5 52 -33 62 -54 18 -60 47 -14 71 31 16
32 15 60 -15 34 -37 47 -38 93 -8 19 13 86 50 150 81 64 32 116 63 116 69 0 6
-9 20 -20 32 l-19 21 64 32 c63 32 66 33 124 21 59 -11 59 -11 127 27 38 21
85 46 104 56 19 10 58 32 85 48 28 16 60 33 73 39 13 6 30 18 38 26 9 8 21 15
29 15 7 0 41 16 75 35 34 19 65 35 70 35 4 0 13 6 19 14 35 42 376 139 631
180 14 2 67 4 118 4 89 0 93 -1 90 -22z m-2783 -656 c4 -6 -5 -10 -19 -10 -14
0 -26 5 -26 10 0 6 9 10 19 10 11 0 23 -4 26 -10z m-67 -82 c17 -17 -4 -38
-39 -38 -35 0 -46 17 -23 35 23 18 46 19 62 3z m821 -47 c23 -15 5 -39 -34
-47 -28 -5 -41 -2 -53 10 -16 16 -16 18 2 32 22 16 64 18 85 5z m-62 -118 c5
-14 -69 -38 -91 -30 -24 9 -19 35 7 40 37 8 80 3 84 -10z m608 -2273 c3 -6 -4
-10 -17 -10 -18 0 -20 2 -8 10 19 12 18 12 25 0z"/>
<path d="M3709 4589 c-14 -30 -40 -81 -57 -114 -101 -191 -117 -243 -120 -380
-1 -50 -4 -119 -6 -154 -5 -69 8 -96 42 -89 14 3 18 20 24 116 4 72 12 125 23
148 16 34 24 71 45 200 5 33 26 108 45 167 20 58 35 118 33 133 -3 23 -6 21
-29 -27z"/>
<path d="M9957 4343 c-4 -3 -7 -15 -7 -25 0 -13 7 -18 25 -18 20 0 25 5 25 25
0 18 -5 25 -18 25 -10 0 -22 -3 -25 -7z"/>
<path d="M2636 4251 c-12 -19 32 -31 101 -29 37 2 205 -1 373 -6 168 -4 302
-5 298 0 -4 4 -44 8 -88 10 -157 6 -526 24 -601 30 -49 4 -79 2 -83 -5z"/>
<path d="M5408 4133 c7 -3 16 -2 19 1 4 3 -2 6 -13 5 -11 0 -14 -3 -6 -6z"/>
<path d="M5312 4033 c-34 -37 -59 -70 -56 -72 5 -6 54 48 54 60 0 5 5 9 11 9
6 0 9 -9 6 -19 -3 -13 1 -21 15 -24 12 -4 18 -1 15 6 -15 40 -17 56 -7 62 5 3
10 0 10 -8 0 -19 26 -40 39 -32 7 4 3 14 -9 27 -22 24 -26 38 -10 38 6 0 10 5
10 10 0 22 -21 7 -78 -57z"/>
<path d="M5864 3929 c-3 -6 0 -15 7 -20 19 -12 49 -11 49 1 0 6 8 10 18 10 14
0 15 2 2 10 -20 13 -67 13 -76 -1z"/>
<path d="M5790 3880 c0 -11 6 -20 14 -20 9 0 12 7 9 20 -3 11 -9 20 -14 20 -5
0 -9 -9 -9 -20z"/>
<path d="M5089 3865 c-67 -50 -139 -129 -163 -179 -22 -48 -42 -126 -32 -126
6 0 115 145 150 200 15 25 44 64 63 88 39 48 33 54 -18 17z"/>
<path d="M0 3340 l0 -370 108 -111 c130 -135 213 -221 357 -375 61 -65 131
-138 156 -163 25 -25 49 -54 52 -63 3 -9 23 -22 44 -28 29 -9 64 -40 153 -137
63 -68 127 -136 143 -151 15 -14 27 -31 27 -39 0 -7 6 -13 14 -13 17 0 66 -63
66 -85 0 -9 5 -13 11 -9 12 7 68 -53 69 -73 0 -7 7 -13 15 -13 8 0 22 -11 31
-25 9 -14 20 -22 25 -19 5 3 9 -6 9 -20 0 -15 6 -26 13 -26 15 0 47 -35 47
-53 0 -8 4 -7 10 3 8 13 10 13 10 -1 0 -19 45 -71 54 -62 3 3 9 -3 13 -13 3
-10 9 -21 12 -24 25 -21 60 -74 55 -82 -4 -7 -2 -8 4 -4 17 10 76 -50 68 -70
-4 -12 -2 -15 9 -10 8 3 15 0 15 -6 0 -6 2 -9 5 -6 8 7 135 -118 135 -132 0
-7 7 -10 15 -6 12 4 14 0 9 -19 -5 -20 -3 -24 10 -19 10 4 19 -2 27 -18 6 -14
24 -32 40 -42 16 -9 29 -22 29 -28 0 -6 37 -48 83 -93 45 -45 94 -94 108 -111
14 -16 63 -65 108 -109 44 -44 81 -85 81 -92 0 -7 7 -10 17 -6 12 5 15 2 10
-10 -3 -9 -2 -17 3 -17 14 0 570 -568 570 -582 0 -4 93 -8 208 -7 164 0 203 3
188 12 -38 24 -103 93 -129 137 -34 58 -207 574 -207 614 1 38 14 56 68 89 25
17 42 35 42 46 0 16 -9 20 -57 23 -32 2 -88 -2 -126 -9 -105 -21 -127 -10
-141 71 -4 21 -12 46 -17 55 -5 9 -20 48 -34 86 -22 65 -24 67 -25 33 0 -37
18 -104 45 -163 22 -51 37 -110 33 -135 -3 -23 -3 -23 -17 6 -7 16 -17 37 -22
46 -5 10 -9 27 -9 37 0 11 -5 33 -11 48 -27 65 -16 35 -151 441 -45 133 -83
241 -85 238 -2 -2 0 -21 5 -43 6 -21 21 -83 33 -138 13 -55 27 -102 30 -105 4
-3 12 -31 18 -64 6 -32 18 -72 26 -89 8 -16 15 -38 15 -47 0 -9 3 -20 7 -24 4
-3 8 -17 10 -29 2 -12 10 -41 19 -65 9 -24 14 -52 11 -63 -3 -10 -2 -19 3 -19
4 0 12 -18 18 -40 12 -48 4 -51 -25 -7 -24 35 -29 48 -109 292 -31 94 -71 213
-89 265 -18 52 -45 132 -60 178 -15 46 -29 81 -32 78 -3 -2 0 -19 6 -38 11
-35 33 -113 76 -273 14 -55 30 -109 35 -120 20 -47 70 -253 70 -287 0 -39 -7
-44 -44 -29 -13 5 -16 10 -8 15 14 8 -5 56 -23 56 -20 0 -25 -12 -12 -29 23
-30 -23 9 -95 80 -38 37 -68 62 -68 55 0 -6 10 -45 21 -86 33 -123 47 -194 58
-294 12 -104 13 -151 4 -126 -4 8 -14 21 -25 28 -10 7 -18 20 -18 28 0 8 -4
12 -10 9 -5 -3 -10 -3 -10 2 0 4 -11 20 -24 35 -13 15 -34 60 -46 100 -20 63
-25 70 -31 48 -4 -16 -7 -19 -8 -8 -1 10 -6 17 -13 15 -6 -1 -21 28 -33 68
-14 47 -27 71 -39 73 -12 3 -15 9 -10 25 3 12 7 24 7 27 2 10 -34 196 -44 228
-6 17 -17 32 -25 32 -10 0 -12 10 -8 43 3 28 -1 58 -14 91 l-19 49 -13 -39
c-7 -21 -15 -33 -17 -26 -3 6 -9 10 -14 6 -5 -3 -14 8 -20 25 -6 17 -15 29
-20 26 -4 -3 -5 17 -2 45 6 53 4 56 -28 39 -15 -7 -24 -7 -35 2 -16 13 -16 14
-16 -59 0 -52 16 -87 33 -76 5 3 9 -7 9 -21 0 -17 -4 -24 -11 -19 -16 9 -2
-156 18 -214 15 -45 14 -98 -1 -57 -4 11 -19 47 -32 80 -13 33 -24 70 -24 82
0 34 -40 197 -50 207 -6 6 -10 31 -10 56 0 58 -20 160 -31 160 -4 0 -13 18
-20 39 -12 39 -12 39 -35 24 -13 -8 -24 -20 -24 -27 0 -6 -15 -29 -33 -50 -38
-45 -67 -45 -67 0 0 33 21 94 32 94 4 0 8 18 8 40 0 60 -29 54 -60 -13 -14
-30 -36 -62 -49 -72 -23 -17 -24 -17 -35 1 -22 39 -37 91 -46 169 -13 106 -31
195 -40 195 -7 0 -24 -31 -34 -64 -5 -15 -4 -16 7 -8 20 17 41 -89 31 -154 -4
-27 -10 -41 -12 -31 -4 18 -5 17 -18 -2 -22 -31 -48 -28 -41 5 7 38 -13 94
-34 94 -10 0 -21 -4 -24 -10 -14 -22 -22 -8 -19 33 4 72 24 129 51 153 18 16
24 27 19 41 -7 17 -9 16 -27 -7 -11 -14 -27 -33 -35 -43 -7 -9 -14 -21 -14
-26 0 -5 -7 -14 -16 -22 -12 -10 -20 -10 -35 -1 -25 16 -49 15 -49 -1 0 -11
-58 -37 -82 -37 -3 0 -13 18 -23 40 -21 46 -17 136 8 191 45 98 55 159 37 233
-13 58 -30 71 -73 57 -30 -10 -40 -23 -75 -94 -42 -86 -92 -147 -120 -147 -9
0 -70 55 -137 123 -138 142 -147 160 -135 303 5 69 11 88 39 130 29 43 32 55
27 94 -13 93 -84 200 -148 220 -74 24 -93 43 -107 106 -15 65 -24 83 -63 128
-16 17 -28 34 -28 38 0 4 -11 19 -25 34 -14 15 -25 35 -25 45 0 11 -7 19 -15
19 -8 0 -15 4 -15 9 0 12 -59 71 -71 71 -5 0 -9 -151 -9 -370z m2785 -2834
c20 -56 45 -123 56 -150 11 -27 22 -66 25 -86 5 -32 3 -38 -15 -43 -16 -4 -21
-13 -21 -35 0 -57 -21 -47 -119 56 -151 158 -162 172 -156 196 13 44 30 72 74
118 39 41 50 48 82 46 l38 -1 36 -101z"/>
<path d="M5187 3603 c-20 -14 -35 -28 -33 -31 3 -2 24 10 48 27 23 17 38 31
32 31 -5 0 -26 -12 -47 -27z"/>
<path d="M5120 3549 c0 -5 5 -7 10 -4 6 3 10 8 10 11 0 2 -4 4 -10 4 -5 0 -10
-5 -10 -11z"/>
<path d="M2113 3460 c-21 -9 -22 -11 -9 -52 25 -82 47 -116 77 -120 46 -7 52
37 18 127 -22 58 -35 65 -86 45z"/>
<path d="M4960 3450 c0 -18 3 -19 21 -9 17 9 19 13 8 20 -22 14 -29 11 -29
-11z"/>
<path d="M1210 3300 c0 -5 -6 -9 -12 -7 -8 1 -15 -14 -19 -38 -6 -46 -30 -105
-41 -105 -5 0 -22 -15 -38 -32 -23 -26 -29 -42 -30 -78 0 -57 23 -94 53 -84
32 10 34 17 42 117 6 77 11 94 32 115 17 17 23 32 20 48 -2 13 0 24 4 24 5 0
9 -7 9 -15 0 -8 5 -15 10 -15 15 0 12 49 -4 66 -17 16 -26 18 -26 4z"/>
<path d="M4595 3254 c-27 -8 -75 -19 -105 -25 -97 -18 -95 -16 -60 -55 16 -19
30 -38 30 -42 0 -13 69 -54 79 -47 19 11 12 34 -15 52 -24 15 -25 18 -9 29 9
7 36 16 58 19 23 4 48 12 55 18 7 6 25 12 38 13 37 4 57 23 43 40 -14 17 -49
17 -114 -2z"/>
<path d="M3730 3141 c-30 -10 -74 -27 -97 -39 -23 -12 -50 -22 -60 -22 -10 0
-13 -3 -8 -9 6 -5 36 -5 70 0 33 5 88 12 122 17 69 9 78 14 70 36 -12 30 -40
35 -97 17z"/>
<path d="M3835 2974 c-38 -13 -101 -33 -140 -43 -66 -17 -68 -18 -38 -25 39
-9 100 -2 221 26 90 21 105 31 80 56 -18 18 -45 15 -123 -14z"/>
<path d="M4015 2815 c-44 -12 -119 -33 -167 -46 -168 -45 -80 -54 131 -12 75
14 140 30 146 35 6 5 2 15 -10 27 -19 17 -22 17 -100 -4z"/>
<path d="M3548 2805 c-5 -5 -92 -25 -236 -54 -100 -21 -113 -26 -85 -33 27 -7
336 56 340 69 4 12 -11 26 -19 18z"/>
<path d="M2952 2730 c-103 -22 -118 -35 -30 -25 85 8 121 18 126 33 4 14 9 15
-96 -8z"/>
<path d="M5006 2635 c9 -14 20 -25 24 -25 4 0 35 -27 68 -61 71 -71 49 -70
279 -14 153 37 181 52 151 81 -11 11 -34 8 -123 -12 -60 -13 -117 -26 -125
-29 -70 -22 -114 -26 -136 -15 -13 7 -21 17 -18 22 3 4 0 8 -6 8 -5 0 -33 16
-60 35 -59 41 -77 45 -54 10z"/>
<path d="M4175 2625 c-55 -12 -127 -30 -160 -39 -32 -9 -68 -16 -80 -16 -11 0
-27 -5 -35 -10 -13 -9 -13 -11 0 -20 26 -17 84 -11 230 24 143 34 184 53 158
73 -9 7 -44 3 -113 -12z"/>
<path d="M3535 2589 c-93 -21 -183 -39 -198 -39 -35 0 -32 -23 3 -28 33 -5
346 58 367 74 44 32 -8 30 -172 -7z"/>
<path d="M4780 2589 c-156 -55 -239 -72 -260 -55 -36 31 -42 26 -10 -8 38 -41
41 -42 200 -20 43 5 46 4 65 -28 11 -18 22 -42 25 -53 4 -14 18 -22 44 -26 20
-3 44 -13 53 -21 13 -14 12 -16 -12 -22 -15 -4 -34 -13 -41 -21 -8 -8 -35 -17
-61 -21 l-48 -7 -60 67 c-58 62 -75 76 -75 59 0 -5 34 -44 74 -88 l74 -80 65
0 c36 0 63 3 60 8 -2 4 3 7 11 7 16 0 22 -28 17 -75 -3 -29 20 -67 36 -60 8 3
11 0 7 -6 -3 -6 4 -21 17 -35 12 -13 18 -24 13 -24 -5 0 -43 34 -84 75 -50 50
-78 71 -84 65 -7 -7 19 -40 79 -101 l90 -90 55 6 c30 4 73 13 95 20 22 7 60
16 85 19 l45 5 -50 -15 c-27 -8 -74 -21 -103 -30 -45 -13 -52 -18 -47 -35 4
-11 2 -19 -4 -19 -22 0 -10 -33 22 -63 156 -151 167 -159 200 -151 18 4 48 7
68 6 22 -1 41 4 49 13 7 8 27 15 44 15 17 0 56 7 86 15 30 8 62 15 70 14 20 0
-180 -68 -203 -69 -30 0 -65 -30 -72 -60 -6 -27 8 -43 192 -229 109 -110 214
-218 234 -240 32 -37 40 -41 81 -41 25 0 104 17 174 39 71 21 154 44 184 51
76 18 90 26 90 57 0 20 -17 44 -68 92 -93 91 -205 195 -287 267 -39 34 -88 78
-110 98 -38 34 -57 41 -98 36 -16 -1 -18 3 -13 27 4 18 1 36 -8 48 -13 18 -18
18 -48 7 -47 -17 -61 -15 -75 7 -10 15 -10 21 0 24 7 3 2 6 -10 6 -23 1 -33
21 -11 21 6 0 8 3 5 6 -4 4 -13 1 -22 -6 -13 -11 -15 -9 -15 11 0 18 -3 20
-12 11 -20 -20 -31 -14 -26 13 3 14 1 28 -5 32 -5 3 -7 2 -4 -3 12 -21 -12
-38 -50 -36 -59 4 -73 11 -73 37 0 31 36 42 95 28 39 -9 42 -8 37 9 -3 11 -10
17 -18 14 -8 -3 -14 -1 -14 4 0 6 -7 10 -16 10 -9 0 -14 8 -13 18 3 34 -1 53
-14 58 -7 2 -52 43 -100 90 -80 79 -89 85 -118 79 -29 -7 -30 -6 -17 15 12 20
7 27 -79 111 -66 63 -99 89 -117 89 -17 0 -26 6 -28 21 -2 12 -12 28 -23 35
-17 11 -35 8 -135 -27z m187 -75 c4 -14 -90 -39 -107 -29 -17 11 -11 23 18 34
34 12 84 10 89 -5z m208 -203 c-3 -5 5 -11 17 -13 42 -6 28 -25 -27 -37 -31
-7 -59 -10 -62 -7 -4 3 1 6 10 6 10 0 17 8 17 19 0 17 -4 18 -30 11 -16 -5
-30 -5 -30 -1 0 5 19 13 43 18 56 14 69 15 62 4z m-45 -166 c14 -17 7 -19 -20
-5 -15 8 -21 6 -30 -10 -13 -25 -80 -29 -80 -5 0 17 16 20 25 5 9 -15 25 -12
25 4 0 27 60 35 80 11z m224 -248 c-3 -8 7 -17 23 -23 27 -10 25 -11 -28 -18
-30 -4 -66 -6 -80 -4 -23 3 -22 4 16 31 42 29 78 36 69 14z m730 -467 c-6 -6
-28 -13 -50 -15 -21 -2 -30 -2 -19 1 11 3 24 10 30 15 13 13 52 12 39 -1z
m-101 -7 c2 -5 -7 -18 -20 -30 l-23 -22 0 29 c0 23 5 30 19 30 11 0 22 -3 24
-7z m-133 -133 c0 -5 -7 -10 -15 -10 -8 0 -15 5 -15 10 0 6 7 10 15 10 8 0 15
-4 15 -10z"/>
<path d="M4925 2510 c3 -5 8 -10 11 -10 2 0 4 5 4 10 0 6 -5 10 -11 10 -5 0
-7 -4 -4 -10z"/>
<path d="M5155 2280 c3 -5 12 -7 20 -3 21 7 19 13 -6 13 -11 0 -18 -4 -14 -10z"/>
<path d="M5310 1869 c0 -5 5 -7 10 -4 6 3 10 8 10 11 0 2 -4 4 -10 4 -5 0 -10
-5 -10 -11z"/>
<path d="M5702 2571 c2 -5 59 -55 126 -111 105 -87 130 -103 165 -107 50 -5
416 80 429 99 14 23 4 43 -22 42 -14 0 -59 -10 -100 -22 -41 -11 -130 -35
-197 -52 -144 -37 -127 -41 -281 79 -94 74 -129 95 -120 72z"/>
<path d="M3051 2536 c-87 -18 -101 -23 -89 -34 13 -10 32 -10 103 3 84 14 115
27 115 46 0 12 -5 11 -129 -15z"/>
<path d="M2565 2520 c-3 -5 -1 -10 4 -10 6 0 11 5 11 10 0 6 -2 10 -4 10 -3 0
-8 -4 -11 -10z"/>
<path d="M3950 2472 c0 -12 109 -146 127 -155 19 -12 58 -5 241 39 81 19 154
42 162 49 34 34 -9 33 -180 -6 -239 -53 -236 -53 -295 21 -48 60 -55 67 -55
52z"/>
<path d="M5210 2451 c0 -11 16 -32 38 -47 20 -15 60 -49 87 -75 45 -42 105
-69 105 -48 0 5 20 9 44 9 30 0 46 5 50 15 3 9 18 15 39 15 86 0 227 43 227
70 0 30 -23 28 -191 -15 -95 -25 -187 -45 -203 -45 -21 0 -45 16 -100 70 -75
73 -96 84 -96 51z"/>
<path d="M2600 2436 c0 -8 5 -18 10 -21 6 -3 10 3 10 14 0 12 -4 21 -10 21 -5
0 -10 -6 -10 -14z"/>
<path d="M3839 2425 c-6 -5 -358 -85 -377 -85 -7 0 -25 12 -39 28 l-26 27 24
-42 c32 -57 35 -57 271 -8 153 31 199 50 184 74 -7 11 -29 15 -37 6z"/>
<path d="M2511 2393 c0 -4 4 -17 9 -28 8 -19 9 -19 9 2 1 12 -3 25 -9 28 -5 3
-10 3 -9 -2z"/>
<path d="M2638 2359 c3 -26 11 -43 23 -50 14 -7 19 -21 19 -49 0 -36 14 -60
27 -46 9 8 -7 74 -21 88 -7 8 -18 30 -25 51 -17 50 -27 53 -23 6z"/>
<path d="M6618 2349 c48 -35 50 -41 22 -71 -19 -21 -23 -21 -84 -9 -36 7 -70
10 -76 6 -6 -4 -16 -3 -23 3 -8 5 -21 4 -35 -3 -19 -10 -20 -14 -8 -18 18 -7
22 -27 5 -27 -5 0 -7 5 -4 10 3 6 1 10 -4 10 -6 0 -11 -5 -11 -10 0 -28 -38
-50 -93 -54 -56 -4 -57 -3 -154 65 -53 38 -100 69 -105 69 -4 0 -8 -8 -8 -17
0 -10 37 -48 85 -87 135 -108 162 -126 196 -126 24 0 30 -4 25 -15 -10 -27 5
-44 118 -133 147 -117 155 -122 193 -122 29 0 33 -3 33 -26 0 -32 37 -69 178
-179 137 -107 162 -114 287 -80 28 8 104 26 170 40 150 33 215 53 238 73 20
18 23 42 4 42 -7 0 -20 15 -30 33 -13 24 -63 63 -172 136 -129 86 -160 102
-196 104 -39 2 -43 5 -54 37 -10 28 -35 50 -150 128 -123 84 -141 94 -172 89
-35 -6 -36 -5 -47 43 -4 17 -28 40 -79 73 -82 53 -113 63 -49 16z m297 -269
c-17 -7 -15 -9 13 -9 35 -1 43 -16 13 -26 -23 -7 -69 30 -48 39 22 9 43 5 22
-4z"/>
<path d="M3210 2324 c-52 -12 -107 -23 -122 -23 -34 -1 -36 -18 -5 -32 30 -13
201 21 225 45 30 29 -2 32 -98 10z"/>
<path d="M2550 2308 c0 -2 14 -39 31 -83 29 -76 49 -112 49 -88 0 19 -22 73
-30 73 -4 0 -13 20 -20 45 -7 25 -17 48 -21 51 -5 3 -9 4 -9 2z"/>
<path d="M4120 2259 c0 -17 36 -68 97 -137 l38 -43 85 15 c266 49 332 64 346
77 18 19 8 53 -13 45 -40 -16 -366 -86 -397 -86 -30 0 -41 7 -73 46 -77 95
-82 100 -83 83z"/>
<path d="M5457 2235 c-6 -13 45 -75 61 -75 4 0 30 -21 57 -46 78 -72 81 -73
154 -63 35 5 69 13 75 18 6 4 29 11 51 15 22 3 51 9 65 12 14 4 23 4 20 1 -5
-5 -84 -29 -225 -67 l-30 -8 27 -1 c25 -1 27 -4 22 -29 -4 -21 1 -34 23 -56
15 -16 38 -32 51 -37 12 -5 26 -19 31 -32 5 -12 37 -42 72 -66 54 -37 65 -41
86 -32 13 6 40 11 60 11 20 0 44 6 52 13 16 13 189 52 197 45 2 -2 -38 -16
-89 -31 -183 -53 -200 -60 -185 -71 7 -6 12 -21 10 -33 -4 -25 21 -53 128
-143 36 -30 87 -77 115 -103 27 -27 73 -59 100 -72 61 -28 99 -24 317 33 180
47 209 68 175 128 -11 20 -119 110 -197 164 -19 13 -68 50 -108 82 -64 51 -79
58 -118 58 -39 0 -44 3 -44 23 0 43 -12 62 -58 97 -26 19 -79 61 -119 92 -61
50 -77 58 -113 58 -33 0 -41 3 -36 15 9 24 -12 69 -27 57 -14 -12 -357 -102
-386 -102 -12 0 -61 36 -110 80 -49 44 -91 80 -94 80 -3 0 -7 -7 -10 -15z
m663 -149 c0 -8 -112 -38 -118 -32 -2 3 1 8 9 10 8 2 28 9 44 14 32 11 65 15
65 8z m-184 -55 c-8 -12 -91 -34 -112 -29 -22 6 -14 9 51 26 53 13 67 14 61 3z
m292 -119 c2 -7 -3 -12 -12 -12 -9 0 -16 7 -16 16 0 17 22 14 28 -4z m-163
-24 c10 -15 11 -24 5 -26 -14 -5 -51 28 -44 39 9 15 22 10 39 -13z m549 -293
c-4 -8 -8 -15 -10 -15 -2 0 -4 7 -4 15 0 8 4 15 10 15 5 0 7 -7 4 -15z"/>
<path d="M3506 2208 c37 -71 87 -137 108 -142 21 -5 268 46 384 79 45 14 52
19 52 41 0 18 -4 25 -14 21 -36 -14 -399 -97 -424 -97 -13 0 -29 14 -43 38
-13 20 -26 39 -29 42 -4 3 -12 15 -19 28 -6 12 -16 22 -22 22 -5 0 -2 -15 7
-32z"/>
<path d="M2724 2162 c1 -39 5 -49 24 -57 21 -9 23 -15 19 -50 -5 -34 -2 -43
19 -58 l24 -18 0 34 c0 19 -10 49 -23 68 -12 19 -28 53 -35 76 -17 59 -28 60
-28 5z"/>
<path d="M3155 2108 c24 -46 51 -84 60 -86 8 -2 49 4 90 12 41 9 81 13 89 10
8 -3 17 -1 21 5 3 6 15 11 25 11 10 0 20 6 23 13 6 17 -12 49 -24 41 -13 -8
-208 -54 -230 -54 -9 0 -30 27 -50 65 -18 36 -37 65 -42 65 -4 0 13 -37 38
-82z"/>
<path d="M2630 2103 c0 -10 7 -29 16 -41 8 -12 13 -26 9 -31 -3 -5 -1 -12 5
-16 5 -3 10 -17 10 -31 0 -13 4 -24 8 -24 4 0 17 -29 27 -65 11 -36 23 -65 28
-65 4 0 7 -6 7 -12 0 -17 94 -272 128 -348 8 -19 16 -39 17 -45 1 -5 5 -19 9
-30 47 -113 64 -157 102 -265 25 -69 50 -140 56 -157 9 -27 17 -33 40 -33 35
0 36 14 4 89 -28 65 -57 137 -96 236 -15 39 -56 138 -90 220 -34 83 -73 177
-85 210 -13 33 -41 98 -63 145 -22 47 -43 96 -47 110 -4 14 -13 34 -19 45 -7
11 -20 41 -30 67 -19 51 -36 71 -36 41z"/>
<path d="M5378 2043 c7 -3 16 -2 19 1 4 3 -2 6 -13 5 -11 0 -14 -3 -6 -6z"/>
<path d="M4310 2006 c0 -7 34 -53 77 -101 l76 -87 41 7 c23 3 61 8 86 10 24 2
46 9 48 14 2 6 17 11 34 11 17 0 56 6 87 14 31 8 77 17 103 21 58 8 75 26 60
60 -11 24 -13 25 -49 11 -79 -31 -386 -107 -407 -102 -11 3 -48 39 -81 81 -59
75 -75 87 -75 61z"/>
<path d="M3640 2001 c0 -5 27 -50 60 -100 42 -63 67 -92 85 -97 31 -8 420 84
447 106 23 19 14 55 -11 45 -44 -18 -406 -105 -434 -105 -29 0 -36 7 -82 80
-46 73 -65 94 -65 71z"/>
<path d="M5550 2003 c0 -5 11 -13 25 -20 29 -13 33 -6 8 13 -20 15 -33 18 -33
7z"/>
<path d="M2820 1972 c0 -20 27 -62 40 -62 5 0 1 18 -7 40 -17 42 -33 53 -33
22z"/>
<path d="M3274 1884 c51 -94 66 -106 22 -17 -19 39 -41 75 -48 79 -6 4 5 -24
26 -62z"/>
<path d="M4920 1893 c-62 -11 -236 -66 -250 -79 -12 -12 -11 -14 8 -14 28 0
36 -19 22 -55 -8 -21 -8 -30 1 -35 8 -6 8 -9 0 -14 -6 -4 -11 -22 -10 -39 0
-18 3 -25 6 -17 16 51 23 55 86 58 52 3 66 0 80 -16 32 -35 -1 -68 -76 -78
-32 -5 -47 -2 -59 9 -10 10 -20 12 -29 6 -11 -7 -10 -9 6 -9 18 0 18 -1 2 -17
-15 -16 -18 -15 -37 2 -12 11 -45 50 -73 87 -28 37 -56 68 -60 68 -19 0 2 -34
73 -119 l75 -91 90 6 c50 4 96 11 103 17 12 10 139 33 240 44 66 7 83 29 55
73 -29 45 -201 220 -215 219 -7 -1 -24 -4 -38 -6z m20 -32 c0 -5 -6 -12 -12
-14 -7 -3 -1 -6 13 -6 15 -1 29 -7 32 -15 4 -10 -11 -18 -52 -30 -75 -21 -98
-21 -81 -1 10 12 10 15 -4 15 -9 0 -16 -7 -16 -15 0 -19 -11 -19 -35 -1 -18
13 -18 14 3 32 35 30 152 57 152 35z m-215 -51 c3 -6 -1 -7 -9 -4 -18 7 -21
14 -7 14 6 0 13 -4 16 -10z"/>
<path d="M2241 1854 c0 -11 3 -14 6 -6 3 7 2 16 -1 19 -3 4 -6 -2 -5 -13z"/>
<path d="M2866 1848 c-7 -29 -8 -93 0 -86 3 3 17 -5 31 -18 21 -20 25 -30 20
-58 -5 -31 -1 -39 30 -66 32 -28 34 -34 28 -69 -6 -35 -3 -41 30 -69 33 -27
36 -34 34 -72 -3 -37 1 -45 26 -66 16 -12 32 -21 37 -18 12 7 13 -24 3 -83 -3
-16 7 -32 36 -56 24 -21 39 -43 39 -56 0 -12 5 -31 10 -42 7 -13 7 -19 0 -19
-19 0 -10 -16 21 -39 45 -34 56 -15 28 50 -12 30 -31 66 -41 81 -10 14 -18 35
-18 45 0 16 -27 76 -60 133 -4 8 -16 37 -25 64 -10 27 -26 57 -36 67 -11 11
-19 30 -19 43 0 14 -4 28 -10 31 -5 3 -10 15 -10 26 0 10 -9 28 -20 39 -11 11
-20 29 -20 40 0 29 -39 102 -50 95 -6 -4 -10 5 -10 19 0 30 -29 106 -40 106
-4 0 -10 -10 -14 -22z"/>
<path d="M3595 1841 c-14 -13 -140 -43 -209 -50 l-58 -6 18 -22 c18 -21 21
-22 73 -8 36 10 59 11 72 5 12 -7 32 -5 66 6 60 20 77 35 68 63 -7 23 -16 26
-30 12z"/>
<path d="M2336 1825 c4 -8 8 -15 10 -15 2 0 4 7 4 15 0 8 -4 15 -10 15 -5 0
-7 -7 -4 -15z"/>
<path d="M2250 1800 c0 -5 5 -10 11 -10 5 0 7 5 4 10 -3 6 -8 10 -11 10 -2 0
-4 -4 -4 -10z"/>
<path d="M2351 1784 c0 -11 3 -14 6 -6 3 7 2 16 -1 19 -3 4 -6 -2 -5 -13z"/>
<path d="M2361 1755 c1 -19 18 -51 18 -35 0 8 -4 22 -9 30 -5 8 -9 11 -9 5z"/>
<path d="M3820 1725 c0 -16 136 -205 150 -210 10 -3 29 -1 44 5 15 5 46 10 70
10 23 0 51 7 62 15 10 8 28 14 39 15 11 0 63 9 115 21 52 11 105 22 117 25 30
6 49 40 33 59 -8 10 -17 11 -28 5 -19 -11 -378 -107 -433 -116 -41 -7 -46 -2
-114 110 -35 57 -55 79 -55 61z"/>
<path d="M3415 1630 c3 -5 8 -10 11 -10 2 0 4 5 4 10 0 6 -5 10 -11 10 -5 0
-7 -4 -4 -10z"/>
<path d="M5105 1571 c-162 -45 -246 -73 -261 -88 -11 -12 -9 -20 14 -53 15
-22 32 -39 37 -40 10 0 65 -64 65 -75 0 -14 56 -54 69 -50 9 4 12 -1 8 -15 -3
-14 1 -24 14 -31 11 -6 33 -23 48 -40 16 -16 37 -29 47 -30 18 0 18 -1 -1 -8
-19 -8 -19 -8 3 -20 29 -16 19 -31 -20 -31 -24 0 -41 11 -77 50 -56 60 -67 74
-67 80 1 3 -15 22 -34 42 -69 72 -108 115 -124 141 -17 25 -46 43 -46 28 0 -7
103 -132 150 -181 8 -10 35 -41 60 -70 25 -29 53 -60 63 -69 9 -8 17 -20 17
-26 0 -23 68 -85 92 -85 31 0 439 118 456 132 19 16 14 36 -15 66 -15 14 -90
99 -167 187 -164 187 -192 215 -215 214 -9 0 -61 -13 -116 -28z m291 -251 c15
-6 24 -13 20 -17 -3 -4 1 -17 9 -29 18 -28 24 -85 9 -91 -6 -2 -24 9 -40 24
-16 15 -37 26 -46 25 -9 -2 -19 6 -23 18 -3 11 -15 20 -26 20 -27 0 -23 12 14
38 36 25 45 26 83 12z"/>
<path d="M3780 1530 c-29 -15 -233 -62 -251 -57 -12 3 -19 0 -19 -8 0 -23 16
-26 83 -11 37 7 71 10 79 5 39 -25 138 11 138 50 0 24 -11 32 -30 21z"/>
<path d="M4565 1320 c-168 -52 -330 -93 -372 -93 -32 0 -40 -4 -36 -15 5 -11
16 -13 57 -6 28 4 71 7 96 6 25 -1 51 4 60 12 8 7 38 16 65 19 114 13 226 35
240 47 21 18 20 60 -2 59 -10 0 -58 -13 -108 -29z"/>
<path d="M2581 1254 c0 -11 3 -14 6 -6 3 7 2 16 -1 19 -3 4 -6 -2 -5 -13z"/>
<path d="M3945 1165 c-22 -8 -82 -24 -133 -37 -52 -12 -91 -27 -88 -33 2 -5
10 -8 17 -6 113 34 126 35 143 18 21 -21 26 -21 76 -1 41 17 61 39 53 62 -6
15 -18 15 -68 -3z"/>
<path d="M4880 991 c0 -4 -15 -12 -32 -18 -44 -15 -136 -48 -173 -64 -16 -7
-34 -13 -40 -14 -5 -2 -41 -12 -79 -24 -37 -11 -81 -21 -98 -21 -25 0 -29 -4
-26 -22 4 -32 38 -34 129 -8 66 19 152 43 305 84 84 23 106 42 85 75 -10 15
-71 25 -71 12z"/>
<path d="M4125 742 c-44 -14 -101 -27 -127 -30 -51 -4 -57 -11 -32 -36 20 -21
27 -20 139 9 114 29 135 40 135 65 0 25 -14 24 -115 -8z"/>
<path d="M1996 672 c-7 -12 4 -52 15 -52 12 0 12 47 0 55 -5 3 -12 2 -15 -3z"/>
<path d="M2017 603 c-26 -7 -16 -25 20 -37 44 -15 50 -24 27 -41 -17 -13 -17
-14 -1 -15 9 0 17 -7 17 -16 0 -11 -5 -14 -16 -10 -9 3 -27 9 -40 12 -13 3
-24 12 -24 20 0 7 -6 11 -13 8 -8 -3 -11 -18 -9 -45 3 -32 0 -44 -18 -59 -39
-34 -44 -28 -40 53 1 23 -3 37 -11 37 -8 0 -10 -11 -6 -34 5 -34 5 -34 -27
-29 -51 8 -76 -10 -76 -55 0 -43 13 -68 29 -58 7 5 11 -3 11 -23 0 -23 -4 -29
-15 -25 -8 4 -15 1 -15 -5 0 -6 7 -11 15 -11 11 0 15 -11 15 -40 0 -38 -2 -40
-29 -40 -28 0 -30 -2 -33 -47 -2 -25 -8 -48 -14 -50 -8 -3 -10 12 -6 47 4 41
2 50 -12 50 -12 0 -16 -10 -16 -40 0 -29 -4 -40 -15 -40 -10 0 -15 -10 -15
-30 0 -24 -4 -29 -21 -27 -12 1 -24 -4 -26 -10 -3 -7 2 -13 11 -13 9 0 16 -7
16 -15 0 -11 11 -15 40 -15 29 0 40 4 40 15 0 8 5 15 10 15 6 0 10 -7 10 -15
0 -13 58 -15 465 -15 303 0 465 3 465 10 0 6 -5 10 -10 10 -6 0 -15 11 -20 25
-5 14 -15 25 -22 25 -7 0 -31 18 -53 39 -200 195 -248 240 -261 245 -8 3 -17
13 -20 21 -9 24 -159 175 -173 175 -7 0 -26 14 -41 30 -27 29 -49 34 -93 23z
m-157 -213 c0 -33 -4 -40 -19 -40 -15 0 -20 9 -23 40 -3 36 -1 40 19 40 20 0
23 -5 23 -40z m193 20 c3 -11 0 -23 -6 -27 -19 -12 -58 -9 -69 4 -8 10 -7 13
5 13 8 0 20 7 27 15 17 21 37 19 43 -5z m-53 -130 c0 -5 -5 -10 -11 -10 -5 0
-7 5 -4 10 3 6 8 10 11 10 2 0 4 -4 4 -10z"/>
<path d="M1920 570 c0 -20 5 -30 15 -30 16 0 16 1 20 38 2 16 -3 22 -16 22
-14 0 -19 -7 -19 -30z"/>
<path d="M1580 15 c0 -8 5 -15 10 -15 6 0 10 7 10 15 0 8 -4 15 -10 15 -5 0
-10 -7 -10 -15z"/>
<path d="M4110 16 l-45 -10 39 -4 c21 -2 43 1 49 7 17 17 6 18 -43 7z"/>
</g>
</svg>
