<?xml version="1.0" standalone="no"?>
<!DOCTYPE svg PUBLIC "-//W3C//DTD SVG 20010904//EN"
 "http://www.w3.org/TR/2001/REC-SVG-20010904/DTD/svg10.dtd">
<svg version="1.0" xmlns="http://www.w3.org/2000/svg"
 width="500.000000pt" height="500.000000pt" viewBox="0 0 500.000000 500.000000"
 preserveAspectRatio="xMidYMid meet">

<g transform="translate(0.000000,500.000000) scale(0.100000,-0.100000)"
fill="#000000" stroke="none">
<path d="M0 3750 c0 -687 4 -1250 8 -1250 12 0 86 28 116 44 20 10 35 12 47 5
29 -15 32 -29 7 -38 -13 -6 -16 -10 -8 -10 43 -2 52 45 10 56 -22 6 -28 23 -7
23 20 -1 54 -33 60 -58 5 -19 0 -26 -25 -36 -19 -9 -26 -15 -17 -18 15 -5 -61
-42 -121 -58 -21 -6 -46 -7 -55 -4 -13 5 -16 3 -13 -7 8 -25 72 -22 139 7 35
14 73 28 84 29 11 2 52 13 90 24 39 12 83 23 99 25 15 2 37 12 48 23 19 20 18
20 -105 78 l-125 58 80 101 c43 56 85 109 93 118 34 42 132 183 148 214 12 25
24 34 42 34 34 0 31 -13 -5 -27 -31 -12 -41 -33 -16 -33 7 0 36 7 62 15 27 8
66 17 87 20 24 4 37 11 37 21 0 11 6 13 20 9 10 -3 41 1 67 11 100 34 183 35
288 0 44 -14 87 -26 96 -26 10 0 50 20 91 43 40 24 96 51 124 61 28 9 60 23
70 31 10 8 31 15 46 15 43 0 79 21 73 41 -4 13 3 19 32 26 37 10 38 10 13 20
-14 6 -62 9 -107 8 -46 -1 -83 -1 -83 0 0 9 72 39 130 56 36 10 57 18 47 18
-9 1 -45 -7 -78 -16 -49 -14 -64 -14 -81 -4 -10 6 -43 11 -71 10 -29 -2 -67 1
-86 5 -23 6 -31 5 -27 -3 4 -5 22 -13 41 -17 30 -5 53 -29 41 -42 -3 -3 -30
-6 -59 -7 -30 -1 -62 -7 -72 -12 -12 -7 -36 -3 -83 15 -37 13 -79 26 -95 29
-18 4 -29 13 -33 29 -5 18 -17 27 -48 35 -22 6 -46 15 -53 21 -16 13 -59 0
-45 -14 12 -12 -8 -38 -30 -39 -7 0 -4 -5 7 -10 17 -8 17 -9 -5 -4 -14 2 -32
5 -40 5 -12 1 -12 3 2 14 11 8 15 20 11 34 -3 15 -1 22 8 22 11 1 11 3 -1 9
-23 13 -70 22 -68 14 4 -15 -14 -73 -24 -79 -6 -4 -8 4 -4 22 4 16 9 43 12 59
3 17 10 32 15 34 6 1 2 13 -8 25 -10 11 -14 18 -9 13 5 -4 21 12 35 35 25 42
26 42 29 16 4 -36 46 -49 141 -43 82 5 89 8 72 29 -6 7 -14 44 -18 81 -5 52
-3 69 8 76 17 11 104 37 144 43 100 15 165 32 165 42 0 6 -17 18 -37 26 l-38
15 76 1 c98 2 155 20 152 49 -2 17 4 23 28 28 30 7 129 -13 129 -26 0 -4 -32
-20 -71 -35 -38 -15 -72 -31 -74 -34 -11 -17 25 -40 75 -49 53 -9 165 -37 460
-114 74 -19 152 -38 173 -42 33 -5 37 -8 31 -30 -5 -22 -3 -25 21 -25 16 0 24
-4 20 -11 -4 -6 -14 -8 -22 -4 -13 4 -13 3 -4 -9 9 -11 9 -15 -1 -19 -8 -4 -7
-6 4 -6 9 -1 21 -8 26 -17 5 -9 22 -17 38 -18 16 -1 40 -6 53 -10 16 -6 21 -5
17 3 -9 14 33 15 68 1 17 -6 24 -14 20 -25 -4 -10 0 -15 14 -15 12 0 23 -4 26
-9 3 -4 17 -6 30 -4 32 7 43 47 21 80 -9 14 -14 27 -11 30 6 6 307 -61 621
-138 249 -61 236 -61 352 1 54 29 142 77 196 108 72 39 102 51 110 43 6 -6 9
-12 6 -15 -2 -2 -82 -43 -176 -90 -98 -49 -173 -92 -173 -100 0 -9 35 -22 103
-40 56 -14 188 -49 292 -77 299 -80 376 -97 422 -92 34 4 48 0 77 -22 21 -16
76 -38 143 -56 59 -16 141 -38 181 -49 71 -19 211 -57 245 -67 16 -4 17 49 17
1006 l0 1011 -2500 0 -2500 0 0 -1250z m740 931 c0 -6 -5 -13 -10 -16 -6 -4
-8 -16 -5 -26 6 -18 5 -19 -13 -8 -12 7 -25 23 -31 36 -10 22 -8 23 24 23 19
0 35 -4 35 -9z m440 -41 c21 -7 22 -8 5 -10 -11 -1 -31 -3 -45 -4 -30 -4 -50
3 -50 15 0 11 55 10 90 -1z m-35 -82 c-10 -33 -23 -44 -36 -31 -8 8 -7 17 3
32 18 29 41 28 33 -1z m35 -12 c0 -3 -4 -8 -10 -11 -5 -3 -10 -1 -10 4 0 6 5
11 10 11 6 0 10 -2 10 -4z m-40 -72 c25 -4 58 -8 75 -8 22 -1 30 -6 29 -18 -1
-10 -2 -27 -3 -38 -1 -13 -8 -20 -21 -20 -13 0 -20 -7 -20 -21 0 -14 -12 -25
-37 -36 -46 -20 -71 -19 -92 2 -13 13 -14 17 -3 24 11 7 11 9 -1 14 -19 7 -29
85 -14 103 7 7 19 11 27 9 8 -2 35 -7 60 -11z m977 -117 c-8 -112 -22 -96 -22
24 0 103 1 108 14 77 9 -22 12 -56 8 -101z m-612 -66 c-6 -5 -26 -14 -45 -19
l-35 -9 50 -8 c28 -4 53 -9 58 -12 11 -7 -12 -43 -28 -43 -8 0 -15 -7 -15 -15
0 -8 -6 -15 -14 -15 -8 0 -16 -6 -19 -14 -3 -7 -19 -16 -36 -19 -21 -5 -29
-11 -25 -21 9 -22 50 -25 94 -5 37 17 58 35 25 23 -17 -7 -18 -3 -9 20 3 9 10
13 15 10 5 -3 9 1 9 8 0 10 3 9 9 -2 6 -8 7 -18 5 -22 -3 -4 0 -8 5 -8 6 0 11
5 11 12 0 6 6 4 13 -6 8 -10 26 -18 41 -18 47 0 26 -29 -39 -52 -98 -36 -166
-68 -159 -75 6 -7 13 -8 49 -10 36 -2 34 -38 -2 -52 -25 -10 -129 -24 -234
-34 -20 -1 -55 -15 -78 -29 -37 -24 -103 -37 -116 -24 -3 3 -12 45 -21 94 -12
68 -20 93 -37 106 -12 10 -27 18 -34 18 -6 0 -16 14 -22 31 -16 46 -14 61 7
55 9 -3 59 5 110 19 112 30 222 34 222 9 0 -12 6 -15 20 -11 12 3 34 2 49 -3
25 -7 30 -5 40 16 6 14 11 28 11 33 0 13 -319 35 -343 23 -12 -6 -48 -20 -80
-31 -54 -20 -58 -20 -63 -3 -3 9 -10 27 -15 40 -5 13 -9 27 -9 32 0 13 75 13
251 -2 126 -10 155 -10 215 4 78 18 183 23 169 9z m305 -5 c0 -23 -25 -36 -56
-30 -41 8 -85 -26 -65 -50 11 -13 11 -17 -2 -22 -16 -6 -76 40 -66 50 12 12
146 64 167 65 12 1 22 -5 22 -13z m7 -92 c8 -21 -16 -35 -47 -27 -32 8 -34 9
-27 28 8 21 66 20 74 -1z m-190 -30 c-3 -3 -12 -4 -19 -1 -8 3 -5 6 6 6 11 1
17 -2 13 -5z m698 -24 c-3 -5 -13 -10 -21 -10 -8 0 -12 5 -9 10 3 6 13 10 21
10 8 0 12 -4 9 -10z m-106 -14 c7 -8 21 -12 34 -8 50 12 5 -8 -95 -41 -58 -20
-144 -43 -190 -51 -140 -25 -182 -34 -211 -45 -31 -12 -116 -15 -141 -5 -25
10 -19 33 12 45 25 10 26 12 7 19 -11 5 -14 9 -7 9 7 1 21 -3 30 -8 9 -5 38
-6 64 -2 27 5 51 4 57 -2 5 -5 16 -5 28 1 33 18 255 73 270 68 8 -3 12 -2 9 3
-3 5 7 11 24 13 16 2 27 1 25 -3 -11 -17 25 -16 41 1 23 23 28 24 43 6z
m-1519 -276 c0 -10 -8 -21 -17 -25 -15 -5 -16 -4 -5 6 17 18 15 40 -3 33 -11
-4 -15 0 -15 16 0 22 1 23 20 5 11 -10 20 -26 20 -35z m1117 -46 c-3 -3 -12
-4 -19 -1 -8 3 -5 6 6 6 11 1 17 -2 13 -5z m70 -20 c-3 -3 -12 -4 -19 -1 -8 3
-5 6 6 6 11 1 17 -2 13 -5z m2056 -171 c-19 -15 -53 -17 -53 -4 0 5 7 14 15
21 10 9 15 9 15 1 0 -6 5 -11 10 -11 6 0 9 3 9 8 -3 19 2 25 11 12 7 -11 5
-19 -7 -27z m512 7 c3 -5 2 -10 -4 -10 -5 0 -13 5 -16 10 -3 6 -2 10 4 10 5 0
13 -4 16 -10z m-2108 -26 c-3 -3 -12 -4 -19 -1 -8 3 -5 6 6 6 11 1 17 -2 13
-5z m66 -11 c-7 -2 -19 -2 -25 0 -7 3 -2 5 12 5 14 0 19 -2 13 -5z m87 0 c0
-12 -58 -14 -65 -3 -4 6 9 10 29 10 20 0 36 -3 36 -7z m-15 -23 c3 -5 1 -10
-4 -10 -6 0 -11 5 -11 10 0 6 2 10 4 10 3 0 8 -4 11 -10z m-1628 -86 c-3 -3
-12 -4 -19 -1 -8 3 -5 6 6 6 11 1 17 -2 13 -5z m-120 -29 c-7 -13 -14 -20 -15
-14 -2 5 2 16 8 24 18 21 20 18 7 -10z m103 1 c0 -3 -4 -8 -10 -11 -5 -3 -10
-1 -10 4 0 6 5 11 10 11 6 0 10 -2 10 -4z m121 -49 c-10 -9 -11 -8 -5 6 3 10
9 15 12 12 3 -3 0 -11 -7 -18z m-281 3 c0 -5 -4 -10 -10 -10 -5 0 -10 5 -10
10 0 6 5 10 10 10 6 0 10 -4 10 -10z m80 -15 c0 -16 34 -38 43 -28 4 3 18 -2
31 -11 14 -9 36 -16 50 -16 13 0 31 -6 39 -14 8 -8 26 -13 41 -12 40 5 106
-14 106 -30 0 -8 -6 -11 -15 -8 -8 4 -15 9 -15 13 0 5 -21 5 -46 1 -35 -5 -49
-3 -62 9 -9 9 -33 16 -58 16 -27 1 -50 8 -63 19 -19 17 -21 17 -27 2 -9 -24
-23 -20 -30 9 -6 25 -12 28 -49 26 -19 -1 -19 0 1 8 12 5 25 14 29 20 9 16 25
13 25 -4z m156 -14 c-8 -12 -46 -21 -46 -11 0 9 18 18 38 19 7 1 11 -3 8 -8z
m64 -11 c0 -5 -4 -10 -10 -10 -5 0 -10 5 -10 10 0 6 5 10 10 10 6 0 10 -4 10
-10z m-290 -42 c0 -6 7 -7 16 -4 9 4 23 1 30 -5 8 -6 23 -9 35 -6 12 3 39 -1
61 -10 32 -13 42 -13 48 -3 5 9 9 9 14 1 4 -6 -1 -14 -11 -18 -10 -4 -21 -11
-25 -17 -5 -7 -13 -4 -22 9 -15 20 -15 20 -31 0 -9 -11 -14 -15 -11 -9 4 8 -5
11 -27 10 -25 -1 -32 3 -31 17 2 22 -54 24 -62 2 -10 -24 -20 -18 -31 18 -10
33 -9 33 19 29 15 -2 28 -9 28 -14z m-66 -48 l-2 -52 45 6 c25 3 55 6 66 6 15
0 18 3 10 11 -12 12 -75 15 -92 4 -6 -3 -11 -1 -11 4 0 6 11 11 24 11 15 0 26
7 28 17 3 15 5 15 18 1 9 -8 32 -23 53 -33 21 -10 35 -20 32 -24 -7 -6 -83
-14 -155 -15 l-45 -1 2 50 c2 67 5 76 17 72 6 -2 10 -27 10 -57z m914 17 c19
-15 6 -21 -41 -18 -54 3 -117 21 -117 34 0 12 141 -2 158 -16z m-630 -70 c17
-20 1 -34 -45 -42 -43 -7 -53 1 -31 23 9 9 9 12 -2 12 -7 0 -11 3 -8 6 3 3 15
0 26 -7 11 -7 27 -9 38 -4 17 7 17 8 -6 15 -22 7 -23 8 -4 9 12 1 26 -5 32
-12z m-183 -47 c3 -5 1 -10 -4 -10 -6 0 -11 5 -11 10 0 6 2 10 4 10 3 0 8 -4
11 -10z m-120 -20 c4 -6 12 -7 18 -3 7 4 20 9 31 10 15 3 17 -1 11 -24 -9 -36
-9 -37 -37 -22 -12 7 -27 13 -32 14 -12 0 -17 35 -6 35 5 0 12 -5 15 -10z
m645 -10 c13 -9 13 -10 0 -10 -8 0 -22 5 -30 10 -13 9 -13 10 0 10 8 0 22 -5
30 -10z m-550 -25 c0 -8 -4 -15 -9 -15 -13 0 -22 16 -14 24 11 11 23 6 23 -9z
m-435 -587 c6 -4 2 -8 -7 -8 -10 0 -18 7 -18 17 0 9 3 12 8 7 4 -5 12 -12 17
-16z m120 -28 c-3 -5 -11 -10 -16 -10 -6 0 -7 5 -4 10 3 6 11 10 16 10 6 0 7
-4 4 -10z"/>
<path d="M1470 4215 c-15 -18 1 -26 23 -10 15 10 15 14 3 18 -8 3 -20 0 -26
-8z"/>
<path d="M1078 4146 c-49 -11 -88 -23 -88 -28 0 -10 45 -21 87 -22 17 -1 29
-4 26 -9 -2 -4 24 -5 59 -3 46 4 69 1 86 -10 l24 -16 -21 -22 c-19 -20 -20
-25 -7 -35 17 -14 61 3 51 20 -8 12 59 41 78 33 8 -3 19 1 25 9 10 12 8 13
-13 9 -18 -3 -25 0 -25 12 0 10 -6 13 -15 10 -8 -4 -15 -1 -15 5 0 6 -12 11
-27 11 -23 0 -25 -2 -13 -11 12 -9 12 -10 -3 -5 -10 3 -37 6 -59 6 -39 0 -46
14 -10 16 51 3 51 3 39 28 -14 30 -51 30 -179 2z m45 -30 c4 -10 1 -13 -8 -9
-8 3 -12 9 -9 14 7 12 11 11 17 -5z"/>
<path d="M1670 3723 c0 -35 3 -44 10 -33 13 20 13 80 0 80 -5 0 -10 -21 -10
-47z"/>
<path d="M1708 3649 c-7 -5 -33 -9 -58 -9 -54 0 -223 -30 -216 -38 4 -3 32 -7
63 -8 43 -3 68 2 96 16 45 24 135 28 143 6 3 -8 12 -17 19 -20 9 -3 12 0 8 10
-4 12 0 14 21 10 74 -16 81 -17 66 -6 -8 5 -24 10 -35 10 -12 0 -37 8 -57 19
-22 11 -42 15 -50 10z"/>
<path d="M1370 3585 c-14 -8 -19 -14 -10 -14 8 0 26 6 40 14 14 8 19 14 10 14
-8 0 -26 -6 -40 -14z"/>
<path d="M1890 3581 c14 -11 29 -21 33 -21 5 0 21 -8 35 -19 15 -10 41 -21 57
-25 21 -5 10 5 -37 33 -36 21 -77 42 -90 46 l-23 6 25 -20z"/>
<path d="M1070 3572 c0 -16 -65 -42 -107 -43 -26 -1 -6 -7 65 -21 98 -20 104
-20 147 -4 25 10 45 21 45 24 0 4 -26 15 -58 24 -32 9 -66 20 -75 24 -9 3 -17
2 -17 -4z"/>
<path d="M1415 3560 c3 -5 10 -10 16 -10 5 0 9 5 9 10 0 6 -7 10 -16 10 -8 0
-12 -4 -9 -10z"/>
<path d="M820 3530 c0 -5 10 -10 23 -10 18 0 19 2 7 10 -19 13 -30 13 -30 0z"/>
<path d="M2061 3494 c13 -16 29 -19 29 -5 0 5 -9 11 -21 14 -16 4 -18 3 -8 -9z"/>
<path d="M959 3475 c81 -30 111 -37 111 -28 0 9 -136 53 -160 52 -8 0 14 -11
49 -24z"/>
<path d="M2185 3467 c-22 -12 -57 -33 -78 -47 -35 -24 -37 -27 -36 -80 1 -30
3 -47 6 -38 2 10 10 15 19 11 8 -3 14 -1 14 5 0 6 19 13 43 17 23 4 52 13 65
21 12 8 27 12 32 9 6 -3 10 1 10 10 0 11 5 15 15 11 20 -7 19 3 -5 39 -11 17
-20 38 -20 48 0 22 -16 21 -65 -6z"/>
<path d="M2290 3472 c0 -4 9 -8 20 -9 11 -1 18 2 15 8 -7 11 -35 12 -35 1z"/>
<path d="M2400 3460 c0 -5 10 -10 23 -10 18 0 19 2 7 10 -19 13 -30 13 -30 0z"/>
<path d="M2346 3438 c8 -29 11 -31 22 -24 15 9 2 46 -15 46 -10 0 -12 -6 -7
-22z"/>
<path d="M2500 3445 c0 -8 5 -15 10 -15 6 0 10 7 10 15 0 8 -4 15 -10 15 -5 0
-10 -7 -10 -15z"/>
<path d="M1735 3442 c-25 -5 -45 -22 -24 -21 7 1 25 4 39 8 28 8 15 20 -15 13z"/>
<path d="M1800 3430 c0 -5 5 -10 10 -10 6 0 10 5 10 10 0 6 -4 10 -10 10 -5 0
-10 -4 -10 -10z"/>
<path d="M2554 3424 c3 -9 6 -21 6 -27 0 -7 5 -4 11 6 6 9 14 15 20 12 5 -4 9
0 9 7 0 8 -12 15 -26 16 -20 1 -25 -2 -20 -14z"/>
<path d="M1868 3322 c-68 -24 -69 -32 -5 -32 54 0 57 1 57 25 0 14 -1 25 -2
24 -2 0 -24 -8 -50 -17z"/>
<path d="M2578 3322 c-36 -37 -166 -59 -236 -40 -41 11 -52 4 -29 -20 15 -14
36 -17 125 -17 69 1 116 6 131 14 19 11 25 11 32 0 6 -11 13 -11 26 -3 20 12
46 7 37 -7 -3 -5 7 -9 21 -9 29 0 82 47 69 60 -7 6 -159 44 -159 39 0 0 -8 -8
-17 -17z"/>
<path d="M1654 3255 c-85 -18 -211 -63 -279 -100 -63 -33 -125 -88 -125 -110
0 -30 -42 -45 -126 -45 -58 0 -87 -11 -65 -24 18 -11 180 12 223 31 92 42 146
55 200 49 29 -3 63 -7 76 -7 12 -1 22 -7 22 -14 0 -7 13 -16 28 -20 21 -4 53
5 119 34 50 22 109 44 131 50 30 9 41 17 46 37 9 33 5 38 -44 54 -23 7 -43 17
-46 22 -8 12 165 2 204 -12 28 -10 32 -16 32 -48 0 -19 3 -33 6 -29 5 5 64
-10 107 -28 22 -9 23 17 1 54 -13 22 -94 84 -114 87 -26 4 -66 19 -71 26 -3 5
-55 10 -115 11 -82 2 -135 -2 -210 -18z m447 -92 c16 -10 29 -21 29 -26 0 -4
-3 -7 -7 -5 -46 22 -63 33 -63 40 0 12 8 10 41 -9z"/>
<path d="M2600 3241 c-39 -5 -42 -7 -20 -13 38 -12 57 -9 64 7 3 8 4 14 3 13
-1 0 -22 -4 -47 -7z"/>
<path d="M2207 3089 c-7 -28 -75 -75 -132 -90 -22 -6 -51 -15 -65 -19 -14 -5
-49 -11 -78 -15 -61 -6 -130 -20 -164 -34 -13 -5 -43 -15 -68 -22 -25 -7 -53
-19 -63 -28 -17 -14 -17 -16 5 -24 l23 -9 -22 -10 c-15 -8 -38 -6 -80 4 -47
11 -59 18 -61 36 -4 29 -22 18 -22 -13 0 -30 17 -39 101 -55 51 -10 77 -11
110 -2 24 6 76 14 115 17 39 3 84 9 99 13 l28 8 -42 16 c-22 9 -41 21 -41 26
0 5 42 17 93 27 50 10 114 27 140 38 26 11 50 18 52 15 6 -6 -148 -108 -163
-108 -7 0 -12 -5 -12 -10 0 -12 46 -3 76 15 11 7 39 19 62 26 23 7 42 16 42
21 0 4 5 8 11 8 6 0 16 6 22 13 80 85 92 116 59 158 l-19 22 -6 -24z"/>
<path d="M4469 2966 c-4 -5 -159 -47 -284 -78 -44 -11 -84 -24 -90 -30 -6 -6
0 -7 19 -2 20 5 27 3 22 -4 -3 -6 2 -15 11 -21 10 -5 14 -13 10 -17 -4 -5 -16
-3 -27 4 -12 7 -21 8 -25 2 -3 -6 1 -10 9 -10 8 0 20 -9 26 -20 12 -23 -2 -27
-20 -5 -15 18 -40 20 -40 3 0 -27 17 -39 46 -33 23 4 25 3 9 -4 -30 -14 -83
-13 -114 4 -26 13 -31 13 -50 -4 -11 -10 -21 -21 -21 -25 0 -3 28 -20 61 -37
l62 -31 106 27 c254 65 370 105 299 105 -32 0 -44 26 -18 40 26 14 37 36 45
93 7 42 5 47 -12 47 -11 0 -22 -2 -24 -4z m-141 -81 c-3 -3 -9 2 -12 12 -6 14
-5 15 5 6 7 -7 10 -15 7 -18z m57 5 c-3 -5 -10 -10 -16 -10 -5 0 -9 5 -9 10 0
6 7 10 16 10 8 0 12 -4 9 -10z m-175 -14 c0 -3 -4 -8 -10 -11 -5 -3 -10 -1
-10 4 0 6 5 11 10 11 6 0 10 -2 10 -4z m70 -26 c0 -13 -11 -13 -30 0 -12 8
-11 10 8 10 12 0 22 -4 22 -10z m123 -25 c-3 -9 -8 -14 -10 -11 -3 3 -2 9 2
15 9 16 15 13 8 -4z m-153 -5 c0 -5 -8 -10 -17 -10 -15 0 -16 2 -3 10 19 12
20 12 20 0z m-60 -25 c-14 -7 -27 -11 -30 -9 -6 7 22 24 40 23 9 0 5 -6 -10
-14z m57 -11 c-3 -3 -12 -4 -19 -1 -8 3 -5 6 6 6 11 1 17 -2 13 -5z m-47 -14
c0 -5 -10 -10 -22 -10 -19 0 -20 2 -8 10 19 13 30 13 30 0z"/>
<path d="M2807 2732 c-98 -49 -174 -91 -171 -95 18 -18 65 -1 210 74 l155 80
52 -17 c29 -10 47 -19 40 -21 -6 -2 -28 3 -48 11 l-36 16 -150 -76 c-145 -73
-176 -94 -145 -94 9 0 45 -13 81 -30 36 -16 69 -30 74 -30 5 0 24 -13 42 -30
19 -16 37 -30 42 -30 4 0 7 -7 7 -16 0 -10 4 -12 13 -7 22 14 40 9 160 -46 37
-17 72 -31 76 -31 5 0 14 -7 21 -15 7 -9 19 -14 27 -11 8 3 11 1 8 -4 -3 -6 2
-13 11 -17 10 -4 19 -2 22 5 5 15 39 16 44 1 2 -5 11 -7 21 -4 9 4 15 11 12
16 -3 4 -13 5 -22 2 -37 -14 -3 23 43 48 80 42 127 70 153 90 13 11 30 19 38
19 8 0 12 4 8 9 -3 5 -2 12 3 15 4 2 9 -4 9 -15 1 -13 -5 -19 -18 -19 -10 0
-19 -4 -19 -10 0 -5 -6 -10 -14 -10 -8 0 -16 -4 -18 -8 -1 -5 -36 -30 -77 -56
-63 -40 -72 -50 -57 -58 15 -9 14 -11 -9 -30 -23 -18 -30 -19 -51 -8 -13 8
-27 11 -30 7 -7 -7 49 -37 71 -37 9 0 13 5 10 10 -3 6 3 10 14 10 12 0 21 5
21 10 0 6 9 10 20 10 30 0 24 -14 -10 -27 -34 -13 -40 -33 -10 -33 11 0 20 -5
20 -11 0 -23 46 -2 67 31 27 42 22 36 117 129 56 55 73 77 64 84 -8 5 -3 6 15
3 15 -4 27 -2 27 4 0 5 -10 10 -23 10 -13 0 -27 4 -33 8 -5 4 -27 14 -49 21
-22 7 -49 16 -60 21 -11 5 -51 18 -90 30 -38 12 -78 25 -87 31 -10 5 -24 9
-31 9 -17 0 -80 31 -74 36 2 2 50 -12 108 -32 57 -19 155 -51 217 -70 62 -19
123 -39 136 -45 16 -8 30 -8 42 -1 15 8 10 12 -31 25 -45 14 -517 176 -655
225 -111 39 -107 40 -303 -56z m254 6 c48 -14 49 -24 7 -44 -30 -14 -36 -14
-78 4 l-45 19 30 16 c37 20 38 20 86 5z m172 -25 c26 -9 47 -21 47 -25 0 -11
-14 -10 -25 1 -6 5 -30 16 -55 25 -25 8 -38 15 -30 16 8 0 36 -8 63 -17z m-23
-153 c0 -5 -2 -10 -4 -10 -3 0 -8 5 -11 10 -3 6 -1 10 4 10 6 0 11 -4 11 -10z
m20 -30 c-24 -15 -36 -11 -14 4 10 8 21 12 24 10 2 -3 -2 -9 -10 -14z m405 10
c3 -5 1 -10 -4 -10 -6 0 -11 5 -11 10 0 6 2 10 4 10 3 0 8 -4 11 -10z m-168
-6 c-3 -3 -12 -4 -19 -1 -8 3 -5 6 6 6 11 1 17 -2 13 -5z m-101 -19 c-16 -17
-36 -20 -36 -6 0 8 17 16 43 20 5 0 2 -6 -7 -14z m314 6 c0 -12 -39 -25 -47
-17 -4 3 1 6 10 6 10 0 17 5 17 10 0 6 5 10 10 10 6 0 10 -4 10 -9z m-240 -11
c0 -5 -2 -10 -4 -10 -3 0 -8 5 -11 10 -3 6 -1 10 4 10 6 0 11 -4 11 -10z
m-255 -10 c-3 -5 -10 -10 -16 -10 -5 0 -9 5 -9 10 0 6 7 10 16 10 8 0 12 -4 9
-10z m225 -10 c0 -5 -7 -10 -15 -10 -8 0 -15 5 -15 10 0 6 7 10 15 10 8 0 15
-4 15 -10z m-207 -15 c-3 -9 -8 -14 -10 -11 -3 3 -2 9 2 15 9 16 15 13 8 -4z
m237 -10 c-34 -20 -60 -20 -34 0 10 8 28 14 39 14 18 0 17 -1 -5 -14z m-270
-15 c0 -5 -5 -10 -11 -10 -5 0 -7 5 -4 10 3 6 8 10 11 10 2 0 4 -4 4 -10z
m135 -16 c-9 -9 -19 -13 -23 -10 -3 4 0 11 8 16 24 15 33 11 15 -6z m80 -4
c-3 -5 -11 -10 -16 -10 -6 0 -7 5 -4 10 3 6 11 10 16 10 6 0 7 -4 4 -10z m178
3 c-7 -2 -19 -2 -25 0 -7 3 -2 5 12 5 14 0 19 -2 13 -5z m37 -13 c0 -5 -2 -10
-4 -10 -3 0 -8 5 -11 10 -3 6 -1 10 4 10 6 0 11 -4 11 -10z m-245 -10 c3 -5
-3 -10 -14 -10 -12 0 -21 5 -21 10 0 6 6 10 14 10 8 0 18 -4 21 -10z m-40 -20
c3 -5 1 -10 -4 -10 -6 0 -11 5 -11 10 0 6 2 10 4 10 3 0 8 -4 11 -10z m203
-30 c-13 -10 -27 -16 -32 -12 -5 3 0 9 12 13 12 5 22 13 22 19 0 6 5 8 10 5 6
-4 1 -14 -12 -25z m-73 10 c3 -6 -1 -7 -9 -4 -18 7 -21 14 -7 14 6 0 13 -4 16
-10z m75 -45 c0 -8 -7 -15 -15 -15 -13 0 -14 3 -3 15 16 18 18 18 18 0z m-40
-35 c0 -5 -7 -10 -15 -10 -8 0 -15 5 -15 10 0 6 7 10 15 10 8 0 15 -4 15 -10z"/>
<path d="M4600 2746 c0 -2 11 -11 25 -20 19 -12 30 -14 51 -6 15 6 24 13 21
17 -7 7 -97 16 -97 9z"/>
<path d="M4580 2711 c0 -6 7 -11 15 -11 8 0 15 -4 15 -10 0 -5 -7 -7 -15 -4
-8 4 -15 3 -15 0 0 -8 141 -78 147 -73 2 3 -20 17 -50 31 -45 21 -54 29 -50
46 3 11 1 20 -5 20 -6 0 -17 3 -26 6 -9 3 -16 1 -16 -5z"/>
<path d="M2135 2700 c-3 -5 -3 -10 2 -10 8 0 -95 -60 -174 -102 -24 -12 -43
-26 -43 -30 0 -5 33 10 73 32 41 22 86 40 100 40 15 0 36 9 46 19 11 11 21 18
23 16 2 -2 5 7 6 20 2 25 -21 35 -33 15z"/>
<path d="M4705 2692 c-7 -18 -12 -14 59 -47 55 -26 58 -29 36 -37 -12 -5 -32
-6 -44 -3 -12 3 22 -15 74 -41 89 -43 97 -45 132 -34 33 9 38 15 38 40 0 17
-4 30 -9 30 -5 0 -58 23 -118 52 -114 54 -158 65 -168 40z"/>
<path d="M840 2687 c0 -3 7 -32 15 -63 17 -66 13 -82 -8 -31 -8 19 -20 38 -26
41 -19 12 -12 -9 14 -45 14 -19 28 -42 31 -51 8 -23 95 -58 146 -58 65 0 180
-19 195 -31 17 -15 18 -63 1 -52 -7 4 -40 7 -73 6 -37 -2 -62 2 -67 10 -6 9
-10 9 -15 0 -5 -6 -42 -12 -88 -14 -44 -2 -83 -7 -86 -12 -4 -6 -25 -5 -53 2
-34 8 -52 8 -67 0 -11 -6 -27 -8 -34 -5 -19 7 -31 -14 -14 -25 9 -5 -3 -7 -31
-5 -25 2 -45 5 -45 6 0 1 -43 3 -95 4 -96 2 -145 -10 -163 -41 -5 -7 -12 -11
-17 -8 -4 3 -11 -2 -14 -11 -3 -9 -12 -14 -20 -11 -9 4 -12 -2 -9 -17 6 -31
-15 -45 -99 -65 l-73 -17 3 -34 2 -35 -26 30 c-14 17 -26 30 -27 30 -1 0 -17
-10 -34 -23 -18 -13 -37 -21 -42 -18 -15 9 -21 -50 -21 -200 l0 -143 61 -53
c34 -29 80 -70 103 -90 22 -21 50 -38 61 -38 21 0 140 -46 191 -74 66 -35 107
-108 130 -228 9 -48 30 -109 49 -147 22 -43 36 -85 38 -119 4 -51 7 -55 83
-130 70 -68 81 -84 96 -137 15 -54 15 -62 2 -83 -8 -12 -30 -30 -49 -39 -27
-13 -36 -25 -41 -51 l-7 -34 -91 4 c-50 2 -100 9 -111 15 -11 6 -47 21 -80 34
-70 26 -85 36 -79 52 3 8 33 12 88 12 72 0 88 3 108 21 28 26 57 38 82 35 10
-2 22 2 25 8 4 5 27 12 51 13 53 4 72 22 59 56 -9 24 -77 91 -92 92 -5 0 -25
18 -45 40 -43 47 -119 101 -182 130 -25 12 -52 24 -60 29 -8 4 -39 6 -67 5
-30 -1 -53 2 -53 8 0 6 -13 7 -32 2 -28 -6 -31 -5 -20 8 13 16 7 28 -14 28 -8
0 -11 -6 -8 -15 5 -11 -1 -13 -23 -11 -15 3 -36 7 -46 11 -9 4 -24 2 -31 -5
-12 -9 -19 -7 -35 9 -12 12 -27 21 -35 21 -8 0 -17 10 -19 23 -2 12 -5 -254
-6 -590 l-1 -613 523 0 523 0 -4 41 c-4 36 -6 39 -21 25 -9 -8 -35 -22 -59
-31 -41 -17 -44 -17 -63 1 -19 17 -19 19 -4 30 10 7 14 18 10 23 -3 6 7 31 23
54 28 42 36 65 49 132 4 25 3 28 -8 17 -7 -6 -22 -12 -34 -12 -13 0 -37 -21
-65 -57 -78 -98 -149 -139 -259 -149 -98 -9 -163 18 -233 97 -81 92 -88 129
-12 66 85 -70 155 -90 275 -77 52 6 78 14 105 35 45 34 50 49 27 72 -16 16
-19 31 -16 97 3 63 0 81 -13 90 -9 7 -18 32 -21 57 -4 38 -1 49 25 79 l30 35
11 -28 c6 -16 11 -36 11 -46 0 -33 24 -52 69 -54 l45 -2 23 68 c13 37 32 83
43 102 11 19 15 35 9 35 -5 0 3 16 18 35 15 19 36 35 45 35 9 0 20 5 23 10 4
6 10 8 15 5 5 -3 11 -1 15 5 4 7 12 7 25 0 22 -12 33 -13 27 -2 -3 4 16 8 42
9 26 1 59 7 74 12 44 17 119 -5 185 -53 31 -23 62 -41 68 -39 26 9 33 -23 18
-78 -25 -85 -32 -145 -34 -269 -1 -63 -5 -106 -7 -95 -25 97 -187 160 -441
172 l-114 5 16 -30 15 -30 113 0 c94 0 126 -4 193 -26 44 -14 97 -37 117 -51
40 -27 78 -89 78 -126 0 -22 0 -22 -28 4 -28 27 -92 53 -92 37 0 -4 7 -10 15
-14 30 -11 94 -136 70 -136 -7 0 -68 42 -75 52 -10 13 -66 31 -135 44 -38 7
-81 16 -94 20 -19 6 -22 4 -19 -12 4 -24 59 -55 116 -66 61 -11 120 -40 166
-83 l39 -35 1470 0 c1294 0 1468 2 1450 15 -11 8 -85 48 -164 88 -79 41 -160
83 -179 94 -19 11 -75 41 -125 68 -49 27 -101 56 -115 65 -14 10 -56 34 -95
55 -79 43 -283 157 -333 188 -25 15 -30 22 -20 28 7 5 9 9 4 9 -5 0 -1 9 8 19
17 19 17 19 -2 14 -15 -3 -20 0 -19 12 2 22 -159 118 -187 111 -12 -3 -20 2
-23 13 -2 10 -41 37 -86 61 -45 24 -111 61 -146 83 -35 21 -74 43 -85 48 -12
5 -37 19 -56 30 -32 20 -223 128 -315 179 -22 12 -84 47 -138 77 -91 52 -100
55 -143 48 -32 -4 -44 -3 -39 4 3 6 18 11 33 11 26 1 27 1 7 16 -19 15 -93 56
-174 97 -31 16 -161 91 -212 122 -20 12 -121 69 -131 73 -5 2 -8 -2 -8 -10 0
-7 -14 -33 -30 -57 -17 -25 -29 -50 -26 -56 5 -13 -39 -234 -48 -243 -3 -3 -6
0 -6 6 0 6 -7 9 -15 6 -8 -3 -17 0 -20 8 -4 10 -15 13 -31 10 -14 -2 -24 0
-24 7 0 6 8 11 17 11 16 0 16 1 0 17 -15 15 -18 15 -34 1 -16 -14 -20 -15 -37
-2 -11 8 -21 20 -22 27 -2 6 -8 35 -14 62 -7 28 -16 88 -20 135 -11 123 -29
222 -43 239 -29 37 -46 79 -40 100 6 23 5 23 -25 7 -28 -14 -34 -14 -69 0 -40
17 -73 46 -73 64 0 5 -4 10 -10 10 -5 0 -10 -5 -10 -11 0 -16 -42 0 -65 26
-23 25 -101 41 -108 21 -3 -7 -13 -3 -28 11 l-22 22 24 -5 c17 -4 14 0 -10 10
-39 19 -44 19 -36 6 13 -21 -11 -9 -29 15 -10 14 -25 25 -32 25 -8 0 -14 5
-14 10 0 6 -4 10 -9 10 -14 0 -20 -37 -8 -49 8 -8 4 -11 -13 -11 -30 0 -21 -9
12 -12 19 -2 24 -6 20 -24 -5 -25 -6 -25 -90 19 -29 15 -56 35 -59 43 -3 8
-12 13 -19 10 -7 -3 -16 -1 -19 4 -4 6 3 10 14 10 11 0 32 6 47 12 20 9 28 10
31 1 4 -12 43 -6 43 7 0 5 -10 6 -22 2 -35 -9 -12 16 35 38 23 11 58 35 77 53
19 18 47 41 62 51 27 17 28 17 87 -14 34 -18 58 -37 54 -43 -3 -6 -1 -7 6 -3
6 4 38 -3 71 -16 59 -23 73 -41 49 -65 -7 -7 -3 -17 17 -32 29 -23 44 -27 44
-11 0 6 11 10 24 10 17 0 29 -9 38 -27 7 -15 25 -34 40 -43 25 -13 29 -13 44
2 10 10 21 44 26 79 4 34 17 76 28 94 17 28 18 39 10 91 -14 84 -14 83 32 90
36 6 39 8 20 15 -27 10 -28 15 -2 29 17 9 26 7 50 -13 16 -14 26 -28 23 -31
-4 -3 0 -6 9 -6 26 0 29 13 5 25 -12 6 -21 17 -20 23 4 17 -54 25 -92 12 -28
-9 -34 -15 -25 -25 7 -9 7 -15 1 -19 -5 -4 -14 2 -20 11 -5 10 -13 15 -17 11
-4 -4 -19 1 -33 11 -14 10 -55 34 -91 52 -72 37 -62 52 17 25 55 -19 53 -19
53 -6 0 5 -12 17 -27 25 -27 16 -27 16 -3 10 56 -15 86 -16 104 -2 18 13 16
16 -28 45 -26 18 -52 32 -57 32 -6 0 -23 8 -37 18 -15 10 -52 24 -82 31 -30 8
-61 18 -68 24 -10 8 -16 7 -22 -4 -6 -9 -29 -14 -72 -15 -41 -1 -62 -5 -60
-13 2 -12 -14 -16 -20 -3 -5 11 -58 56 -58 49z m420 -337 c0 -5 -7 -10 -15
-10 -8 0 -15 -4 -15 -10 0 -5 6 -10 14 -10 8 0 18 5 21 10 9 14 65 12 69 -2 3
-7 7 -32 9 -56 4 -35 2 -44 -11 -48 -10 -3 -45 -18 -78 -34 -53 -25 -61 -26
-57 -11 2 9 -3 23 -11 30 -25 21 -19 30 20 33 48 4 65 29 40 57 -23 25 -46 27
-46 5 0 -8 -5 -12 -10 -9 -16 10 28 65 51 65 10 0 19 -4 19 -10z m-120 -210
c-19 -13 -30 -13 -30 0 0 6 10 10 23 10 18 0 19 -2 7 -10z m140 -29 c0 -10
-30 -24 -37 -17 -3 3 -2 9 2 15 8 13 35 15 35 2z m-1012 -466 c-2 -18 -7 -22
-17 -16 -9 6 -11 18 -6 41 6 28 9 31 17 16 5 -9 8 -28 6 -41z m1637 -295 c3
-6 -1 -7 -9 -4 -18 7 -21 14 -7 14 6 0 13 -4 16 -10z m207 -116 c29 -15 140
-77 247 -139 219 -126 478 -272 561 -318 30 -16 60 -33 65 -37 10 -8 107 -61
157 -87 15 -8 30 -19 34 -24 8 -13 -50 16 -191 96 -60 34 -162 90 -225 125
-63 35 -194 108 -290 163 -96 55 -200 114 -230 130 -76 42 -196 117 -187 117
4 0 31 -12 59 -26z m-573 -89 l1 -40 -24 30 -24 30 -11 -28 c-6 -16 -11 -36
-11 -45 -1 -12 -5 -10 -15 8 -8 14 -12 33 -9 42 3 9 -3 22 -13 28 -15 10 -15
11 -1 6 10 -3 31 9 55 30 l38 35 6 -28 c4 -15 7 -46 8 -68z m-284 -68 l34 -34
-6 29 c-5 26 -3 28 26 28 35 0 100 -29 120 -54 8 -9 19 -16 26 -16 14 0 50
-49 41 -57 -3 -3 -19 6 -36 21 -17 14 -36 26 -41 26 -5 0 -9 6 -9 14 0 8 -10
17 -22 21 -13 3 -33 11 -45 17 -34 17 -40 2 -12 -28 l24 -26 -22 6 c-20 6 -23
4 -23 -18 0 -14 -4 -27 -10 -31 -5 -3 -6 -13 -3 -21 5 -12 1 -15 -13 -10 -10
3 -44 8 -74 10 -42 3 -55 8 -54 20 2 15 -8 19 -47 19 -36 0 9 72 66 104 32 18
45 15 80 -20z m182 -110 c-7 -23 -26 -16 -46 18 -28 49 -27 50 14 19 20 -15
34 -32 32 -37z m-77 7 c0 -14 -3 -14 -15 -4 -8 7 -15 14 -15 16 0 2 7 4 15 4
8 0 15 -7 15 -16z m136 -21 c-10 -11 -37 -12 -30 -2 3 5 12 9 21 9 9 0 13 -3
9 -7z m-78 -49 c32 -15 36 -42 3 -28 -9 3 -40 12 -70 18 -30 6 -56 17 -59 25
-5 16 77 6 126 -15z m112 1 c0 -8 -4 -15 -10 -15 -5 0 -10 7 -10 15 0 8 5 15
10 15 6 0 10 -7 10 -15z m1780 -287 c0 -16 -3 -19 -11 -11 -6 6 -8 16 -5 22
11 17 16 13 16 -11z m-44 -46 c-4 -3 -14 2 -24 12 -16 18 -16 18 6 6 13 -6 21
-14 18 -18z m150 -72 c10 0 185 -102 181 -106 -6 -7 -287 148 -287 158 0 4 23
-6 50 -22 28 -17 53 -30 56 -30z m280 -155 c10 -8 15 -14 9 -14 -5 0 -19 6
-29 14 -11 8 -15 15 -10 15 6 0 19 -7 30 -15z m49 -25 c3 -5 2 -10 -4 -10 -5
0 -13 5 -16 10 -3 6 -2 10 4 10 5 0 13 -4 16 -10z m121 -72 c4 -6 -10 -1 -32
12 -56 33 -66 46 -17 21 23 -11 45 -26 49 -33z m99 -53 c11 -9 2 -7 -20 6 -22
12 -44 26 -50 32 -16 15 48 -20 70 -38z m124 -61 c14 -12 -19 -1 -35 12 -18
14 -18 14 6 3 14 -6 27 -13 29 -15z"/>
<path d="M2335 2644 c-45 -16 -68 -34 -44 -34 26 0 109 31 109 41 0 12 -17 10
-65 -7z"/>
<path d="M2503 2592 c-44 -17 -56 -32 -26 -32 28 0 103 32 97 41 -7 12 -22 10
-71 -9z"/>
<path d="M4312 2601 c2 -7 7 -12 11 -12 12 1 9 15 -3 20 -7 2 -11 -2 -8 -8z"/>
<path d="M3940 2539 c-88 -17 -170 -67 -260 -158 -100 -101 -128 -139 -137
-183 l-6 -33 36 28 c28 21 47 27 86 27 27 0 53 -4 56 -10 3 -5 15 -10 25 -10
11 0 39 -11 63 -25 l44 -24 44 28 c24 16 54 38 66 50 12 11 27 21 33 21 5 0
10 5 10 10 0 6 7 10 15 10 7 0 18 6 22 13 8 12 47 37 59 37 4 0 -1 -9 -11 -20
-10 -11 -22 -20 -27 -20 -9 0 -24 -11 -62 -46 -13 -12 -36 -29 -52 -37 -16 -8
-38 -24 -48 -36 -18 -20 -18 -21 0 -28 11 -3 22 -11 26 -16 3 -6 20 -10 37
-10 17 0 29 -3 26 -5 -3 -3 0 -11 6 -18 8 -10 16 -11 30 -3 26 13 25 43 -1 36
-10 -3 -24 1 -31 9 -9 11 -7 14 9 14 11 0 25 7 32 15 13 16 34 10 24 -7 -10
-16 17 -27 37 -15 13 8 22 8 29 1 7 -7 -5 -17 -40 -33 -28 -12 -47 -27 -44
-32 3 -6 31 -21 62 -35 32 -14 70 -32 85 -40 27 -15 29 -15 34 5 3 11 9 18 14
15 10 -6 69 23 69 35 0 5 -10 12 -22 16 -21 6 -21 8 -4 12 10 3 22 -1 27 -8 8
-14 16 -10 157 66 54 29 102 67 96 76 -2 4 3 9 11 13 11 4 13 14 9 38 -4 24
-3 29 5 18 15 -22 23 -6 11 25 -26 68 -160 158 -300 200 -65 20 -70 21 -180
34 -96 12 -108 12 -170 0z m239 -64 c55 -7 63 -25 11 -25 -57 0 -160 21 -160
33 0 9 35 7 149 -8z m-231 -1 c36 -10 26 -19 -21 -19 -37 0 -41 2 -28 12 19
14 19 15 49 7z m180 -60 c32 -8 71 -22 88 -29 17 -8 55 -21 85 -29 113 -30
259 -85 259 -98 0 -12 -38 -10 -45 2 -3 6 -14 10 -24 10 -10 0 -31 7 -47 15
-19 9 -32 11 -40 4 -8 -6 -13 -5 -18 6 -3 8 -14 15 -25 15 -11 0 -23 5 -26 10
-3 6 -17 10 -30 10 -13 0 -27 5 -30 10 -3 6 -15 10 -26 10 -10 0 -28 6 -39 12
-16 10 -24 10 -40 0 -27 -17 -38 -15 -14 2 16 12 16 15 4 19 -8 3 -34 10 -57
17 -24 7 -43 17 -43 22 0 11 3 10 68 -8z m255 -29 c74 -25 128 -56 110 -62 -6
-2 -24 2 -40 10 -15 8 -66 27 -113 41 -47 15 -89 32 -95 38 -15 14 57 0 138
-27z m-436 -21 c-3 -3 -12 -4 -19 -1 -8 3 -5 6 6 6 11 1 17 -2 13 -5z m-37
-14 c0 -5 -4 -10 -10 -10 -5 0 -10 5 -10 10 0 6 5 10 10 10 6 0 10 -4 10 -10z
m90 6 c0 -2 -7 -7 -16 -10 -8 -3 -12 -2 -9 4 6 10 25 14 25 6z m87 -2 c-3 -3
-12 -4 -19 -1 -8 3 -5 6 6 6 11 1 17 -2 13 -5z m133 -14 c0 -5 -4 -10 -10 -10
-5 0 -10 5 -10 10 0 6 5 10 10 10 6 0 10 -4 10 -10z m330 -15 c13 -14 21 -25
18 -25 -2 0 -15 11 -28 25 -13 14 -21 25 -18 25 2 0 15 -11 28 -25z m-670 5
c0 -5 -7 -10 -15 -10 -9 0 -18 -7 -21 -15 -4 -8 -12 -15 -20 -15 -8 0 -14 -4
-14 -10 0 -5 -7 -10 -15 -10 -8 0 -15 5 -15 10 0 6 7 10 15 10 8 0 15 5 15 10
0 6 7 10 15 10 8 0 15 4 15 9 0 5 8 12 18 14 9 3 18 5 20 6 1 0 2 -3 2 -9z
m80 0 c0 -5 -4 -10 -10 -10 -5 0 -10 5 -10 10 0 6 5 10 10 10 6 0 10 -4 10
-10z m170 6 c0 -11 -19 -15 -25 -6 -3 5 1 10 9 10 9 0 16 -2 16 -4z m65 -16
c3 -5 -1 -10 -9 -10 -9 0 -16 5 -16 10 0 6 4 10 9 10 6 0 13 -4 16 -10z m85 0
c0 -5 -4 -10 -9 -10 -6 0 -13 5 -16 10 -3 6 1 10 9 10 9 0 16 -4 16 -10z
m-375 -25 c-16 -13 -35 -29 -42 -35 -15 -12 -33 -13 -33 -1 0 5 11 12 25 15
14 4 31 15 37 26 7 11 20 20 28 20 9 0 4 -9 -15 -25z m259 -6 c-8 -14 -24 -10
-24 6 0 9 6 12 15 9 8 -4 12 -10 9 -15z m91 9 c3 -3 -1 -8 -9 -11 -8 -3 -19 0
-25 7 -8 10 -6 12 9 11 11 -1 22 -4 25 -7z m90 2 c3 -5 -1 -10 -9 -10 -9 0
-16 5 -16 10 0 6 4 10 9 10 6 0 13 -4 16 -10z m-350 -10 c-3 -5 -14 -10 -23
-9 -14 0 -13 2 3 9 27 11 27 11 20 0z m362 -13 c19 1 20 -1 9 -13 -11 -10 -22
-11 -51 -3 -29 8 -35 13 -24 20 8 5 21 6 29 2 8 -3 25 -6 37 -6z m-230 -3 c-3
-3 -12 -4 -19 -1 -8 3 -5 6 6 6 11 1 17 -2 13 -5z m-355 -19 c0 -5 -5 -11 -11
-13 -6 -2 -11 4 -11 13 0 9 5 15 11 13 6 -2 11 -8 11 -13z m181 8 c-7 -2 -19
-2 -25 0 -7 3 -2 5 12 5 14 0 19 -2 13 -5z m507 -3 c0 -5 -6 -10 -14 -10 -8 0
-16 -4 -18 -8 -6 -15 -116 -91 -122 -85 -3 3 22 26 57 51 34 25 64 49 65 54 5
11 32 10 32 -2z m-360 -10 c0 -5 -7 -10 -16 -10 -10 0 -14 -6 -10 -15 4 -11
-2 -15 -22 -15 l-27 0 29 25 c31 26 46 31 46 15z m85 0 c3 -5 1 -10 -4 -10 -6
0 -11 -6 -11 -14 0 -9 -7 -12 -20 -9 -11 3 -20 10 -20 15 0 6 7 8 15 4 9 -3
15 0 15 9 0 17 16 20 25 5z m67 -10 c-23 -22 -32 -25 -32 -12 0 5 10 14 23 20
32 15 33 14 9 -8z m-514 -9 c3 -8 -1 -12 -9 -9 -7 2 -15 10 -17 17 -3 8 1 12
9 9 7 -2 15 -10 17 -17z m177 1 c-3 -3 -11 0 -18 7 -9 10 -8 11 6 5 10 -3 15
-9 12 -12z m600 8 c8 -13 -5 -13 -25 0 -13 8 -13 10 2 10 9 0 20 -4 23 -10z
m-185 -4 c0 -11 -19 -15 -25 -6 -3 5 1 10 9 10 9 0 16 -2 16 -4z m-455 -16 c3
-5 1 -10 -4 -10 -6 0 -11 5 -11 10 0 6 2 10 4 10 3 0 8 -4 11 -10z m-85 -10
c0 -5 -7 -7 -15 -4 -8 4 -15 8 -15 10 0 2 7 4 15 4 8 0 15 -4 15 -10z m425 0
c3 -5 1 -10 -4 -10 -6 0 -20 -8 -30 -17 -41 -37 -53 -45 -59 -38 -3 3 0 10 7
14 8 5 10 14 6 22 -6 9 -3 11 9 6 10 -4 23 1 34 12 20 22 28 25 37 11z m83 -8
c-10 -2 -18 -7 -18 -11 0 -7 -44 -31 -57 -31 -3 0 4 9 17 20 13 11 27 20 32
20 5 0 7 4 4 9 -4 5 4 6 16 3 19 -5 20 -7 6 -10z m189 12 c-3 -3 -12 -4 -19
-1 -8 3 -5 6 6 6 11 1 17 -2 13 -5z m-362 -14 c-3 -5 -10 -10 -16 -10 -5 0 -9
5 -9 10 0 6 7 10 16 10 8 0 12 -4 9 -10z m-125 -26 c24 -14 24 -15 2 -9 -18 5
-25 2 -29 -14 -6 -24 -15 -26 -44 -10 -26 13 -16 28 16 21 20 -3 24 -1 19 12
-8 20 3 20 36 0z m90 6 c0 -5 -4 -10 -10 -10 -5 0 -10 5 -10 10 0 6 5 10 10
10 6 0 10 -4 10 -10z m330 -5 c0 -11 -35 -42 -55 -49 -15 -5 -13 0 10 22 29
29 45 38 45 27z m-120 -34 c0 -5 -13 -14 -30 -21 -16 -7 -30 -19 -30 -26 0 -8
-7 -14 -15 -14 -24 0 -17 13 23 42 40 29 52 33 52 19z m-137 -41 c-18 -17 -37
-30 -42 -30 -6 0 -11 -4 -11 -10 0 -15 -19 -12 -38 6 -15 15 -14 16 7 9 17 -5
27 -1 44 18 19 21 31 28 67 36 3 0 -9 -13 -27 -29z m167 -4 c0 -11 -19 -15
-25 -6 -3 5 1 10 9 10 9 0 16 -2 16 -4z m-144 -41 c-20 -15 -20 -15 0 -31 11
-8 12 -13 4 -10 -8 3 -23 9 -32 12 -16 6 -15 8 5 25 12 10 27 18 32 18 6 0 1
-6 -9 -14z m69 -15 c-3 -5 -11 -10 -16 -10 -6 0 -7 5 -4 10 3 6 11 10 16 10 6
0 7 -4 4 -10z"/>
<path d="M2725 2476 c-42 -24 -59 -56 -29 -56 9 0 36 12 60 28 75 47 47 73
-31 28z"/>
<path d="M2880 2431 c0 -4 11 -6 25 -3 14 2 25 6 25 8 0 2 -11 4 -25 4 -14 0
-25 -4 -25 -9z"/>
<path d="M1535 2400 c3 -5 11 -10 16 -10 6 0 7 5 4 10 -3 6 -11 10 -16 10 -6
0 -7 -4 -4 -10z"/>
<path d="M2853 2380 c-34 -20 -47 -38 -15 -21 23 13 58 40 52 41 -3 0 -20 -9
-37 -20z"/>
<path d="M2922 2359 c-47 -28 -60 -49 -30 -49 19 0 108 62 102 71 -8 13 -14
11 -72 -22z"/>
<path d="M0 2286 c0 -53 3 -96 8 -96 4 0 34 18 67 40 36 24 72 40 89 40 39 0
30 7 -76 64 l-88 48 0 -96z"/>
<path d="M1448 2373 c7 -3 16 -2 19 1 4 3 -2 6 -13 5 -11 0 -14 -3 -6 -6z"/>
<path d="M2756 2319 c-27 -16 -46 -32 -43 -36 5 -4 55 28 92 59 20 17 -3 7
-49 -23z"/>
<path d="M4967 2334 c-12 -13 -8 -22 14 -27 15 -4 19 -1 17 10 -3 18 -21 27
-31 17z"/>
<path d="M3208 2266 c-22 -12 -38 -29 -38 -39 0 -10 -4 -16 -9 -13 -11 7 -22
-46 -12 -57 8 -8 101 48 101 62 0 5 -5 13 -11 16 -6 5 -3 13 10 22 12 8 19 19
16 24 -8 12 -13 11 -57 -15z"/>
<path d="M840 2259 c0 -5 5 -7 10 -4 6 3 10 8 10 11 0 2 -4 4 -10 4 -5 0 -10
-5 -10 -11z"/>
<path d="M2585 2210 c-49 -32 -101 -65 -115 -72 -14 -7 -54 -31 -90 -54 -36
-22 -70 -43 -75 -45 -24 -10 -135 -82 -131 -86 4 -4 377 216 386 227 3 4 23
17 45 28 45 24 95 62 80 61 -5 0 -50 -27 -100 -59z"/>
<path d="M4650 2251 c0 -42 -96 -123 -230 -192 -91 -46 -176 -106 -198 -137
-36 -51 -46 -91 -27 -104 16 -12 25 -9 25 7 0 8 6 15 14 15 8 0 29 12 47 28
27 22 43 27 88 28 31 1 61 -2 66 -6 6 -4 51 -20 100 -35 108 -34 93 -30 184
-46 67 -12 74 -12 86 4 7 9 16 17 20 17 5 0 0 -9 -9 -19 -17 -19 -17 -20 16
-30 61 -18 104 -36 131 -54 14 -9 28 -17 31 -17 3 0 4 88 3 195 l-2 195 -129
45 c-120 41 -130 43 -143 27 -12 -16 -13 -16 -7 2 6 15 3 17 -17 11 -16 -4
-20 -3 -10 3 11 8 11 10 0 14 -8 3 -11 9 -7 13 4 4 24 1 45 -6 21 -7 43 -13
48 -14 6 -1 19 -5 30 -10 72 -30 138 -54 164 -60 26 -5 31 -4 31 12 -1 14 -33
29 -163 72 -89 30 -168 56 -174 59 -8 2 -13 -4 -13 -17z m55 -291 c-3 -5 -11
-10 -16 -10 -6 0 -7 5 -4 10 3 6 11 10 16 10 6 0 7 -4 4 -10z m90 0 c-3 -5
-12 -10 -18 -10 -7 0 -6 4 3 10 19 12 23 12 15 0z m-304 -29 c-30 -30 -39 -26
-11 4 13 14 25 23 28 21 2 -2 -6 -14 -17 -25z m128 -42 c-17 -17 -34 -28 -37
-24 -6 6 47 54 61 55 4 0 -6 -14 -24 -31z m281 -3 c0 -3 -4 -8 -10 -11 -5 -3
-10 -1 -10 4 0 6 5 11 10 11 6 0 10 -2 10 -4z m-30 -20 c0 -3 -4 -8 -10 -11
-5 -3 -10 -1 -10 4 0 6 5 11 10 11 6 0 10 -2 10 -4z m-105 -16 c3 -5 1 -10 -4
-10 -6 0 -11 5 -11 10 0 6 2 10 4 10 3 0 8 -4 11 -10z"/>
<path d="M4980 2261 c0 -9 -8 -11 -27 -6 -19 4 -25 3 -18 -4 14 -13 65 -25 65
-15 0 5 -5 16 -10 24 -7 12 -10 12 -10 1z"/>
<path d="M1468 2215 c-2 -2 -2 -25 2 -50 5 -45 6 -47 70 -78 51 -25 75 -45
114 -96 48 -64 49 -64 47 -134 -1 -39 -7 -77 -12 -84 -6 -6 -8 -17 -4 -23 3
-5 2 -10 -2 -10 -10 0 -48 -98 -42 -105 3 -2 38 -21 79 -43 87 -46 245 -132
310 -170 25 -14 59 -26 75 -27 22 0 29 -4 27 -16 -1 -10 16 -25 45 -40 27 -14
102 -56 168 -94 66 -37 161 -90 210 -117 50 -27 113 -63 140 -79 28 -16 64
-36 80 -44 29 -13 214 -115 245 -135 8 -5 40 -23 71 -39 l56 -29 36 38 c21 20
37 40 37 42 0 10 -108 58 -121 55 -8 -2 -10 -2 -6 1 5 2 -2 16 -15 29 l-23 26
23 -14 c17 -11 26 -11 40 -2 9 6 16 16 14 22 -1 6 4 11 12 11 8 0 29 13 47 30
18 16 37 26 42 23 5 -3 4 -9 -3 -13 -8 -5 -7 -9 5 -14 23 -8 27 -8 20 4 -7 11
39 -7 70 -28 19 -12 18 -13 -7 -6 -18 4 -28 2 -28 -5 0 -6 -7 -11 -15 -11 -8
0 -15 -4 -15 -10 0 -5 6 -10 14 -10 8 0 16 -6 18 -12 3 -9 16 -3 37 15 33 27
57 28 47 1 -4 -10 2 -14 19 -14 13 0 37 -11 53 -25 17 -14 33 -25 37 -25 15 0
115 -51 115 -58 0 -4 8 -8 18 -9 22 -2 132 -62 132 -73 0 -4 12 -11 28 -14 44
-11 184 -65 224 -87 21 -11 42 -18 47 -14 15 9 23 -13 11 -34 -5 -11 -19 -22
-29 -26 -14 -4 -19 -15 -19 -35 1 -17 4 -30 8 -30 3 0 34 22 68 50 34 27 64
45 67 41 3 -5 2 -11 -2 -14 -5 -2 -2 -2 6 0 8 2 53 -23 100 -54 47 -32 98 -65
114 -72 15 -8 27 -21 27 -29 0 -9 6 -12 16 -8 10 4 13 2 8 -6 -5 -8 -2 -9 11
-4 12 4 22 0 32 -14 8 -11 21 -20 29 -20 8 0 14 -5 14 -11 0 -8 4 -9 13 0 24
19 27 0 6 -30 -20 -28 -19 -49 3 -49 5 0 8 7 4 15 -8 21 14 19 30 -2 7 -10 14
-13 14 -7 0 6 -6 17 -14 24 -8 6 -12 18 -9 26 8 22 51 -20 74 -75 14 -30 24
-41 34 -37 12 4 14 0 9 -19 -4 -15 -2 -25 5 -25 6 0 11 -10 11 -22 l0 -23 -19
24 c-19 25 -41 22 -41 -6 0 -9 3 -14 6 -10 3 3 16 -5 29 -19 12 -13 29 -24 36
-24 8 0 25 -9 39 -20 l25 -19 -35 12 c-19 7 -52 23 -73 35 -40 26 -60 21 -72
-19 -4 -10 -13 -19 -22 -19 -9 0 -13 -6 -9 -15 3 -9 0 -15 -9 -15 -17 0 -20
21 -4 37 7 7 2 12 -18 17 -17 5 -29 3 -31 -3 -2 -6 -11 -11 -20 -11 -22 0 -8
-12 53 -46 28 -15 65 -36 83 -46 28 -16 57 -18 212 -18 l180 0 0 194 0 194
-30 11 c-39 13 -39 22 0 15 32 -7 43 11 13 19 -17 4 -17 5 0 6 13 1 17 10 17
36 0 19 -4 35 -8 35 -5 0 -14 10 -20 23 -8 16 -11 18 -11 6 -1 -9 -7 -19 -15
-22 -10 -4 -12 0 -9 14 7 26 -15 24 -42 -5 -12 -13 -28 -26 -36 -29 -10 -4 -8
-8 9 -12 14 -5 22 -15 21 -29 -1 -15 -3 -16 -6 -5 -3 12 -11 15 -25 11 -14 -3
-19 -1 -14 6 5 8 -3 12 -24 12 -27 0 -29 2 -18 14 8 8 23 16 34 19 10 3 3 5
-16 5 -19 0 -44 3 -55 7 l-20 8 20 -16 c29 -24 13 -21 -52 10 -192 88 -326
130 -506 160 l-48 8 62 75 c66 78 110 127 245 269 44 48 105 112 135 144 30
32 78 84 108 115 87 92 254 293 248 298 -8 8 -53 -39 -132 -136 -38 -47 -71
-87 -75 -90 -3 -3 -43 -45 -90 -95 -46 -49 -140 -149 -210 -221 -167 -174
-214 -225 -290 -314 -35 -41 -68 -77 -73 -79 -11 -4 46 78 78 113 11 12 54 60
95 106 41 46 98 107 127 135 69 68 173 187 173 199 0 6 -17 -8 -37 -30 -32
-33 -44 -40 -75 -38 -33 1 -36 -1 -27 -17 8 -15 6 -17 -8 -12 -13 5 -15 3 -10
-11 4 -9 3 -15 -2 -11 -5 3 -13 0 -16 -6 -4 -5 -14 -8 -22 -5 -8 3 -11 1 -8
-4 3 -6 0 -10 -8 -10 -10 0 -13 -7 -10 -20 5 -19 -12 -29 -19 -11 -1 5 -25 -6
-51 -26 -26 -20 -45 -38 -41 -42 4 -3 9 0 11 7 5 13 33 17 33 5 -1 -11 -37
-53 -45 -53 -14 0 -105 -94 -105 -108 0 -11 -3 -12 -14 -3 -12 10 -14 8 -12
-13 2 -15 1 -26 -1 -26 -2 0 -30 17 -61 39 -31 21 -75 49 -97 63 -161 100
-141 92 -485 209 -128 43 -243 93 -428 184 -139 69 -269 135 -290 148 -20 13
-80 50 -132 81 -52 32 -129 82 -170 112 -236 172 -309 213 -395 225 -56 7 -67
2 -163 -79 -29 -24 -55 -42 -58 -40 -5 6 35 46 84 84 l32 26 -65 78 c-85 102
-194 207 -253 244 -50 31 -137 68 -144 61z m382 -515 c0 -5 -5 -10 -11 -10 -5
0 -7 5 -4 10 3 6 8 10 11 10 2 0 4 -4 4 -10z m68 -44 c-7 -8 -15 -12 -17 -11
-5 6 10 25 20 25 5 0 4 -6 -3 -14z m409 -260 c0 -8 -8 -11 -21 -8 -19 5 -19 6
0 13 10 4 19 8 20 8 0 1 1 -5 1 -13z m118 -16 c3 -5 1 -10 -4 -10 -6 0 -11 5
-11 10 0 6 2 10 4 10 3 0 8 -4 11 -10z m155 -10 c0 -5 -7 -10 -15 -10 -8 0
-15 5 -15 10 0 6 7 10 15 10 8 0 15 -4 15 -10z m122 -47 c-6 -2 -10 -9 -6 -14
3 -5 -1 -9 -9 -9 -8 0 -26 -9 -41 -21 -33 -26 -34 -14 -2 16 25 24 44 33 61
33 6 0 4 -2 -3 -5z m55 -49 c-3 -3 -12 -4 -19 -1 -8 3 -5 6 6 6 11 1 17 -2 13
-5z m-162 -34 c-3 -5 -14 -10 -23 -10 -15 0 -15 2 -2 10 20 13 33 13 25 0z
m212 4 c-3 -3 -12 -4 -19 -1 -8 3 -5 6 6 6 11 1 17 -2 13 -5z m63 -28 c0 -3
-4 -8 -10 -11 -5 -3 -10 -1 -10 4 0 6 5 11 10 11 6 0 10 -2 10 -4z m-338 -28
c-6 -6 -15 -8 -19 -4 -4 4 -1 11 7 16 19 12 27 3 12 -12z m403 -8 c-3 -5 -10
-10 -16 -10 -5 0 -9 5 -9 10 0 6 7 10 16 10 8 0 12 -4 9 -10z m-219 -15 c18
-13 18 -14 -4 -8 -12 3 -25 9 -28 14 -8 14 10 11 32 -6z m298 -8 c-2 -7 -17
-21 -33 -30 -16 -9 -43 -30 -61 -47 -25 -24 -36 -28 -46 -19 -8 6 -14 17 -13
23 0 7 2 7 5 -1 6 -14 29 -7 58 19 69 62 100 81 90 55z m-249 -17 c3 -5 -1
-10 -9 -10 -9 0 -16 5 -16 10 0 6 4 10 9 10 6 0 13 -4 16 -10z m305 -30 c0 -5
-9 -10 -20 -10 -11 0 -20 5 -20 10 0 6 9 10 20 10 11 0 20 -4 20 -10z m-240
-10 c0 -5 -4 -10 -10 -10 -5 0 -10 5 -10 10 0 6 5 10 10 10 6 0 10 -4 10 -10z
m297 -9 c14 5 28 7 31 4 3 -3 0 -5 -7 -5 -9 0 -11 -8 -8 -21 4 -15 2 -18 -7
-10 -7 6 -16 8 -20 4 -8 -8 -26 16 -25 32 0 6 3 5 5 -2 4 -9 13 -9 31 -2z
m-107 -21 c-27 -24 -40 -25 -40 -6 0 14 17 22 49 25 8 1 5 -7 -9 -19z m-50
-37 c0 -7 7 -13 15 -13 8 0 15 -4 15 -10 0 -5 -4 -10 -9 -10 -6 0 -13 5 -16
10 -3 6 -13 10 -21 10 -9 0 -22 6 -30 14 -12 13 -10 15 16 14 18 -1 30 -6 30
-15z m110 7 c0 -5 -4 -10 -10 -10 -5 0 -10 5 -10 10 0 6 5 10 10 10 6 0 10 -4
10 -10z m-230 -15 c0 -2 -10 -10 -22 -16 -21 -11 -22 -11 -9 4 13 16 31 23 31
12z m1427 -19 c0 -8 -6 -12 -15 -9 -11 5 -11 7 0 14 7 5 13 9 14 9 0 0 1 -6 1
-14z m-987 -26 c0 -5 -4 -10 -10 -10 -5 0 -10 5 -10 10 0 6 5 10 10 10 6 0 10
-4 10 -10z m-310 -24 c0 -3 -4 -8 -10 -11 -5 -3 -10 -1 -10 4 0 6 5 11 10 11
6 0 10 -2 10 -4z m54 -55 c-10 -10 -21 -17 -23 -15 -6 6 20 34 32 34 6 0 2 -8
-9 -19z m91 -21 c-21 -23 -35 -26 -35 -6 0 13 15 21 44 25 5 0 1 -8 -9 -19z
m1835 -384 c0 -2 -7 -7 -16 -10 -8 -3 -12 -2 -9 4 6 10 25 14 25 6z m-54 -43
c-10 -10 -19 5 -10 18 6 11 8 11 12 0 2 -7 1 -15 -2 -18z m-196 -194 c0 -5
-11 1 -25 13 -13 11 -22 26 -18 31 6 10 43 -27 43 -44z m20 -88 c0 -5 -7 -11
-14 -14 -10 -4 -13 -1 -9 9 6 15 23 19 23 5z m-80 -101 c0 -5 -4 -10 -10 -10
-5 0 -10 5 -10 10 0 6 5 10 10 10 6 0 10 -4 10 -10z"/>
<path d="M945 2160 c3 -5 17 -10 31 -10 14 0 22 4 19 10 -3 6 -17 10 -31 10
-14 0 -22 -4 -19 -10z"/>
<path d="M3767 2143 c-3 -7 -1 -148 2 -175 1 -5 6 -8 11 -8 7 0 7 6 0 20 -12
23 6 76 39 111 11 12 18 26 15 31 -8 12 -32 10 -37 -4 -3 -7 -6 -3 -6 10 -1
21 -16 30 -24 15z"/>
<path d="M1018 2133 c7 -3 16 -2 19 1 4 3 -2 6 -13 5 -11 0 -14 -3 -6 -6z"/>
<path d="M3519 2104 c-22 -27 -63 -42 -147 -56 -45 -7 -82 -16 -82 -20 0 -12
41 -9 121 8 55 13 81 25 108 50 20 18 31 34 25 34 -6 0 -17 -7 -25 -16z"/>
<path d="M1010 2091 c0 -11 4 -22 10 -26 5 -3 6 -13 3 -22 -4 -11 -3 -14 6 -9
6 4 18 3 26 -4 15 -13 20 -7 30 38 4 20 3 32 -4 32 -13 0 -32 -35 -24 -44 3
-3 1 -6 -5 -6 -17 0 -25 21 -13 33 17 17 13 27 -9 27 -13 0 -20 -7 -20 -19z"/>
<path d="M660 2080 c0 -5 5 -10 10 -10 6 0 10 5 10 10 0 6 -4 10 -10 10 -5 0
-10 -4 -10 -10z"/>
<path d="M590 2070 c0 -5 4 -10 9 -10 5 0 18 -3 28 -6 16 -5 16 -4 -1 10 -23
18 -36 20 -36 6z"/>
<path d="M1462 2038 c-16 -16 -15 -58 1 -58 26 0 40 18 33 44 -7 29 -16 32
-34 14z"/>
<path d="M1083 2011 c-9 -11 -20 -18 -25 -15 -4 3 -8 0 -8 -5 0 -6 16 -11 35
-11 19 0 35 5 35 10 0 6 7 10 15 10 8 0 15 7 15 15 0 22 -47 19 -67 -4z"/>
<path d="M2140 1935 c-11 -13 -10 -14 4 -9 9 3 16 10 16 15 0 13 -6 11 -20 -6z"/>
<path d="M4402 1809 c-41 -30 -59 -71 -50 -115 5 -29 22 -26 72 13 l48 37 -22
18 -21 17 21 21 c19 19 20 40 1 40 -4 0 -26 -14 -49 -31z"/>
<path d="M3960 1796 c0 -3 7 -22 14 -41 l15 -35 98 0 c105 0 114 3 132 37 17
34 13 38 -10 9 -20 -26 -23 -27 -117 -24 -89 3 -97 5 -108 26 -12 25 -24 39
-24 28z"/>
<path d="M2 1707 c3 -36 28 -52 98 -63 l45 -7 -19 22 c-11 11 -25 21 -33 21
-8 0 -12 4 -9 8 3 5 -15 18 -40 29 l-45 21 3 -31z"/>
<path d="M4752 1650 c-34 -40 -37 -80 -7 -80 27 0 103 99 88 114 -16 16 -51 1
-81 -34z"/>
<path d="M4958 1643 c-10 -3 -18 -9 -18 -14 0 -10 7 -11 34 0 23 9 9 19 -16
14z"/>
<path d="M4771 1574 c-27 -19 -30 -24 -14 -24 11 0 29 11 41 25 27 31 17 31
-27 -1z"/>
<path d="M4985 1585 c-5 -11 -17 -26 -27 -33 -23 -17 -15 -32 14 -27 29 6 30
8 26 47 -3 28 -5 30 -13 13z"/>
<path d="M4764 1440 c-21 -22 -47 -40 -59 -40 -16 0 -17 -2 -5 -10 13 -8 12
-11 -5 -24 -11 -9 -24 -16 -28 -16 -5 0 -7 -6 -5 -12 5 -14 -80 -105 -93 -101
-5 2 -6 -4 -3 -11 4 -10 32 14 89 72 80 84 155 170 155 178 0 10 -11 1 -46
-36z"/>
<path d="M4490 1200 c0 -5 5 -10 10 -10 6 0 10 5 10 10 0 6 -4 10 -10 10 -5 0
-10 -4 -10 -10z"/>
<path d="M72 1178 c5 -15 28 -18 29 -3 0 6 -7 12 -17 13 -10 3 -15 -1 -12 -10z"/>
<path d="M3197 1023 c-4 -3 -7 -13 -7 -21 0 -11 3 -12 13 -3 20 16 29 2 11
-16 -12 -12 -18 -12 -29 -3 -12 10 -20 9 -42 -6 -20 -13 -24 -19 -13 -22 8 -3
17 -8 20 -12 3 -4 17 -10 32 -14 22 -5 26 -3 22 9 -4 9 6 25 24 42 l31 26 -26
14 c-30 15 -28 15 -36 6z"/>
<path d="M3265 1020 c3 -5 8 -10 11 -10 2 0 4 5 4 10 0 6 -5 10 -11 10 -5 0
-7 -4 -4 -10z"/>
<path d="M3210 940 c0 -5 5 -10 10 -10 6 0 10 5 10 10 0 6 -4 10 -10 10 -5 0
-10 -4 -10 -10z"/>
<path d="M3330 940 c0 -5 5 -10 10 -10 6 0 10 5 10 10 0 6 -4 10 -10 10 -5 0
-10 -4 -10 -10z"/>
<path d="M3237 926 c-12 -10 -15 -16 -7 -21 16 -10 40 2 40 20 0 18 -9 19 -33
1z"/>
<path d="M3363 924 c0 -16 13 -19 21 -5 3 5 0 11 -7 14 -8 3 -14 -1 -14 -9z"/>
<path d="M3410 899 c0 -5 5 -7 10 -4 6 3 10 8 10 11 0 2 -4 4 -10 4 -5 0 -10
-5 -10 -11z"/>
<path d="M3277 894 c-9 -9 12 -34 28 -34 7 0 19 7 26 16 12 15 11 16 -10 9
-14 -4 -26 -3 -30 4 -4 6 -10 8 -14 5z"/>
<path d="M3214 846 c-11 -13 -29 -28 -39 -34 -11 -6 -16 -14 -12 -18 4 -5 16
-3 25 2 12 8 24 8 40 1 24 -11 28 -22 11 -33 -7 -4 17 -21 56 -41 52 -26 70
-31 81 -22 19 15 18 25 -3 33 -10 3 -24 9 -32 12 -10 5 -12 2 -8 -9 4 -11 0
-13 -14 -10 -12 3 -18 11 -15 19 3 8 -10 25 -31 41 -19 15 -30 29 -24 31 7 2
18 -3 24 -13 11 -14 16 -15 41 -2 15 9 23 18 17 21 -6 4 -20 2 -31 -4 -17 -9
-20 -8 -17 12 1 14 -3 22 -10 21 -7 -2 -13 2 -13 7 0 17 -24 9 -46 -14z"/>
<path d="M3350 860 c0 -5 5 -10 11 -10 5 0 7 5 4 10 -3 6 -8 10 -11 10 -2 0
-4 -4 -4 -10z"/>
<path d="M3387 843 c-10 -9 -9 -23 2 -23 5 0 11 7 15 15 5 15 -5 20 -17 8z"/>
<path d="M3325 780 c-3 -5 -1 -10 4 -10 6 0 11 5 11 10 0 6 -2 10 -4 10 -3 0
-8 -4 -11 -10z"/>
<path d="M1070 750 c0 -5 5 -10 10 -10 6 0 10 5 10 10 0 6 -4 10 -10 10 -5 0
-10 -4 -10 -10z"/>
<path d="M3398 743 c7 -3 16 -2 19 1 4 3 -2 6 -13 5 -11 0 -14 -3 -6 -6z"/>
<path d="M1065 720 c-3 -5 -2 -10 4 -10 5 0 13 5 16 10 3 6 2 10 -4 10 -5 0
-13 -4 -16 -10z"/>
<path d="M4940 680 c-9 -6 -10 -10 -3 -10 6 0 15 5 18 10 8 12 4 12 -15 0z"/>
<path d="M4808 643 c7 -3 16 -2 19 1 4 3 -2 6 -13 5 -11 0 -14 -3 -6 -6z"/>
<path d="M3375 630 c3 -5 11 -10 16 -10 6 0 7 5 4 10 -3 6 -11 10 -16 10 -6 0
-7 -4 -4 -10z"/>
<path d="M3505 620 c4 -6 11 -8 16 -5 14 9 11 15 -7 15 -8 0 -12 -5 -9 -10z"/>
<path d="M3354 605 c4 -24 16 -30 16 -7 0 12 -4 22 -9 22 -5 0 -8 -7 -7 -15z"/>
<path d="M4945 610 c3 -5 10 -10 16 -10 5 0 9 5 9 10 0 6 -7 10 -16 10 -8 0
-12 -4 -9 -10z"/>
<path d="M3430 585 c-7 -9 -20 -13 -29 -10 -9 3 -5 -4 8 -15 13 -11 27 -20 31
-20 15 0 32 30 26 45 -7 19 -20 19 -36 0z"/>
<path d="M4930 580 c0 -5 9 -10 20 -10 11 0 20 5 20 10 0 6 -9 10 -20 10 -11
0 -20 -4 -20 -10z"/>
<path d="M4596 285 c-3 -9 0 -15 9 -15 9 0 12 6 9 15 -4 8 -7 15 -9 15 -2 0
-5 -7 -9 -15z"/>
<path d="M4553 235 c0 -8 4 -12 9 -9 4 3 8 -1 8 -9 0 -22 31 -30 49 -13 8 9
11 19 7 23 -4 4 -12 1 -17 -7 -8 -13 -12 -11 -26 8 -18 25 -30 28 -30 7z"/>
<path d="M4465 190 c-3 -5 -2 -10 4 -10 5 0 13 5 16 10 3 6 2 10 -4 10 -5 0
-13 -4 -16 -10z"/>
<path d="M4511 183 c-11 -12 -10 -16 5 -28 24 -18 40 -19 26 -2 -5 6 -11 19
-13 29 -4 14 -6 14 -18 1z"/>
<path d="M4560 160 c0 -5 5 -10 10 -10 6 0 10 5 10 10 0 6 -4 10 -10 10 -5 0
-10 -4 -10 -10z"/>
<path d="M1220 86 c0 -8 111 -88 116 -84 2 3 -6 14 -19 25 -27 24 -97 67 -97
59z"/>
<path d="M4412 61 c-11 -7 -10 -9 3 -14 9 -4 13 -3 10 3 -15 24 22 7 44 -20
20 -26 30 -30 69 -30 46 0 46 0 23 17 -13 9 -36 16 -51 17 -16 1 -26 4 -23 9
2 4 -8 12 -22 17 -32 12 -36 12 -53 1z"/>
</g>
</svg>
