<?xml version="1.0" standalone="no"?>
<!DOCTYPE svg PUBLIC "-//W3C//DTD SVG 20010904//EN"
 "http://www.w3.org/TR/2001/REC-SVG-20010904/DTD/svg10.dtd">
<svg version="1.0" xmlns="http://www.w3.org/2000/svg"
 width="300.000000pt" height="225.000000pt" viewBox="0 0 300.000000 225.000000"
 preserveAspectRatio="xMidYMid meet">

<g transform="translate(0.000000,225.000000) scale(0.100000,-0.100000)"
fill="#000000" stroke="none">
<path d="M1800 2225 c0 -27 4 -28 35 -16 26 11 55 -5 55 -29 0 -11 7 -20 15
-20 8 0 15 4 15 8 0 5 11 14 24 20 30 14 25 57 -5 49 -11 -3 -17 -1 -13 4 3 5
-24 9 -60 9 -64 0 -66 -1 -66 -25z"/>
<path d="M1988 2243 c6 -2 18 -2 25 0 6 3 1 5 -13 5 -14 0 -19 -2 -12 -5z"/>
<path d="M2090 2242 c0 -13 23 -32 40 -32 8 0 21 9 28 20 11 19 10 20 -28 20
-22 0 -40 -4 -40 -8z"/>
<path d="M2460 2240 c8 -5 34 -10 58 -10 40 0 43 -2 49 -31 3 -19 14 -34 25
-36 10 -3 19 -10 19 -17 1 -6 2 -18 3 -26 0 -9 13 -16 34 -18 26 -3 35 -10 46
-37 25 -60 75 -70 171 -36 33 12 77 33 97 46 l38 25 0 75 0 75 -277 0 c-183 0
-273 -4 -263 -10z"/>
<path d="M1490 2207 c-55 -49 -56 -54 -9 -76 23 -11 45 -18 49 -16 4 3 11 -2
14 -11 3 -8 2 -12 -4 -9 -6 3 -10 1 -10 -5 0 -7 8 -9 21 -5 14 5 25 2 30 -6 7
-11 11 -11 21 -1 10 10 10 17 0 32 -21 35 -14 55 23 69 37 13 55 9 55 -15 0
-8 5 -14 10 -14 6 0 10 5 10 10 0 6 7 10 15 10 8 0 15 5 15 10 0 6 1 13 3 18
1 4 -9 8 -23 8 -14 1 -36 3 -50 5 -31 4 -68 -8 -99 -32 -38 -30 -55 -25 -48
16 3 19 5 35 4 35 -1 0 -13 -10 -27 -23z"/>
<path d="M1588 2213 c7 -3 16 -2 19 1 4 3 -2 6 -13 5 -11 0 -14 -3 -6 -6z"/>
<path d="M1233 2148 c-33 -20 -43 -43 -22 -50 8 -3 14 -48 17 -127 l5 -123 55
-25 c30 -13 68 -27 84 -30 l29 -6 -7 79 c-4 44 -11 81 -15 82 -15 6 -10 52 6
58 12 5 12 8 2 19 -8 7 -22 14 -33 17 -13 2 -22 16 -29 46 -10 41 -37 83 -52
81 -5 0 -23 -10 -40 -21z"/>
<path d="M25 2120 c-27 -7 -27 -8 -5 -8 14 0 36 4 50 8 20 6 21 8 5 8 -11 0
-33 -4 -50 -8z"/>
<path d="M1805 2110 c-4 -6 7 -10 25 -10 18 0 29 4 25 10 -3 6 -15 10 -25 10
-10 0 -22 -4 -25 -10z"/>
<path d="M930 2101 c0 -14 18 -23 31 -15 8 4 7 9 -2 15 -18 11 -29 11 -29 0z"/>
<path d="M1440 2071 c0 -11 26 -22 34 -14 3 3 3 10 0 14 -7 12 -34 11 -34 0z"/>
<path d="M2992 2055 c0 -16 2 -22 5 -12 2 9 2 23 0 30 -3 6 -5 -1 -5 -18z"/>
<path d="M167 2034 c-8 -8 1 -24 14 -24 5 0 9 7 9 15 0 15 -12 20 -23 9z"/>
<path d="M2920 2030 c0 -5 5 -10 11 -10 5 0 7 5 4 10 -3 6 -8 10 -11 10 -2 0
-4 -4 -4 -10z"/>
<path d="M17 2009 c-9 -6 -17 -21 -17 -34 0 -23 4 -25 40 -23 45 1 51 9 18 24
-13 6 -18 9 -11 7 21 -4 25 15 6 26 -12 6 -25 6 -36 0z"/>
<path d="M82 2009 c2 -6 8 -10 13 -10 5 0 11 4 13 10 2 6 -4 11 -13 11 -9 0
-15 -5 -13 -11z"/>
<path d="M412 2002 c-6 -18 20 -35 30 -19 3 6 5 14 2 18 -2 4 2 9 8 12 7 3 2
4 -11 4 -13 -1 -26 -8 -29 -15z"/>
<path d="M1151 1987 c-7 -19 -18 -38 -26 -41 -32 -12 7 -74 48 -76 10 0 9 122
-2 139 -6 10 -12 4 -20 -22z"/>
<path d="M500 2000 c0 -5 5 -10 11 -10 5 0 7 5 4 10 -3 6 -8 10 -11 10 -2 0
-4 -4 -4 -10z"/>
<path d="M341 1953 c-59 -81 -160 -213 -244 -319 -54 -69 -97 -130 -95 -136 2
-6 44 43 93 107 50 65 104 135 120 154 59 69 137 171 130 171 -3 0 -2 8 3 17
12 21 46 28 38 7 -3 -8 0 -14 6 -14 6 0 3 -9 -7 -20 -10 -11 -21 -18 -25 -15
-4 2 -7 -3 -7 -11 0 -11 6 -9 23 7 17 16 30 20 56 14 32 -6 32 -6 8 7 -14 7
-29 23 -35 35 -12 27 -42 25 -64 -4z"/>
<path d="M410 1959 c0 -4 6 -11 13 -17 14 -11 57 -11 57 1 0 4 0 10 0 15 0 4
-16 7 -35 7 -19 0 -35 -3 -35 -6z"/>
<path d="M2907 1963 c-4 -6 -19 -8 -35 -5 -23 3 -30 -1 -34 -16 -5 -17 1 -21
39 -27 52 -8 76 -41 55 -76 -22 -34 -15 -87 13 -105 24 -16 27 -16 40 2 9 12
14 44 15 89 l0 71 -32 9 c-21 6 -34 18 -36 30 -5 25 -18 40 -25 28z"/>
<path d="M2761 1913 c-6 -21 -23 -85 -37 -143 -14 -58 -32 -118 -40 -135 -7
-16 -22 -63 -33 -104 -11 -40 -23 -77 -28 -82 -4 -4 -65 -5 -134 -1 -152 8
-159 7 -159 -23 0 -19 -7 -26 -32 -33 -24 -6 -33 -14 -34 -31 -1 -12 -6 -27
-13 -34 -29 -29 1 -35 219 -46 126 -6 173 -12 198 -25 42 -22 68 -13 76 25 3
16 17 42 32 57 14 15 48 77 75 137 27 61 62 135 78 166 l29 56 -24 -5 c-31 -6
-59 -48 -44 -66 19 -23 -51 -28 -74 -6 -16 16 -20 40 -27 170 -4 84 -10 154
-13 157 -2 3 -9 -12 -15 -34z m-343 -535 c17 -17 15 -48 -3 -48 -17 0 -39 36
-30 50 8 13 18 13 33 -2z"/>
<path d="M25 1930 c-3 -5 1 -10 10 -10 9 0 13 5 10 10 -3 6 -8 10 -10 10 -2 0
-7 -4 -10 -10z"/>
<path d="M621 1853 c-36 -47 -39 -56 -30 -80 5 -14 7 -38 4 -53 -3 -15 -2 -45
3 -67 6 -24 6 -47 0 -57 -7 -12 -3 -18 15 -25 33 -13 69 -3 64 18 -9 39 43 94
56 59 3 -10 9 -9 22 3 12 12 17 38 20 104 3 87 3 89 -26 116 -16 14 -42 29
-58 31 -25 4 -34 -3 -70 -49z"/>
<path d="M0 1896 c0 -2 7 -9 15 -16 12 -10 15 -10 15 4 0 9 -7 16 -15 16 -8 0
-15 -2 -15 -4z"/>
<path d="M2043 1883 c-34 -12 12 -76 63 -89 15 -4 27 -16 31 -32 8 -31 42 -67
54 -55 5 5 11 41 15 81 7 68 6 72 -14 72 -15 0 -19 -5 -15 -20 4 -17 0 -20
-23 -20 -22 0 -25 3 -16 12 7 7 12 15 12 19 0 8 -59 24 -74 20 -5 -1 -12 2
-15 7 -3 5 -12 7 -18 5z"/>
<path d="M319 1843 c-13 -16 -12 -17 4 -4 9 7 17 15 17 17 0 8 -8 3 -21 -13z"/>
<path d="M387 1838 c-38 -10 -39 -11 -32 -45 11 -58 23 -70 72 -71 33 0 46 4
49 16 3 10 10 25 15 34 14 27 11 42 -11 61 -22 19 -37 20 -93 5z"/>
<path d="M1110 1825 c0 -8 7 -15 15 -15 8 0 15 -9 15 -19 0 -10 7 -22 16 -25
20 -8 39 -8 31 0 -3 4 -2 14 3 24 7 13 2 20 -26 33 -43 21 -54 21 -54 2z"/>
<path d="M270 1780 c-17 -22 -29 -40 -27 -40 3 0 20 18 37 40 17 22 29 40 27
40 -3 0 -20 -18 -37 -40z"/>
<path d="M1214 1770 c1 -27 9 -34 67 -65 36 -19 69 -32 73 -28 25 26 -44 94
-120 117 -18 6 -21 3 -20 -24z"/>
<path d="M25 1760 c-16 -17 -16 -20 -2 -20 8 0 17 -5 19 -11 5 -14 48 -2 48
13 0 10 -29 37 -41 38 -3 0 -14 -9 -24 -20z"/>
<path d="M1033 1740 c0 -25 2 -35 4 -22 2 12 2 32 0 45 -2 12 -4 2 -4 -23z"/>
<path d="M2320 1761 c0 -12 5 -21 10 -21 6 0 10 6 10 14 0 8 -4 18 -10 21 -5
3 -10 -3 -10 -14z"/>
<path d="M1107 1763 c-4 -3 -7 -13 -7 -22 1 -13 2 -13 11 2 8 14 14 16 24 7
10 -9 13 -25 8 -56 l-6 -45 28 11 c21 8 30 8 36 -2 9 -14 -18 -37 -43 -38 -12
0 -18 -8 -18 -25 0 -19 5 -25 23 -25 13 0 29 6 35 12 10 10 17 10 33 -1 15 -9
24 -10 32 -2 8 8 6 11 -5 11 -20 0 -24 5 -32 46 -6 28 -4 33 18 40 25 9 23 10
-32 39 -31 16 -63 35 -70 42 -15 14 -25 16 -35 6z"/>
<path d="M2270 1700 c0 -5 5 -10 11 -10 5 0 7 5 4 10 -3 6 -8 10 -11 10 -2 0
-4 -4 -4 -10z"/>
<path d="M300 1671 c-51 -27 -61 -31 -74 -31 -17 0 -27 -23 -16 -40 4 -7 6
-30 4 -52 -3 -35 -2 -39 17 -36 15 2 27 19 43 57 27 68 47 82 76 56 13 -12 20
-28 18 -44 -3 -23 0 -26 30 -25 18 1 39 5 48 8 25 10 -9 60 -62 90 -49 27 -60
30 -84 17z"/>
<path d="M2177 1672 c-37 -3 -38 -4 -31 -35 9 -44 21 -65 44 -77 27 -14 39 13
31 70 l-6 45 -38 -3z"/>
<path d="M1307 1659 c7 -7 15 -10 18 -7 3 3 -2 9 -12 12 -14 6 -15 5 -6 -5z"/>
<path d="M2053 1630 c-27 -11 -29 -30 -8 -70 17 -33 50 -54 71 -46 21 8 17 69
-7 100 -22 28 -24 29 -56 16z"/>
<path d="M1395 1620 c-4 -6 3 -10 14 -10 25 0 27 6 6 13 -8 4 -17 2 -20 -3z"/>
<path d="M2277 1604 c-4 -4 -7 -18 -7 -31 0 -17 6 -23 21 -23 16 0 20 5 17 27
-3 26 -18 39 -31 27z"/>
<path d="M59 1523 c-13 -16 -12 -17 4 -4 9 7 17 15 17 17 0 8 -8 3 -21 -13z"/>
<path d="M2000 1507 c0 -8 7 -18 16 -21 11 -4 14 -1 12 11 -4 21 -28 30 -28
10z"/>
<path d="M140 1502 c0 -14 11 -21 26 -15 21 8 17 23 -6 23 -11 0 -20 -4 -20
-8z"/>
<path d="M497 1426 c21 -24 39 -43 41 -41 8 7 -30 65 -47 75 -34 18 -33 11 6
-34z"/>
<path d="M0 720 l0 -720 230 0 c197 0 229 2 224 15 -4 9 3 16 23 21 41 10 154
73 181 101 13 12 33 23 45 23 26 0 53 15 41 22 -23 13 -74 21 -124 19 l-55 -2
-89 188 c-137 287 -135 281 -129 508 5 175 4 196 -17 273 -15 55 -29 86 -41
93 -18 9 -19 5 -19 -55 0 -56 -3 -67 -22 -81 -21 -14 -23 -14 -26 2 -10 51
-46 153 -67 189 -26 44 -80 91 -127 112 l-28 12 0 -720z m151 176 l-21 -20
-42 21 -43 21 63 -1 63 0 -20 -21z"/>
<path d="M1525 1298 c-4 -10 -11 -15 -16 -12 -5 3 -9 -2 -9 -10 0 -9 7 -16 16
-16 14 0 14 -2 0 -22 -20 -28 -21 -77 -2 -84 20 -8 66 25 66 46 0 10 -7 20
-15 24 -18 7 -20 42 -2 49 7 4 6 6 -5 6 -9 1 -18 9 -21 19 -4 16 -4 16 -12 0z"/>
<path d="M2148 1293 c7 -3 16 -2 19 1 4 3 -2 6 -13 5 -11 0 -14 -3 -6 -6z"/>
<path d="M2193 1293 c9 -2 23 -2 30 0 6 3 -1 5 -18 5 -16 0 -22 -2 -12 -5z"/>
<path d="M1597 1263 c-14 -13 -6 -30 19 -41 18 -9 24 -19 22 -35 -2 -17 -9
-22 -35 -22 -30 0 -32 -3 -55 -70 -28 -84 -51 -100 -143 -97 -75 3 -97 18
-120 79 -10 26 -21 51 -24 55 -4 4 -27 4 -51 0 l-45 -7 -5 -62 -5 -61 50 -6
c28 -3 77 -6 111 -6 36 0 68 -6 80 -14 14 -11 22 -11 32 -3 10 8 16 7 23 -4 6
-9 12 -10 17 -4 12 17 362 17 443 0 69 -15 127 -20 118 -10 -3 2 -14 6 -25 8
-10 1 -28 8 -39 15 -19 11 -19 11 3 12 16 0 21 4 15 13 -4 6 -10 30 -13 52 -5
40 -5 40 -46 37 -27 -2 -45 2 -53 12 -10 12 -17 13 -31 4 -14 -9 -25 -7 -55
10 l-37 22 -25 -20 c-45 -35 -96 -18 -54 18 19 16 20 20 8 54 -21 59 -59 93
-80 71z"/>
<path d="M493 1208 c-42 -20 -35 -88 10 -88 36 0 67 28 67 59 0 39 -31 51 -77
29z"/>
<path d="M1211 1171 c-11 -7 -9 -10 8 -16 25 -8 36 -2 26 14 -8 13 -15 14 -34
2z"/>
<path d="M1765 1160 c-3 -5 -1 -10 4 -10 6 0 11 5 11 10 0 6 -2 10 -4 10 -3 0
-8 -4 -11 -10z"/>
<path d="M2690 1133 c0 -10 -5 -35 -10 -55 -11 -37 -11 -37 -68 -40 l-57 -3 3
-32 c4 -35 -2 -38 -42 -23 -36 13 -32 27 12 48 53 25 49 47 -8 47 -25 0 -49 6
-53 13 -11 17 -28 15 -21 -2 3 -8 11 -41 18 -74 l12 -59 -45 4 c-38 3 -43 2
-27 -8 13 -8 47 -9 113 -4 84 6 92 9 81 23 -11 13 -9 14 17 8 16 -4 32 -10 34
-12 3 -2 -3 -35 -13 -72 -17 -70 -23 -95 -25 -124 -3 -40 -88 -12 -153 50 -28
26 -28 26 -28 3 0 -12 3 -20 8 -18 4 3 7 -6 7 -19 0 -13 -3 -24 -7 -24 -5 0
-8 5 -8 10 0 6 -4 10 -10 10 -5 0 -10 -10 -10 -23 0 -25 -29 -72 -30 -48 0 7
-6 11 -15 7 -30 -11 -44 5 -50 59 -8 57 -8 57 -53 13 -16 -16 -24 -16 -106 -2
-73 13 -101 14 -152 4 -40 -8 -94 -10 -146 -5 -68 6 -81 5 -70 -6 9 -10 57
-13 203 -11 235 3 255 -3 265 -78 6 -44 9 -48 43 -58 53 -16 98 -23 171 -25
36 -1 79 -9 95 -17 25 -13 36 -13 65 -3 41 14 100 17 100 4 0 -11 46 -20 72
-13 21 5 21 6 2 110 -4 17 -2 32 2 32 5 0 10 -12 11 -27 0 -15 11 -34 25 -44
23 -18 23 -18 71 29 71 69 87 106 87 199 l0 78 -21 -35 c-12 -19 -32 -47 -46
-62 -20 -21 -24 -32 -18 -57 8 -35 2 -39 -24 -13 -72 69 -88 147 -51 243 l19
52 -30 -29 c-16 -15 -34 -46 -40 -69 -6 -22 -15 -48 -20 -57 -5 -10 -9 -29 -9
-43 0 -14 -5 -43 -12 -64 l-12 -39 -33 16 c-38 18 -41 28 -32 107 5 35 3 65
-2 72 -7 7 -6 13 1 18 5 3 10 -1 10 -9 0 -9 9 -16 20 -16 24 0 25 15 5 53 -9
19 -12 43 -8 77 3 28 3 50 -1 50 -3 0 -6 -8 -6 -17z m0 -383 c0 -4 -7 -10 -15
-14 -10 -4 -15 1 -15 14 0 13 5 18 15 14 8 -4 15 -10 15 -14z m144 -5 c13 -19
13 -23 2 -19 -8 3 -16 14 -19 25 -7 25 -3 24 17 -6z"/>
<path d="M1665 1120 c-3 -5 -1 -10 4 -10 6 0 11 5 11 10 0 6 -2 10 -4 10 -3 0
-8 -4 -11 -10z"/>
<path d="M660 1091 c-8 -6 -26 -7 -41 -4 -33 6 -37 -4 -40 -112 -2 -63 -7 -85
-22 -102 -15 -16 -18 -30 -13 -54 5 -26 1 -35 -19 -51 -34 -26 -32 -52 11
-183 52 -160 58 -168 86 -107 15 30 15 38 4 44 -20 11 -40 131 -31 191 4 29 6
75 6 103 -2 58 6 63 84 64 22 0 47 5 55 10 13 9 13 12 -1 23 -9 7 -26 32 -39
57 -19 38 -21 49 -11 75 19 53 9 69 -29 46z"/>
<path d="M758 1015 c-10 -21 -9 -29 5 -42 13 -14 19 -14 32 -3 21 17 16 64 -7
68 -11 2 -22 -6 -30 -23z"/>
<path d="M2040 973 c8 -3 24 -10 35 -16 18 -9 19 -9 6 6 -7 10 -23 17 -35 16
-14 0 -16 -2 -6 -6z"/>
<path d="M2273 966 c-51 -24 -10 -36 46 -13 17 7 28 16 24 20 -9 10 -44 7 -70
-7z"/>
<path d="M2123 953 c15 -2 37 -2 50 0 12 2 0 4 -28 4 -27 0 -38 -2 -22 -4z"/>
<path d="M1420 892 c0 -13 -6 -22 -15 -22 -12 0 -14 -7 -9 -27 4 -16 9 -31 11
-35 6 -12 43 -10 43 2 0 6 -5 10 -10 10 -6 0 -10 17 -8 40 1 22 -1 43 -5 46
-4 4 -7 -2 -7 -14z"/>
<path d="M1790 902 c0 -6 -9 -12 -19 -12 -11 0 -35 -8 -53 -19 -18 -10 -71
-29 -118 -41 -47 -12 -87 -24 -90 -27 -9 -9 73 4 133 21 32 9 82 19 112 22 30
4 63 13 72 21 10 8 13 12 6 9 -6 -4 -19 4 -27 16 -9 12 -16 17 -16 10z"/>
<path d="M1655 810 c3 -5 13 -10 21 -10 8 0 14 5 14 10 0 6 -9 10 -21 10 -11
0 -17 -4 -14 -10z"/>
<path d="M1244 682 c10 -17 75 -27 89 -13 8 8 2 11 -25 11 -20 0 -44 3 -54 7
-11 4 -15 3 -10 -5z"/>
<path d="M1330 619 c-25 -11 -57 -31 -71 -45 l-26 -25 -113 16 c-62 8 -115 13
-118 10 -14 -13 215 -47 238 -35 10 5 33 7 53 3 20 -3 66 2 106 12 39 9 86 15
104 13 60 -9 212 -41 281 -59 82 -22 136 -66 136 -111 0 -15 3 -27 8 -26 15 6
13 -15 -9 -60 -24 -50 -273 -311 -286 -299 -3 4 3 17 15 30 26 28 42 127 20
127 -7 0 -31 -20 -51 -45 -21 -25 -47 -45 -57 -45 -10 0 -22 -5 -25 -10 -4 -6
-32 -24 -63 -40 l-57 -29 793 -1 792 0 0 235 0 235 -44 -6 c-35 -5 -54 -2 -87
15 -23 12 -43 20 -46 18 -4 -5 46 -127 59 -141 4 -6 8 -18 8 -28 0 -9 11 -43
25 -74 30 -68 30 -67 6 -54 -11 5 -42 10 -70 10 -42 0 -53 4 -66 24 -9 13 -29
29 -45 36 -20 8 -34 25 -46 56 -9 24 -21 41 -26 37 -23 -14 19 -157 60 -206 8
-9 13 -20 9 -23 -3 -3 -14 7 -23 23 -10 15 -21 30 -24 33 -3 3 -22 26 -43 53
-41 51 -62 53 -52 5 6 -24 3 -33 -14 -45 -12 -8 -19 -18 -16 -23 10 -15 -7
-40 -27 -40 -11 0 -35 12 -53 28 -45 36 -123 92 -130 92 -3 0 15 -21 40 -47
41 -44 54 -63 40 -63 -22 0 -183 106 -227 149 -37 37 -53 100 -33 137 8 15 12
31 9 34 -8 7 -35 -31 -29 -41 3 -4 1 -10 -4 -13 -5 -4 -15 -39 -21 -80 -17
-103 -21 -106 -67 -66 -21 19 -36 35 -33 36 3 1 -4 12 -15 24 -16 18 -17 24
-7 41 7 11 12 40 11 64 l-3 43 -45 -5 c-38 -4 -62 2 -140 36 -52 23 -108 41
-125 41 -52 0 -164 28 -219 53 -77 36 -106 39 -157 16z m103 -29 c4 -4 -18
-13 -50 -21 -91 -22 -128 -6 -55 25 35 14 87 13 105 -4z m1497 -214 c0 -18
-16 -29 -30 -21 -13 8 -1 35 16 35 8 0 14 -6 14 -14z m40 -61 c10 -12 10 -15
-4 -15 -9 0 -16 7 -16 15 0 8 2 15 4 15 2 0 9 -7 16 -15z m-740 -75 c8 -16 8
-18 -4 -14 -17 6 -30 34 -16 34 5 0 14 -9 20 -20z"/>
<path d="M2722 520 c0 -19 2 -27 5 -17 2 9 2 25 0 35 -3 9 -5 1 -5 -18z"/>
<path d="M1216 321 c-7 -10 -146 -93 -331 -196 -77 -43 -147 -84 -155 -91 -22
-19 -66 -20 -127 -4 -57 15 -67 12 -57 -14 5 -14 36 -16 293 -16 l286 0 60 52
c74 63 113 88 189 119 32 13 79 42 104 64 l45 39 -139 28 c-160 31 -161 31
-168 19z m145 -54 c-5 -7 -24 -20 -43 -30 -18 -10 -25 -12 -15 -4 9 8 17 19
17 25 0 14 32 32 43 25 4 -3 4 -10 -2 -16z m-186 -108 c10 -15 -1 -23 -20 -15
-9 3 -13 10 -10 16 8 13 22 13 30 -1z"/>
<path d="M2310 296 c0 -2 8 -10 18 -17 15 -13 16 -12 3 4 -13 16 -21 21 -21
13z"/>
</g>
</svg>
